<?xml version="1.0" encoding="UTF-8" standalone="no"?>
<!DOCTYPE svg PUBLIC "-//W3C//DTD SVG 1.1//EN" "http://www.w3.org/Graphics/SVG/1.1/DTD/svg11.dtd">
<svg width="100%" height="100%" viewBox="0 0 264 272" version="1.1" xmlns="http://www.w3.org/2000/svg" xmlns:xlink="http://www.w3.org/1999/xlink" xml:space="preserve" xmlns:serif="http://www.serif.com/" style="fill-rule:evenodd;clip-rule:evenodd;stroke-linecap:round;stroke-linejoin:round;">
    <g transform="matrix(1,0,0,1,-1527.34,0)">
        <g id="Ebene-1" serif:id="Ebene 1">
        </g>
        <g id="Ebene-11" serif:id="Ebene 1">
        </g>
        <g id="Artboard13" transform="matrix(1,0,0,1,-570.008,320.03)">
            <rect x="2097.34" y="-320.03" width="263.909" height="271.536" style="fill:none;"/>
            <g transform="matrix(0.205358,0.205358,-0.424786,0.424786,1969.18,-497.797)">
                <path d="M1629.44,88.108L1576.32,88.108C1556.24,88.108 1539.93,80.226 1539.93,70.517C1539.93,60.809 1556.24,52.926 1576.32,52.926L1666.71,53.816" style="fill:none;stroke:white;stroke-width:22.08px;"/>
            </g>
            <g transform="matrix(0.205358,0.205358,-0.424786,0.424786,1987.29,-507.433)">
                <path d="M1629.44,88.108L1576.32,88.108C1556.24,88.108 1539.93,80.226 1539.93,70.517C1539.93,60.809 1556.24,52.926 1576.32,52.926L1666.71,53.816" style="fill:none;stroke:white;stroke-width:22.08px;"/>
            </g>
            <g transform="matrix(0.205358,0.205358,-0.424786,0.424786,2011.8,-512.27)">
                <path d="M1629.44,88.108L1576.32,88.108C1556.24,88.108 1539.93,80.226 1539.93,70.517C1539.93,60.809 1556.24,52.926 1576.32,52.926L1713.05,53.816" style="fill:none;stroke:white;stroke-width:22.08px;"/>
            </g>
            <g transform="matrix(1.02548,0,0,1.02548,527.448,-320.702)">
                <path d="M1694.09,219.129C1694.09,219.129 1653.36,213.303 1657.78,238.031C1658.48,241.921 1678.31,239.436 1688.32,244.009C1699.44,249.086 1717.98,257.853 1730.4,256.538C1742.83,255.223 1759.17,241.225 1762.89,236.12C1766.6,231.016 1781.45,218.719 1780.29,203.174C1779.13,187.629 1768.23,178.533 1768.23,178.533" style="fill:none;stroke:white;stroke-width:10.16px;"/>
            </g>
            <g transform="matrix(0.957254,0,0,1.79943,632.164,-388.894)">
                <path d="M1774.92,70.517C1774.92,80.226 1760.1,88.108 1741.85,88.108L1573,88.108C1554.75,88.108 1539.93,80.226 1539.93,70.517C1539.93,60.809 1554.75,52.926 1573,52.926L1741.85,52.926C1760.1,52.926 1774.92,60.809 1774.92,70.517Z" style="fill:none;stroke:white;stroke-width:7.23px;"/>
            </g>
            <g transform="matrix(1.02548,0,0,1.02548,527.448,-320.702)">
                <circle cx="1581.15" cy="57.241" r="11.501" style="fill:none;stroke:white;stroke-width:10.16px;"/>
            </g>
            <g transform="matrix(1.02548,0,0,1.02548,581.122,-320.702)">
                <circle cx="1581.15" cy="57.241" r="11.501" style="fill:none;stroke:white;stroke-width:10.16px;"/>
            </g>
            <g transform="matrix(0.957254,0,0,1.79943,632.164,-325.586)">
                <path d="M1619.4,88.108L1573,88.108C1554.75,88.108 1539.93,80.226 1539.93,70.517C1539.93,60.809 1554.75,52.926 1573,52.926L1741.85,52.926C1760.1,52.926 1774.92,60.809 1774.92,70.517" style="fill:none;stroke:white;stroke-width:7.23px;"/>
            </g>
            <g transform="matrix(1.02548,0,0,1.02548,527.448,-257.395)">
                <circle cx="1581.15" cy="57.241" r="11.501" style="fill:none;stroke:white;stroke-width:10.16px;"/>
            </g>
            <g transform="matrix(1.02548,0,0,1.02548,581.122,-257.395)">
                <circle cx="1581.15" cy="57.241" r="11.501" style="fill:none;stroke:white;stroke-width:10.16px;"/>
            </g>
            <g transform="matrix(0.957254,0,0,1.79943,632.164,-262.279)">
                <path d="M1640.52,88.108L1573,88.108C1554.75,88.108 1539.93,80.226 1539.93,70.517C1539.93,60.809 1554.75,52.926 1573,52.926L1622.32,52.926" style="fill:none;stroke:white;stroke-width:7.23px;"/>
            </g>
            <g transform="matrix(1.02548,0,0,1.02548,527.448,-194.088)">
                <circle cx="1581.15" cy="57.241" r="11.501" style="fill:none;stroke:white;stroke-width:10.16px;"/>
            </g>
            <g transform="matrix(0.333283,0.333283,-0.424786,0.424786,1727.78,-709.435)">
                <path d="M1728.32,88.108L1562.35,88.108C1549.98,88.108 1539.93,80.226 1539.93,70.517C1539.93,60.809 1549.98,52.926 1562.35,52.926L1661.12,52.926" style="fill:none;stroke:white;stroke-width:19.29px;"/>
            </g>
        </g>
    </g>
</svg>
