<?xml version="1.0" encoding="UTF-8" standalone="no"?>
<!DOCTYPE svg PUBLIC "-//W3C//DTD SVG 1.1//EN" "http://www.w3.org/Graphics/SVG/1.1/DTD/svg11.dtd">
<svg width="100%" height="100%" viewBox="0 0 264 273" version="1.1" xmlns="http://www.w3.org/2000/svg" xmlns:xlink="http://www.w3.org/1999/xlink" xml:space="preserve" xmlns:serif="http://www.serif.com/" style="fill-rule:evenodd;clip-rule:evenodd;stroke-linecap:round;stroke-linejoin:round;">
    <g transform="matrix(1,0,0,1,-1852.57,-1.84064)">
        <g id="Ebene-1" serif:id="Ebene 1">
        </g>
        <g id="Ebene-11" serif:id="Ebene 1">
        </g>
        <g id="Artboard1" transform="matrix(0.604976,0,0,0.500542,2605.3,-90.2869)">
            <rect x="-1244.24" y="184.055" width="435.202" height="543.482" style="fill:none;"/>
            <g transform="matrix(7.00162,0,0,8.46245,-1249.5,177.841)">
                <path d="M26.423,25.498L30.5,25.498L30.5,20.285C28.195,19.629 26.5,17.51 26.5,14.998C26.5,14.169 27.171,13.498 28,13.498C28.829,13.498 29.5,14.169 29.5,14.998C29.5,16.376 30.622,17.498 32,17.498C33.379,17.498 34.5,16.376 34.5,14.998C34.5,14.169 35.172,13.498 36,13.498C36.828,13.498 37.5,14.169 37.5,14.998C37.5,17.51 35.805,19.629 33.5,20.285L33.5,25.498L37.572,25.498C37.668,25.175 37.859,24.894 38.129,24.724C41.492,22.602 43.5,18.967 43.5,14.998C43.5,11.732 42.104,8.609 39.67,6.428C37.237,4.25 33.968,3.21 30.695,3.57C25.556,4.138 21.315,8.262 20.612,13.374C19.984,17.933 22,22.282 25.872,24.725C26.136,24.892 26.325,25.172 26.423,25.498L26.423,25.498Z" style="fill:white;fill-rule:nonzero;"/>
            </g>
            <g transform="matrix(7.00162,0,0,8.46245,-1249.5,177.841)">
                <path d="M26.5,28.498L26.5,28.998C26.5,31.479 28.519,33.498 31,33.498L33,33.498C35.481,33.498 37.5,31.479 37.5,28.998L37.5,28.498L26.5,28.498Z" style="fill:white;fill-rule:nonzero;"/>
            </g>
            <g transform="matrix(1.78035,0,0,2.15181,-4555.44,117.03)">
                <path d="M2009.37,97.314C2029.16,106.775 2043.8,126.716 2043.8,150.865C2043.8,150.865 2042.92,161.195 2041.87,165.769C2040.36,172.353 2039.48,177.665 2034.18,190.018C2027.99,204.447 2033.97,261.231 2033.97,261.231L1962.74,261.231L1968.91,233.287M2006.63,192.465C2004.36,198.46 1993.82,228.446 1982.08,230.673C1969.89,232.986 1932.81,235.878 1931.91,228.927C1930.88,220.982 1932.49,209.326 1934.4,199.95L1915.24,200.278C1920.49,191.835 1926.9,183.492 1928.55,173.687C1929.47,168.283 1925.3,161.546 1924.58,149.699C1924.25,144.275 1926.2,135.068 1929.31,127.68C1932.28,120.63 1936.68,114.145 1942.08,108.738C1946.68,104.138 1952.06,100.267 1957.91,97.386" style="fill:none;stroke:white;stroke-width:9.67px;"/>
            </g>
            <g transform="matrix(1.69301,0,0,1.4904,-4390.57,196.328)">
                <path d="M1930.93,262.539L1896.2,262.539C1884.65,262.539 1875.27,249.663 1875.27,233.805L1875.27,66.521C1875.27,50.662 1884.65,37.787 1896.2,37.787L1960.74,37.787M2043.07,37.787L2079.1,37.787C2090.65,37.787 2100.02,50.662 2100.02,66.521L2100.02,233.805C2100.02,249.663 2090.65,262.539 2079.1,262.539L2043.41,262.539" style="fill:none;stroke:white;stroke-width:11.63px;"/>
            </g>
            <g transform="matrix(1.65296,0,0,1.99783,-4306.45,180.378)">
                <path d="M1893.85,60.443L1916.32,60.443" style="fill:none;stroke:white;stroke-width:10.42px;"/>
            </g>
            <g transform="matrix(1.65296,0,0,1.99783,-4306.45,220.654)">
                <path d="M1893.85,60.443L1905.09,60.443" style="fill:none;stroke:white;stroke-width:10.42px;"/>
            </g>
            <g transform="matrix(-1.65296,0,0,1.99783,2250.84,180.378)">
                <path d="M1893.85,60.443L1916.32,60.443" style="fill:none;stroke:white;stroke-width:10.42px;"/>
            </g>
            <g transform="matrix(-1.65296,0,0,1.99783,2250.84,220.654)">
                <path d="M1893.85,60.443L1905.09,60.443" style="fill:none;stroke:white;stroke-width:10.42px;"/>
            </g>
        </g>
    </g>
</svg>
