<?xml version="1.0" encoding="UTF-8" standalone="no"?><!DOCTYPE svg PUBLIC "-//W3C//DTD SVG 1.1//EN" "http://www.w3.org/Graphics/SVG/1.1/DTD/svg11.dtd"><svg width="100%" height="100%" viewBox="0 0 3612 1142" version="1.1" xmlns="http://www.w3.org/2000/svg" xmlns:xlink="http://www.w3.org/1999/xlink" xml:space="preserve" xmlns:serif="http://www.serif.com/" style="fill-rule:evenodd;clip-rule:evenodd;stroke-linejoin:round;stroke-miterlimit:2;"><rect id="OnWhiteSparkAkademy" x="0" y="0" width="3611.08" height="1141.98" style="fill:none;"/><clipPath id="_clip1"><rect x="0" y="0" width="3611.08" height="1141.98"/></clipPath><g clip-path="url(#_clip1)"><path d="M831.524,544.036l-114.053,-290.134l44.021,0l88.04,216.1l93.543,-216.1l54.025,0l99.546,215.6l82.038,-215.6l44.52,0l-109.55,290.134l-35.516,0l-108.05,-239.61l-102.547,239.61l-36.017,0Z" style="fill-rule:nonzero;stroke:#fff;stroke-width:1px;"/><path d="M1262.72,544.036l-0,-385.177l41.019,-0l-0,95.043l194.089,0c11.005,0 21.093,2.752 30.264,8.254c9.171,5.503 16.508,12.839 22.01,22.01c5.503,9.171 8.254,19.259 8.254,30.264l-0,229.606l-41.019,0l0,-229.606c0,-5.336 -1.917,-9.921 -5.753,-13.756c-3.835,-3.835 -8.42,-5.753 -13.756,-5.753l-174.08,0c-5.336,0 -10.005,1.918 -14.007,5.753c-4.001,3.835 -6.002,8.42 -6.002,13.756l-0,229.606l-41.019,0Z" style="fill-rule:nonzero;stroke:#fff;stroke-width:1px;"/><path d="M1658.9,544.036c-11.005,0 -21.093,-2.751 -30.264,-8.254c-9.171,-5.502 -16.507,-12.839 -22.01,-22.01c-5.502,-9.171 -8.254,-19.259 -8.254,-30.264l0,-105.048l254.118,-0l-0,-64.03c-0,-5.336 -1.918,-9.921 -5.753,-13.756c-3.835,-3.835 -8.421,-5.753 -13.756,-5.753l-234.609,0l0,-41.019l234.609,0c11.338,0 21.593,2.752 30.764,8.254c9.171,5.503 16.507,12.839 22.01,22.01c5.502,9.171 8.254,19.259 8.254,30.264l-0,229.606l-235.109,0Zm0,-41.019l193.59,0l-0,-83.538l-213.099,-0l0,64.029c0,5.336 1.918,9.921 5.753,13.757c3.835,3.835 8.421,5.752 13.756,5.752Z" style="fill-rule:nonzero;stroke:#fff;stroke-width:1px;"/><path d="M1946.54,544.036l-0,-385.177l41.019,-0l-0,219.601l80.037,-0l114.052,-124.558l54.025,0l0,0.501l-131.56,144.566l131.06,144.567l-0,0.5l-53.525,0l-114.052,-124.557l-80.037,-0l-0,124.557l-41.019,0Z" style="fill-rule:nonzero;stroke:#fff;stroke-width:1px;"/><path d="M2329.21,544.036c-11.005,0 -21.093,-2.751 -30.264,-8.254c-9.171,-5.502 -16.507,-12.839 -22.01,-22.01c-5.502,-9.171 -8.254,-19.259 -8.254,-30.264l0,-105.048l254.117,-0l0,-64.03c0,-5.336 -1.917,-9.921 -5.752,-13.756c-3.835,-3.835 -8.421,-5.753 -13.757,-5.753l-234.608,0l0,-41.019l234.608,0c11.339,0 21.594,2.752 30.765,8.254c9.171,5.503 16.507,12.839 22.01,22.01c5.502,9.171 8.254,19.259 8.254,30.264l-0,229.606l-235.109,0Zm0,-41.019l193.589,0l0,-83.538l-213.098,-0l0,64.029c0,5.336 1.918,9.921 5.753,13.757c3.835,3.835 8.42,5.752 13.756,5.752Z" style="fill-rule:nonzero;stroke:#fff;stroke-width:1px;"/><path d="M2676.37,544.036c-11.005,0 -21.093,-2.751 -30.264,-8.254c-9.171,-5.502 -16.507,-12.839 -22.01,-22.01c-5.502,-9.171 -8.254,-19.259 -8.254,-30.264l0,-105.048l254.117,-0l0,-64.03c0,-5.336 -1.917,-9.921 -5.752,-13.756c-3.835,-3.835 -8.421,-5.753 -13.756,-5.753l-234.609,0l0,-41.019l234.609,0c11.338,0 21.593,2.752 30.764,8.254c9.171,5.503 16.507,12.839 22.01,22.01c5.502,9.171 8.254,19.259 8.254,30.264l-0,229.606l-235.109,0Zm0,-41.019l193.589,0l0,-83.538l-213.098,-0l0,64.029c0,5.336 1.918,9.921 5.753,13.757c3.835,3.835 8.42,5.752 13.756,5.752Z" style="fill-rule:nonzero;stroke:#fff;stroke-width:1px;"/><path d="M2964.01,544.036l-0,-385.177l41.019,-0l-0,219.601l80.037,-0l114.052,-124.558l54.025,0l0,0.501l-131.561,144.566l131.061,144.567l-0,0.5l-53.525,0l-114.052,-124.557l-80.037,-0l-0,124.557l-41.019,0Z" style="fill-rule:nonzero;stroke:#fff;stroke-width:1px;"/><path d="M3346.18,544.036c-11.005,0 -21.093,-2.751 -30.264,-8.254c-9.171,-5.502 -16.508,-12.839 -22.01,-22.01c-5.503,-9.171 -8.254,-19.259 -8.254,-30.264l0,-169.078c0,-11.005 2.751,-21.093 8.254,-30.264c5.502,-9.171 12.839,-16.507 22.01,-22.01c9.171,-5.502 19.259,-8.254 30.264,-8.254l174.08,0c11.339,0 21.594,2.752 30.764,8.254c9.171,5.503 16.508,12.839 22.011,22.01c5.502,9.171 8.253,19.259 8.253,30.264l0,169.078c0,11.005 -2.751,21.093 -8.253,30.264c-5.503,9.171 -12.84,16.508 -22.011,22.01c-9.17,5.503 -19.425,8.254 -30.764,8.254l-174.08,0Zm-0,-41.019l174.08,0c5.336,0 9.921,-1.917 13.757,-5.752c3.835,-3.836 5.752,-8.421 5.752,-13.757l0,-169.078c0,-5.336 -1.917,-9.921 -5.752,-13.756c-3.836,-3.835 -8.421,-5.753 -13.757,-5.753l-174.08,0c-5.336,0 -9.921,1.918 -13.756,5.753c-3.835,3.835 -5.753,8.42 -5.753,13.756l-0,169.078c-0,5.336 1.918,9.921 5.753,13.757c3.835,3.835 8.42,5.752 13.756,5.752Z" style="fill-rule:nonzero;stroke:#fff;stroke-width:1px;"/><path d="M851.653,751.768c-4.341,0 -8.301,-1.055 -11.879,-3.167c-3.578,-2.112 -6.423,-4.986 -8.535,-8.623c-2.112,-3.637 -3.168,-7.626 -3.168,-11.967l0,-8.447l21.118,0l-0,7.743c-0,0.939 0.293,1.701 0.88,2.288c0.586,0.587 1.349,0.88 2.288,0.88l77.782,-0c0.939,-0 1.731,-0.293 2.376,-0.88c0.645,-0.587 0.968,-1.349 0.968,-2.288l0,-25.165c0,-0.821 -0.323,-1.525 -0.968,-2.111c-0.645,-0.587 -1.437,-0.88 -2.376,-0.88l-78.486,-0c-4.341,-0 -8.301,-1.086 -11.879,-3.256c-3.578,-2.17 -6.423,-5.045 -8.535,-8.623c-2.112,-3.578 -3.168,-7.538 -3.168,-11.879l0,-26.572c0,-4.341 1.056,-8.33 3.168,-11.967c2.112,-3.637 4.957,-6.511 8.535,-8.623c3.578,-2.112 7.538,-3.168 11.879,-3.168l79.366,0c4.341,0 8.301,1.056 11.879,3.168c3.578,2.112 6.452,4.986 8.623,8.623c2.17,3.637 3.256,7.626 3.256,11.967l-0,8.447l-21.294,-0l0,-7.744c0,-0.938 -0.323,-1.701 -0.968,-2.287c-0.645,-0.587 -1.437,-0.88 -2.376,-0.88l-77.782,-0c-0.939,-0 -1.702,0.293 -2.288,0.88c-0.587,0.586 -0.88,1.349 -0.88,2.287l-0,25.165c-0,0.822 0.293,1.526 0.88,2.112c0.586,0.587 1.349,0.88 2.288,0.88l78.662,0c4.341,0 8.301,1.085 11.879,3.256c3.578,2.17 6.452,5.045 8.623,8.623c2.17,3.578 3.256,7.538 3.256,11.878l-0,26.573c-0,4.341 -1.086,8.33 -3.256,11.967c-2.171,3.637 -5.045,6.511 -8.623,8.623c-3.578,2.112 -7.538,3.167 -11.879,3.167l-79.366,0Z" style="fill:#e2af50;fill-rule:nonzero;"/><path d="M973.43,792.244l0,-142.544l80.247,0c4.223,0 8.124,1.086 11.703,3.256c3.578,2.17 6.423,5.015 8.535,8.535c2.111,3.52 3.167,7.45 3.167,11.791l0,54.905c0,4.341 -1.056,8.271 -3.167,11.791c-2.112,3.519 -4.957,6.364 -8.535,8.535c-3.579,2.17 -7.48,3.255 -11.703,3.255l-59.305,0l-0,40.476l-20.942,-0Zm24.285,-61.417l55.258,-0c0.821,-0 1.554,-0.323 2.2,-0.968c0.645,-0.645 0.968,-1.437 0.968,-2.376l-0,-53.497c-0,-0.939 -0.323,-1.731 -0.968,-2.376c-0.646,-0.645 -1.379,-0.968 -2.2,-0.968l-55.258,-0c-0.821,-0 -1.583,0.323 -2.287,0.968c-0.704,0.645 -1.056,1.437 -1.056,2.376l-0,53.497c-0,0.939 0.352,1.731 1.056,2.376c0.704,0.645 1.466,0.968 2.287,0.968Z" style="fill:#e2af50;fill-rule:nonzero;"/><path d="M1113.51,751.768c-4.341,0 -8.3,-1.085 -11.879,-3.255c-3.578,-2.171 -6.423,-5.016 -8.535,-8.535c-2.111,-3.52 -3.167,-7.45 -3.167,-11.791l-0,-38.011l82.71,-0l-0,-16.19c-0,-0.939 -0.323,-1.731 -0.968,-2.376c-0.645,-0.645 -1.437,-0.968 -2.376,-0.968l-79.366,-0l-0,-20.942l80.07,0c4.458,0 8.447,1.086 11.967,3.256c3.519,2.17 6.335,5.015 8.447,8.535c2.112,3.52 3.167,7.45 3.167,11.791l0,78.486l-80.07,0Zm0.704,-20.941l58.425,-0l-0,-21.47l-61.769,0l0,18.126c0,0.939 0.323,1.731 0.968,2.376c0.645,0.645 1.437,0.968 2.376,0.968Z" style="fill:#e2af50;fill-rule:nonzero;"/><path d="M1209.07,751.768l-0,-78.486c-0,-4.341 1.085,-8.271 3.255,-11.791c2.171,-3.52 5.045,-6.365 8.623,-8.535c3.578,-2.17 7.479,-3.256 11.703,-3.256l56.841,0l0,20.942l-56.137,-0c-0.939,-0 -1.731,0.323 -2.376,0.968c-0.645,0.645 -0.968,1.437 -0.968,2.376l0,77.782l-20.941,0Z" style="fill:#e2af50;fill-rule:nonzero;"/><path d="M1300.75,751.768l-0,-135.504l20.941,0l0,73.912l20.59,-0l37.308,-40.476l23.229,0l-0,4.928l-41.883,46.106l41.883,46.107l-0,4.927l-23.229,0l-37.308,-40.475l-20.59,0l0,40.475l-20.941,0Z" style="fill:#e2af50;fill-rule:nonzero;"/><path d="M1482.19,790.132l0,-21.118l62.121,0c0.821,0 1.555,-0.322 2.2,-0.967c0.645,-0.646 0.968,-1.379 0.968,-2.2l-0,-14.079l-59.129,0c-4.224,0 -8.125,-1.085 -11.703,-3.255c-3.578,-2.171 -6.452,-5.016 -8.623,-8.535c-2.17,-3.52 -3.255,-7.45 -3.255,-11.791l-0,-78.135l20.941,0l0,77.431c0,0.939 0.323,1.731 0.968,2.376c0.645,0.645 1.437,0.968 2.376,0.968l55.257,-0c0.821,-0 1.555,-0.323 2.2,-0.968c0.645,-0.645 0.968,-1.437 0.968,-2.376l-0,-77.431l20.941,0l0,116.499c0,4.458 -1.026,8.447 -3.079,11.966c-2.053,3.52 -4.869,6.336 -8.447,8.447c-3.579,2.112 -7.538,3.168 -11.879,3.168l-62.825,-0Z" style="fill:#e2af50;fill-rule:nonzero;"/><path d="M1606.25,751.768c-4.341,0 -8.271,-1.085 -11.791,-3.255c-3.519,-2.171 -6.364,-5.016 -8.535,-8.535c-2.17,-3.52 -3.255,-7.45 -3.255,-11.791l-0,-54.905c-0,-4.341 1.085,-8.271 3.255,-11.791c2.171,-3.52 5.016,-6.365 8.535,-8.535c3.52,-2.17 7.45,-3.256 11.791,-3.256l56.489,0c4.458,0 8.447,1.086 11.967,3.256c3.519,2.17 6.335,5.015 8.447,8.535c2.112,3.52 3.167,7.45 3.167,11.791l0,54.905c0,4.341 -1.055,8.271 -3.167,11.791c-2.112,3.519 -4.928,6.364 -8.447,8.535c-3.52,2.17 -7.509,3.255 -11.967,3.255l-56.489,0Zm0.704,-20.941l55.081,-0c0.939,-0 1.731,-0.323 2.376,-0.968c0.645,-0.645 0.968,-1.437 0.968,-2.376l-0,-53.497c-0,-0.939 -0.323,-1.731 -0.968,-2.376c-0.645,-0.645 -1.437,-0.968 -2.376,-0.968l-55.081,-0c-0.939,-0 -1.731,0.323 -2.376,0.968c-0.645,0.645 -0.968,1.437 -0.968,2.376l0,53.497c0,0.939 0.323,1.731 0.968,2.376c0.645,0.645 1.437,0.968 2.376,0.968Z" style="fill:#e2af50;fill-rule:nonzero;"/><path d="M1723.98,751.768c-4.341,0 -8.3,-1.085 -11.879,-3.255c-3.578,-2.171 -6.423,-5.016 -8.535,-8.535c-2.111,-3.52 -3.167,-7.45 -3.167,-11.791l-0,-78.487l20.941,0l0,77.783c0,0.939 0.323,1.731 0.968,2.376c0.646,0.645 1.437,0.968 2.376,0.968l55.081,-0c0.939,-0 1.731,-0.323 2.376,-0.968c0.645,-0.645 0.968,-1.437 0.968,-2.376l0,-77.783l20.942,0l-0,78.487c-0,4.341 -1.056,8.271 -3.168,11.791c-2.112,3.519 -4.927,6.364 -8.447,8.535c-3.52,2.17 -7.508,3.255 -11.967,3.255l-56.489,0Z" style="fill:#e2af50;fill-rule:nonzero;"/><path d="M1822.53,751.768l0,-78.486c0,-4.341 1.086,-8.271 3.256,-11.791c2.17,-3.52 5.045,-6.365 8.623,-8.535c3.578,-2.17 7.479,-3.256 11.703,-3.256l56.841,0l-0,20.942l-56.137,-0c-0.939,-0 -1.731,0.323 -2.376,0.968c-0.645,0.645 -0.968,1.437 -0.968,2.376l-0,77.782l-20.942,0Z" style="fill:#e2af50;fill-rule:nonzero;"/><path d="M1966.48,751.768l-0,-111.922c-0,-4.341 1.055,-8.301 3.167,-11.879c2.112,-3.578 4.957,-6.423 8.535,-8.535c3.578,-2.112 7.538,-3.168 11.879,-3.168l38.187,0l0,21.118l-37.483,-0c-0.939,-0 -1.731,0.323 -2.376,0.968c-0.645,0.645 -0.968,1.378 -0.968,2.2l0,9.15l40.827,0l0,20.942l-40.827,-0l0,81.126l-20.941,0Z" style="fill:#e2af50;fill-rule:nonzero;"/><path d="M2066.44,751.768c-4.341,0 -8.301,-1.085 -11.879,-3.255c-3.578,-2.171 -6.423,-5.016 -8.535,-8.535c-2.112,-3.52 -3.167,-7.45 -3.167,-11.791l-0,-78.487l20.941,0l0,77.783c0,0.939 0.323,1.731 0.968,2.376c0.645,0.645 1.437,0.968 2.376,0.968l55.081,-0c0.939,-0 1.731,-0.323 2.376,-0.968c0.645,-0.645 0.968,-1.437 0.968,-2.376l-0,-77.783l20.941,0l0,78.487c0,4.341 -1.056,8.271 -3.167,11.791c-2.112,3.519 -4.928,6.364 -8.447,8.535c-3.52,2.17 -7.509,3.255 -11.967,3.255l-56.489,0Z" style="fill:#e2af50;fill-rule:nonzero;"/><path d="M2185.22,751.768c-4.341,0 -8.301,-1.085 -11.879,-3.255c-3.578,-2.171 -6.423,-5.016 -8.535,-8.535c-2.112,-3.52 -3.167,-7.45 -3.167,-11.791l-0,-110.339l20.941,0l0,31.852l40.827,0l0,20.942l-40.827,-0l0,56.841c0,0.939 0.323,1.731 0.968,2.376c0.645,0.645 1.437,0.968 2.376,0.968l37.483,-0l0,20.941l-38.187,0Z" style="fill:#e2af50;fill-rule:nonzero;"/><path d="M2261.25,751.768c-4.341,0 -8.301,-1.085 -11.879,-3.255c-3.578,-2.171 -6.423,-5.016 -8.535,-8.535c-2.111,-3.52 -3.167,-7.45 -3.167,-11.791l-0,-78.487l20.941,0l0,77.783c0,0.939 0.323,1.731 0.968,2.376c0.645,0.645 1.437,0.968 2.376,0.968l55.081,-0c0.939,-0 1.731,-0.323 2.376,-0.968c0.645,-0.645 0.968,-1.437 0.968,-2.376l-0,-77.783l20.941,0l0,78.487c0,4.341 -1.055,8.271 -3.167,11.791c-2.112,3.519 -4.928,6.364 -8.447,8.535c-3.52,2.17 -7.509,3.255 -11.967,3.255l-56.489,0Z" style="fill:#e2af50;fill-rule:nonzero;"/><path d="M2359.8,751.768l0,-78.486c0,-4.341 1.085,-8.271 3.256,-11.791c2.17,-3.52 5.045,-6.365 8.623,-8.535c3.578,-2.17 7.479,-3.256 11.702,-3.256l56.842,0l-0,20.942l-56.138,-0c-0.938,-0 -1.73,0.323 -2.375,0.968c-0.646,0.645 -0.968,1.437 -0.968,2.376l-0,77.782l-20.942,0Z" style="fill:#e2af50;fill-rule:nonzero;"/><path d="M2475.41,751.768c-4.341,0 -8.271,-1.085 -11.791,-3.255c-3.52,-2.171 -6.365,-5.016 -8.535,-8.535c-2.17,-3.52 -3.256,-7.45 -3.256,-11.791l0,-54.905c0,-4.341 1.086,-8.271 3.256,-11.791c2.17,-3.52 5.015,-6.365 8.535,-8.535c3.52,-2.17 7.45,-3.256 11.791,-3.256l56.489,0c4.458,0 8.447,1.086 11.967,3.256c3.519,2.17 6.335,5.015 8.447,8.535c2.111,3.52 3.167,7.45 3.167,11.791l0,38.011l-82.71,0l-0,16.19c-0,0.939 0.323,1.731 0.968,2.376c0.645,0.645 1.437,0.968 2.376,0.968l79.366,-0l0,20.941l-80.07,0Zm-2.64,-59.657l61.769,0l-0,-18.125c-0,-0.939 -0.323,-1.731 -0.968,-2.376c-0.645,-0.645 -1.437,-0.968 -2.376,-0.968l-55.081,-0c-0.939,-0 -1.731,0.323 -2.376,0.968c-0.645,0.645 -0.968,1.437 -0.968,2.376l-0,18.125Z" style="fill:#e2af50;fill-rule:nonzero;"/><rect x="23.162" y="915.559" width="41.332" height="201.232" style="fill-rule:nonzero;stroke:#fff;stroke-width:1px;"/><path d="M108.241,977.406c4.224,-2.212 9.252,-4.324 15.085,-6.335c5.832,-2.011 12.168,-3.771 19.007,-5.28c6.838,-1.508 13.777,-2.715 20.817,-3.62c7.039,-0.905 13.677,-1.358 19.912,-1.358c13.878,0 25.493,1.861 34.846,5.582c9.352,3.72 16.442,9.604 21.269,17.649c4.827,8.045 7.241,18.504 7.241,31.376l0,101.37l-38.315,0l-0,-94.732c-0,-3.822 -0.503,-7.493 -1.509,-11.012c-1.006,-3.52 -2.715,-6.638 -5.129,-9.353c-2.413,-2.715 -5.732,-4.827 -9.956,-6.336c-4.224,-1.508 -9.654,-2.262 -16.291,-2.262c-5.029,-0 -10.107,0.503 -15.236,1.508c-5.129,1.006 -9.604,2.313 -13.426,3.922l0,118.265l-38.315,0l-0,-139.384Z" style="fill-rule:nonzero;stroke:#fff;stroke-width:1px;"/><path d="M346.883,1121.62c-15.688,-0 -27.655,-3.872 -35.902,-11.616c-8.246,-7.743 -12.369,-18.956 -12.369,-33.639l-0,-81.458l-23.533,-0l0,-30.17l23.533,0l-0,-42.237l39.824,-0l-0,42.237l34.997,0l-0,30.17l-34.997,-0l-0,75.424c-0,6.034 1.156,10.56 3.469,13.577c2.313,3.016 6.487,4.525 12.521,4.525c3.218,-0 6.587,-0.503 10.106,-1.509c3.52,-1.005 6.487,-2.313 8.901,-3.922l-0,33.187c-3.822,2.011 -8.096,3.419 -12.823,4.224c-4.726,0.804 -9.302,1.207 -13.727,1.207Z" style="fill-rule:nonzero;stroke:#fff;stroke-width:1px;"/><path d="M476.311,1121.32c-15.085,-0 -28.309,-3.118 -39.673,-9.353c-11.364,-6.235 -20.163,-15.235 -26.398,-27.002c-6.236,-11.766 -9.353,-25.996 -9.353,-42.69c-0,-26.549 6.386,-46.863 19.158,-60.942c12.772,-14.08 30.823,-21.119 54.154,-21.119c16.493,-0 29.868,3.62 40.126,10.861c10.258,7.241 17.7,17.599 22.326,31.075c4.626,13.475 6.838,29.465 6.637,47.969l-117.662,0l-2.715,-25.945l89.906,-0l-7.241,10.861c-0.402,-15.89 -3.168,-27.304 -8.297,-34.243c-5.129,-6.939 -13.325,-10.409 -24.588,-10.409c-6.839,0 -12.772,1.559 -17.8,4.677c-5.029,3.117 -8.9,8.296 -11.616,15.537c-2.715,7.241 -4.073,17.197 -4.073,29.868c0,15.688 3.671,27.656 11.012,35.902c7.342,8.246 18.655,12.37 33.941,12.37c6.235,-0 12.219,-0.604 17.951,-1.811c5.733,-1.206 11.063,-2.765 15.99,-4.676c4.928,-1.911 9.202,-3.67 12.822,-5.28l0,34.092c-7.24,3.017 -15.286,5.481 -24.135,7.392c-8.85,1.911 -19.007,2.866 -30.472,2.866Z" style="fill-rule:nonzero;stroke:#fff;stroke-width:1px;"/><path d="M577.38,1116.79l-0,-137.272c2.816,-2.011 7.794,-4.475 14.934,-7.391c7.14,-2.917 15.437,-5.531 24.89,-7.844c9.453,-2.313 19.007,-3.47 28.661,-3.47c7.241,0 13.023,0.553 17.348,1.659c4.324,1.107 7.793,2.464 10.408,4.073l0,28.963c-4.023,-0.603 -8.598,-1.106 -13.727,-1.508c-5.129,-0.402 -10.358,-0.553 -15.688,-0.453c-5.33,0.101 -10.459,0.352 -15.387,0.754c-4.928,0.403 -9.302,0.906 -13.124,1.509l0,120.98l-38.315,0Z" style="fill-rule:nonzero;stroke:#fff;stroke-width:1px;"/><path d="M702.282,977.406c4.224,-2.212 9.252,-4.324 15.085,-6.335c5.833,-2.011 12.169,-3.771 19.007,-5.28c6.839,-1.508 13.778,-2.715 20.817,-3.62c7.04,-0.905 13.677,-1.358 19.912,-1.358c13.878,0 25.494,1.861 34.846,5.582c9.353,3.72 16.443,9.604 21.27,17.649c4.827,8.045 7.241,18.504 7.241,31.376l-0,101.37l-38.316,0l0,-94.732c0,-3.822 -0.503,-7.493 -1.508,-11.012c-1.006,-3.52 -2.716,-6.638 -5.129,-9.353c-2.414,-2.715 -5.733,-4.827 -9.956,-6.336c-4.224,-1.508 -9.655,-2.262 -16.292,-2.262c-5.028,-0 -10.107,0.503 -15.236,1.508c-5.129,1.006 -9.604,2.313 -13.425,3.922l-0,118.265l-38.316,0l0,-139.384Z" style="fill-rule:nonzero;stroke:#fff;stroke-width:1px;"/><path d="M939.718,1121.32c-8.649,-0 -16.795,-0.805 -24.438,-2.414c-7.643,-1.609 -14.481,-4.324 -20.515,-8.145c-6.034,-3.822 -10.811,-9.001 -14.331,-15.538c-3.519,-6.537 -5.279,-14.632 -5.279,-24.286c-0,-10.459 2.112,-19.259 6.335,-26.399c4.224,-7.14 10.409,-12.571 18.555,-16.292c8.146,-3.721 18.152,-5.581 30.019,-5.581c7.24,0 13.978,0.654 20.213,1.961c6.235,1.307 11.867,3.118 16.895,5.431c5.029,2.313 9.152,4.776 12.37,7.391l2.715,21.421c-4.224,-2.816 -9.604,-5.079 -16.141,-6.789c-6.536,-1.709 -13.626,-2.564 -21.269,-2.564c-10.66,0 -18.605,1.71 -23.834,5.129c-5.23,3.419 -7.844,8.749 -7.844,15.99c-0,4.827 1.407,8.95 4.223,12.369c2.816,3.42 6.436,5.934 10.861,7.543c4.425,1.609 9.051,2.413 13.878,2.413c11.063,0 19.058,-0.754 23.985,-2.262c4.928,-1.509 7.392,-4.777 7.392,-9.805l-0,-59.736c-0,-9.856 -3.118,-17.046 -9.353,-21.572c-6.235,-4.525 -14.984,-6.788 -26.247,-6.788c-8.649,0 -17.499,1.458 -26.55,4.375c-9.051,2.916 -16.392,6.687 -22.024,11.313l0,-34.695c5.431,-3.62 13.577,-6.688 24.438,-9.202c10.861,-2.514 22.527,-3.771 34.997,-3.771c5.229,0 10.76,0.453 16.593,1.358c5.833,0.905 11.465,2.464 16.895,4.676c5.431,2.213 10.358,5.33 14.783,9.353c4.425,4.022 7.945,9 10.56,14.934c2.614,5.933 3.922,13.124 3.922,21.571l-0.302,72.106c0,9.252 -2.967,16.543 -8.9,21.873c-5.933,5.33 -14.28,9.101 -25.041,11.313c-10.76,2.213 -23.281,3.319 -37.561,3.319Z" style="fill-rule:nonzero;stroke:#fff;stroke-width:1px;"/><path d="M1111.99,1121.62c-15.688,-0 -27.656,-3.872 -35.902,-11.616c-8.246,-7.743 -12.37,-18.956 -12.37,-33.639l0,-81.458l-23.532,-0l-0,-30.17l23.532,0l0,-42.237l39.824,-0l0,42.237l34.997,0l0,30.17l-34.997,-0l0,75.424c0,6.034 1.157,10.56 3.47,13.577c2.313,3.016 6.486,4.525 12.52,4.525c3.218,-0 6.587,-0.503 10.107,-1.509c3.52,-1.005 6.487,-2.313 8.9,-3.922l0,33.187c-3.821,2.011 -8.095,3.419 -12.822,4.224c-4.726,0.804 -9.302,1.207 -13.727,1.207Z" style="fill-rule:nonzero;stroke:#fff;stroke-width:1px;"/><path d="M1175.04,1116.79l-0,-150.546l38.315,-0l0.302,150.546l-38.617,0Zm-0.906,-174.682l0,-31.678l40.126,-0l0,31.678l-40.126,-0Z" style="fill-rule:nonzero;stroke:#fff;stroke-width:1px;"/><path d="M1323.48,1121.32c-25.142,-0 -43.948,-6.939 -56.418,-20.817c-12.47,-13.878 -18.705,-33.891 -18.705,-60.038c-0,-28.158 6.386,-48.573 19.158,-61.244c12.772,-12.672 31.326,-19.007 55.663,-19.007c16.895,-0 30.924,2.966 42.087,8.9c11.162,5.933 19.56,14.833 25.191,26.7c5.632,11.867 8.448,26.75 8.448,44.651c-0,26.147 -6.537,46.16 -19.611,60.038c-13.073,13.878 -31.678,20.817 -55.813,20.817Zm-0.302,-31.377c8.85,0 16.04,-2.011 21.571,-6.033c5.531,-4.023 9.604,-9.755 12.219,-17.197c2.615,-7.442 3.922,-16.191 3.922,-26.248c-0,-11.464 -1.358,-20.817 -4.073,-28.058c-2.715,-7.24 -6.838,-12.57 -12.37,-15.99c-5.531,-3.419 -12.621,-5.128 -21.269,-5.128c-8.85,-0 -15.99,1.81 -21.421,5.43c-5.43,3.62 -9.352,9.051 -11.766,16.292c-2.413,7.24 -3.62,16.392 -3.62,27.454c-0,15.89 2.866,28.108 8.598,36.656c5.732,8.548 15.135,12.822 28.209,12.822Z" style="fill-rule:nonzero;stroke:#fff;stroke-width:1px;"/><path d="M1432.69,977.406c4.224,-2.212 9.252,-4.324 15.085,-6.335c5.833,-2.011 12.168,-3.771 19.007,-5.28c6.838,-1.508 13.777,-2.715 20.817,-3.62c7.039,-0.905 13.677,-1.358 19.912,-1.358c13.878,0 25.493,1.861 34.846,5.582c9.352,3.72 16.442,9.604 21.269,17.649c4.828,8.045 7.241,18.504 7.241,31.376l0,101.37l-38.315,0l-0,-94.732c-0,-3.822 -0.503,-7.493 -1.509,-11.012c-1.006,-3.52 -2.715,-6.638 -5.129,-9.353c-2.413,-2.715 -5.732,-4.827 -9.956,-6.336c-4.224,-1.508 -9.654,-2.262 -16.291,-2.262c-5.029,-0 -10.107,0.503 -15.236,1.508c-5.129,1.006 -9.604,2.313 -13.426,3.922l0,118.265l-38.315,0l-0,-139.384Z" style="fill-rule:nonzero;stroke:#fff;stroke-width:1px;"/><path d="M1670.13,1121.32c-8.648,-0 -16.794,-0.805 -24.437,-2.414c-7.643,-1.609 -14.482,-4.324 -20.515,-8.145c-6.034,-3.822 -10.811,-9.001 -14.331,-15.538c-3.52,-6.537 -5.28,-14.632 -5.28,-24.286c0,-10.459 2.112,-19.259 6.336,-26.399c4.224,-7.14 10.408,-12.571 18.554,-16.292c8.146,-3.721 18.152,-5.581 30.019,-5.581c7.241,0 13.979,0.654 20.214,1.961c6.235,1.307 11.867,3.118 16.895,5.431c5.028,2.313 9.151,4.776 12.369,7.391l2.716,21.421c-4.224,-2.816 -9.604,-5.079 -16.141,-6.789c-6.537,-1.709 -13.627,-2.564 -21.27,-2.564c-10.66,0 -18.604,1.71 -23.834,5.129c-5.229,3.419 -7.844,8.749 -7.844,15.99c0,4.827 1.408,8.95 4.224,12.369c2.816,3.42 6.436,5.934 10.861,7.543c4.425,1.609 9.051,2.413 13.878,2.413c11.062,0 19.057,-0.754 23.985,-2.262c4.928,-1.509 7.391,-4.777 7.391,-9.805l0,-59.736c0,-9.856 -3.117,-17.046 -9.352,-21.572c-6.235,-4.525 -14.984,-6.788 -26.248,-6.788c-8.648,0 -17.498,1.458 -26.549,4.375c-9.051,2.916 -16.392,6.687 -22.024,11.313l0,-34.695c5.431,-3.62 13.576,-6.688 24.437,-9.202c10.862,-2.514 22.527,-3.771 34.997,-3.771c5.23,0 10.761,0.453 16.594,1.358c5.832,0.905 11.464,2.464 16.895,4.676c5.43,2.213 10.358,5.33 14.783,9.353c4.425,4.022 7.945,9 10.559,14.934c2.615,5.933 3.922,13.124 3.922,21.571l-0.301,72.106c-0,9.252 -2.967,16.543 -8.9,21.873c-5.934,5.33 -14.281,9.101 -25.041,11.313c-10.761,2.213 -23.281,3.319 -37.562,3.319Z" style="fill-rule:nonzero;stroke:#fff;stroke-width:1px;"/><rect x="1784.17" y="907.111" width="38.014" height="209.679" style="fill-rule:nonzero;stroke:#fff;stroke-width:1px;"/><rect x="1950.4" y="915.559" width="41.332" height="201.232" style="fill-rule:nonzero;stroke:#fff;stroke-width:1px;"/><path d="M2081.94,1116.79l-0,-168.346l-60.641,-0l-0,-32.885l162.916,-0l0,32.885l-61.244,-0l-0,168.346l-41.031,0Z" style="fill-rule:nonzero;stroke:#fff;stroke-width:1px;"/><path d="M2280.16,1116.79l77.234,-201.231l44.35,-0l73.916,201.231l-42.54,0l-65.77,-187.353l18.102,-1.811l-65.468,189.164l-39.824,0Zm40.729,-49.176l9.956,-31.377l93.526,0l3.62,31.377l-107.102,-0Z" style="fill-rule:nonzero;stroke:#fff;stroke-width:1px;"/><path d="M2568.28,1120.11c-10.057,0 -19.711,-1.458 -28.963,-4.374c-9.252,-2.917 -17.499,-7.442 -24.74,-13.577c-7.24,-6.134 -12.973,-14.18 -17.196,-24.136c-4.224,-9.956 -6.336,-21.873 -6.336,-35.751c0,-14.682 2.011,-27.152 6.034,-37.41c4.023,-10.258 9.554,-18.655 16.593,-25.192c7.04,-6.537 15.236,-11.313 24.589,-14.33c9.352,-3.017 19.258,-4.526 29.717,-4.526c8.246,0 16.543,0.805 24.89,2.414c8.347,1.609 15.939,3.922 22.778,6.939l-0,33.488c-7.04,-3.017 -13.928,-5.481 -20.666,-7.391c-6.738,-1.911 -13.728,-2.867 -20.968,-2.867c-14.281,0 -25.343,3.52 -33.187,10.56c-7.844,7.039 -11.766,18.504 -11.766,34.393c-0,16.694 3.62,29.013 10.861,36.958c7.241,7.945 19.107,11.917 35.6,11.917c7.442,0 14.633,-1.106 21.572,-3.318c6.939,-2.213 13.224,-4.727 18.856,-7.543l-0,33.187c-7.04,3.419 -14.381,6.034 -22.024,7.844c-7.643,1.81 -16.191,2.715 -25.644,2.715Z" style="fill-rule:nonzero;stroke:#fff;stroke-width:1px;"/><path d="M2706.76,1121.32c-8.648,-0 -16.794,-0.805 -24.437,-2.414c-7.643,-1.609 -14.481,-4.324 -20.515,-8.145c-6.034,-3.822 -10.811,-9.001 -14.331,-15.538c-3.52,-6.537 -5.28,-14.632 -5.28,-24.286c0,-10.459 2.112,-19.259 6.336,-26.399c4.224,-7.14 10.408,-12.571 18.554,-16.292c8.146,-3.721 18.152,-5.581 30.019,-5.581c7.241,0 13.979,0.654 20.214,1.961c6.235,1.307 11.867,3.118 16.895,5.431c5.028,2.313 9.151,4.776 12.369,7.391l2.716,21.421c-4.224,-2.816 -9.604,-5.079 -16.141,-6.789c-6.537,-1.709 -13.627,-2.564 -21.27,-2.564c-10.66,0 -18.604,1.71 -23.834,5.129c-5.229,3.419 -7.844,8.749 -7.844,15.99c0,4.827 1.408,8.95 4.224,12.369c2.816,3.42 6.436,5.934 10.861,7.543c4.425,1.609 9.051,2.413 13.878,2.413c11.062,0 19.057,-0.754 23.985,-2.262c4.928,-1.509 7.392,-4.777 7.392,-9.805l-0,-59.736c-0,-9.856 -3.118,-17.046 -9.353,-21.572c-6.235,-4.525 -14.984,-6.788 -26.248,-6.788c-8.648,0 -17.498,1.458 -26.549,4.375c-9.051,2.916 -16.392,6.687 -22.024,11.313l0,-34.695c5.431,-3.62 13.576,-6.688 24.438,-9.202c10.861,-2.514 22.526,-3.771 34.996,-3.771c5.23,0 10.761,0.453 16.594,1.358c5.833,0.905 11.464,2.464 16.895,4.676c5.43,2.213 10.358,5.33 14.783,9.353c4.425,4.022 7.945,9 10.559,14.934c2.615,5.933 3.922,13.124 3.922,21.571l-0.301,72.106c-0,9.252 -2.967,16.543 -8.9,21.873c-5.934,5.33 -14.281,9.101 -25.041,11.313c-10.761,2.213 -23.281,3.319 -37.562,3.319Z" style="fill-rule:nonzero;stroke:#fff;stroke-width:1px;"/><path d="M2890.79,1121.32c-10.459,-0 -20.415,-1.257 -29.868,-3.771c-9.454,-2.514 -17.8,-6.788 -25.041,-12.822c-7.241,-6.034 -12.923,-14.381 -17.046,-25.041c-4.123,-10.66 -6.185,-24.136 -6.185,-40.428c0,-24.337 5.934,-43.545 17.8,-57.624c11.867,-14.079 29.868,-21.119 54.004,-21.119c3.419,0 7.844,0.352 13.275,1.056c5.43,0.704 11.012,2.062 16.744,4.073c5.732,2.012 10.71,4.928 14.934,8.749l-8.448,12.37l0,-85.078l38.014,-0l0,179.208c0,6.838 -2.011,12.822 -6.034,17.951c-4.022,5.128 -9.302,9.302 -15.839,12.52c-6.537,3.218 -13.828,5.682 -21.873,7.392c-8.045,1.709 -16.191,2.564 -24.437,2.564Zm1.508,-32.583c8.045,-0 14.834,-1.056 20.365,-3.168c5.531,-2.112 8.296,-4.978 8.296,-8.599l0,-77.234c-4.425,-2.615 -9.151,-4.525 -14.179,-5.732c-5.029,-1.207 -9.856,-1.81 -14.482,-1.81c-9.051,-0 -16.643,1.659 -22.778,4.978c-6.134,3.318 -10.66,8.548 -13.576,15.688c-2.917,7.14 -4.375,16.241 -4.375,27.303c0,9.454 1.207,17.801 3.62,25.041c2.414,7.241 6.587,12.973 12.521,17.197c5.933,4.224 14.129,6.336 24.588,6.336Z" style="fill-rule:nonzero;stroke:#fff;stroke-width:1px;"/><path d="M3068.49,1121.32c-15.085,-0 -28.309,-3.118 -39.673,-9.353c-11.364,-6.235 -20.163,-15.235 -26.398,-27.002c-6.235,-11.766 -9.353,-25.996 -9.353,-42.69c-0,-26.549 6.386,-46.863 19.158,-60.942c12.772,-14.08 30.823,-21.119 54.154,-21.119c16.493,-0 29.868,3.62 40.126,10.861c10.258,7.241 17.7,17.599 22.326,31.075c4.626,13.475 6.838,29.465 6.637,47.969l-117.662,0l-2.715,-25.945l89.906,-0l-7.241,10.861c-0.402,-15.89 -3.168,-27.304 -8.297,-34.243c-5.129,-6.939 -13.325,-10.409 -24.588,-10.409c-6.839,0 -12.772,1.559 -17.8,4.677c-5.029,3.117 -8.9,8.296 -11.616,15.537c-2.715,7.241 -4.073,17.197 -4.073,29.868c0,15.688 3.671,27.656 11.012,35.902c7.342,8.246 18.655,12.37 33.941,12.37c6.235,-0 12.219,-0.604 17.951,-1.811c5.733,-1.206 11.063,-2.765 15.99,-4.676c4.928,-1.911 9.202,-3.67 12.822,-5.28l0,34.092c-7.24,3.017 -15.286,5.481 -24.135,7.392c-8.85,1.911 -19.007,2.866 -30.472,2.866Z" style="fill-rule:nonzero;stroke:#fff;stroke-width:1px;"/><path d="M3306.23,1015.42l-0,101.37l-38.316,0l-0,-94.732c-0,-3.822 -0.503,-7.493 -1.509,-11.012c-1.005,-3.52 -2.715,-6.638 -5.128,-9.353c-2.414,-2.715 -5.733,-4.827 -9.956,-6.336c-4.224,-1.508 -9.655,-2.262 -16.292,-2.262c-5.028,-0 -9.855,0.503 -14.481,1.508c-4.626,1.006 -8.85,2.313 -12.672,3.922l0,118.265l-38.315,0l-0,-139.384c4.223,-2.212 9.252,-4.324 15.085,-6.335c5.832,-2.011 12.168,-3.771 19.007,-5.28c6.838,-1.508 13.777,-2.715 20.817,-3.62c7.039,-0.905 13.677,-1.358 19.912,-1.358c13.878,0 25.392,1.861 34.544,5.582c9.151,3.72 15.99,9.604 20.515,17.649c4.526,8.045 6.789,18.504 6.789,31.376Zm-41.333,-28.963c6.436,-5.43 13.778,-10.006 22.024,-13.727c8.246,-3.721 16.945,-6.637 26.097,-8.749c9.151,-2.112 17.85,-3.168 26.096,-3.168c13.879,0 25.393,1.861 34.545,5.582c9.151,3.72 15.99,9.604 20.515,17.649c4.526,8.045 6.788,18.504 6.788,31.376l0,101.37l-38.315,0l-0,-94.732c-0,-3.822 -0.503,-7.493 -1.509,-11.012c-1.005,-3.52 -2.715,-6.638 -5.128,-9.353c-2.414,-2.715 -5.733,-4.827 -9.956,-6.336c-4.224,-1.508 -9.655,-2.262 -16.292,-2.262c-5.028,-0 -9.856,0.704 -14.482,2.112c-4.626,1.408 -8.849,3.519 -12.671,6.335l-37.712,-15.085Z" style="fill-rule:nonzero;stroke:#fff;stroke-width:1px;"/><path d="M3467.03,1175.62c-4.425,0 -8.699,-0.452 -12.822,-1.357c-4.123,-0.905 -7.693,-1.961 -10.71,-3.168l-0,-31.98c2.815,1.006 5.531,1.81 8.145,2.414c2.615,0.603 5.431,0.905 8.448,0.905c5.431,-0 10.107,-1.408 14.029,-4.224c3.922,-2.816 7.19,-7.09 9.805,-12.822c2.615,-5.732 4.727,-13.124 6.336,-22.175l0.603,20.817l-64.865,-159.296l43.746,0l39.221,113.137l-4.526,-0l38.618,-113.137l40.729,0l-61.245,157.788c-5.229,13.476 -10.911,24.085 -17.046,31.829c-6.134,7.743 -12.419,13.224 -18.856,16.442c-6.436,3.218 -12.973,4.827 -19.61,4.827Z" style="fill-rule:nonzero;stroke:#fff;stroke-width:1px;"/><g><path d="M40.489,545.078c6.07,7.633 13.659,13.739 22.384,18.701l216.265,125.944c12.9,7.251 27.318,11.067 42.115,11.067c14.797,-0 29.594,-3.816 42.114,-11.067l216.265,-125.944c8.347,-4.579 15.935,-11.068 22.384,-18.701l-561.527,0Z" style="fill-rule:nonzero;"/><path d="M291.037,102.289l-0,60.794l-14.25,0l0,-46.461l-46.182,0l0,-14.333l60.432,-0Z" style="fill-rule:nonzero;"/><path d="M230.605,135.091l0,60.794l-14.249,0l-0,-46.461l-46.189,-0l-0,-14.333l60.438,-0Z" style="fill-rule:nonzero;"/><path d="M351.468,67.66l0,60.787l-14.249,0l-0,-46.454l-46.182,-0l-0,-14.333l60.431,-0Z" style="fill-rule:nonzero;"/><path d="M170.167,173.719l-0,60.787l-14.25,0l0,-46.454l-46.182,0l0,-14.333l60.432,-0Z" style="fill-rule:nonzero;"/><path d="M577.186,249.341c0,6.484 -4.929,11.425 -11.374,11.425c-6.429,-0 -11.358,-4.941 -11.358,-11.425c-0,-6.483 4.929,-11.424 11.358,-11.424c6.445,-0 11.374,4.941 11.374,11.424Z" style="fill-rule:nonzero;"/><path d="M483.224,220.39c-7.566,-28.587 7.962,-65.929 35.624,-66.692c-10.617,20.578 -19.32,62.497 11.357,68.963c12.495,9.917 -32.952,50.691 -46.981,-2.271Z" style="fill-rule:nonzero;"/><path d="M627.614,238.09c0,-14.059 -3.464,-27.564 -9.737,-39.509c-1.275,-2.444 -2.672,-4.819 -4.171,-7.125c-4.291,-6.57 -9.479,-12.534 -15.442,-17.735c-3.843,-3.345 -8.014,-6.362 -12.46,-8.997l-1.793,-1.04l-15.442,-8.928l-14.253,-8.252l-30.108,-17.405l-12.392,-7.178l-12.392,-7.159l-14.718,-8.512l-23.008,-13.349l-92.877,-53.898c-9.961,-5.825 -20.785,-9.396 -31.78,-10.748c-0.896,-0.122 -1.792,-0.208 -2.706,-0.295c-0.914,-0.087 -1.81,-0.173 -2.706,-0.225l-0.034,0.017l-0.086,-0c-0.017,-0 -0.017,-0.017 -0.035,-0.017c-0.81,-0.052 -1.603,-0.104 -2.413,-0.122c-0.775,-0.034 -1.533,-0.052 -2.292,-0.052l-0.465,0c-0.827,0 -1.637,0.018 -2.465,0.035c-0.068,0 -0.155,0 -0.224,0.017c-5.377,0.174 -10.719,0.867 -15.976,2.081c-4.964,1.161 -9.824,2.756 -14.563,4.819c-2.999,1.3 -5.946,2.791 -8.824,4.473l-191.889,111.332l-14.253,8.287l-12.288,7.142l-1.689,0.971c-4.55,2.947 -8.738,6.258 -12.564,9.933c-4.705,4.49 -8.824,9.501 -12.34,14.909c-1.913,2.965 -3.636,6.033 -5.17,9.206c-5.498,11.407 -8.462,24.114 -8.462,37.324l0,251.546c0,6.813 0.724,13.626 2.413,20.352c1.154,4.629 2.757,9.223 4.894,13.714l32.849,-0c0,-0 -6.377,-105.49 15.546,-164.329c3.67,-9.916 8.169,-18.515 13.632,-25.05l0.328,-0.486c0.085,-0.104 0.206,-0.191 0.362,-0.347c0.069,-0.069 3.688,-0.71 10.185,-1.491l0.017,-0.155c3.085,-0.347 6.825,-0.711 11.134,-1.075c9.703,-0.798 22.318,-1.474 36.95,-1.474c82.777,0 230.667,21.895 286.662,169.581c2.998,7.905 5.738,16.174 8.186,24.826l26.524,-0c-17.786,-117.99 -35.555,-286.895 -80.52,-346.912l0.707,0.034l2.223,0.035l1.413,0.035l4.671,0.087l17.614,0.346l0.31,0c29.023,47.744 43.344,144.791 43.344,144.791l14.357,8.235l47.395,27.217l-0,65.53l0.499,-0.554l0,0.52l11.582,-12.881l15.442,-17.163l14.253,-15.828l15.442,-17.145l14.253,-15.845l6.359,-7.073l9.083,-3.433l14.253,-5.391l0,-82.572l-0.345,-7.645Zm-577.148,270.685l-7.221,-0.104c-1.706,-5.877 -2.62,-12.343 -2.62,-18.879l0,-251.875c0,-13.436 3.93,-26.403 10.944,-37.446c0,0 -1.551,292.199 -1.103,308.304Zm27.644,-176.203c-2.913,4.559 -5.584,9.708 -8.048,15.481c-0.052,0.104 -0.086,0.208 -0.138,0.329c-0.362,0.832 -0.707,1.664 -1.052,2.514c-0.034,0.069 -0.051,0.138 -0.086,0.208c-1.034,2.583 -2.016,5.287 -2.964,8.078l0,-174.99c2.964,-2.461 6.152,-4.715 9.53,-6.691l2.758,-1.595l0,156.666Zm14.253,-164.935l199.713,-115.892c10.582,-6.172 22.595,-9.448 34.693,-9.448c12.099,0 24.111,3.276 34.728,9.466l71.316,41.381l-28.782,16.746l-12.339,7.16l-16.666,9.708l-0.914,0.52l-5.256,3.051l-6.17,3.589l-0.913,0.537l-12.461,7.247l-6.17,3.588l-6.17,3.572l0,0.017l-13.374,7.767l-6.153,3.588l-6.169,3.588l-13.374,7.785l-6.17,3.571l-6.171,3.588l-172.672,100.41l-0.069,0.035l-20.457,11.893l-0,-123.467Zm212.639,16.382l13.374,-7.784l79.554,139.001c-9.84,-8.616 -20.25,-16.418 -31.211,-23.404l-61.717,-107.813Zm37.451,94.169c-4.343,-2.167 -8.773,-4.195 -13.271,-6.102c-31.832,-13.556 -65.663,-20.422 -100.511,-20.422c-16.097,0 -31.988,1.456 -47.55,4.386l111.541,-64.854l49.791,86.992Zm-20.148,71.234c-59.855,-28.812 -124.622,-34.863 -168.398,-34.863c-2.12,0 -4.188,0.018 -6.221,0.052c25.61,-10.869 53.375,-16.573 82.019,-16.573c56.408,0 109.439,22.104 149.336,62.219c24.318,24.461 41.966,53.846 52.031,85.918c-25.8,-41.936 -62.182,-74.337 -108.767,-96.753Zm115.11,34.759c0.999,1.647 1.964,3.311 2.912,4.975c0,0 6.136,38.746 10.358,67.056c-24.473,-99.266 -114.833,-172.909 -220.98,-172.909c-42.983,-0 -83.174,12.083 -117.384,33.077c-11.616,1.04 -18.493,2.167 -19.027,2.253l-0.931,0.157l-0,-11.13l1.344,-0.798l0.087,-0.034c8.513,-5.704 17.338,-10.853 26.455,-15.377l0.12,-0.07c33.228,-16.608 70.093,-25.38 108.302,-25.38c45.705,0 89.481,12.551 127.449,36.059l0.017,0c4.498,2.774 8.91,5.721 13.253,8.807l0,0.017c5.033,3.571 9.962,7.368 14.736,11.356c5.894,4.905 11.581,10.124 17.062,15.636c14.029,14.112 26.127,29.645 36.192,46.27l0.035,0.035Zm-12.426,-81.549c3.291,15.221 6.359,31.084 9.237,47.276l-103.51,-180.85l13.374,-7.767l79.261,138.464l1.638,2.877Zm-27.3,-92.661c0.207,0.52 0.414,1.04 0.621,1.578c0.948,2.375 1.878,4.767 2.792,7.16c0.913,2.392 1.826,4.802 2.722,7.211c0.259,0.694 0.518,1.422 0.793,2.15c0.259,0.711 0.517,1.422 0.758,2.115c0.087,0.191 0.139,0.381 0.207,0.572c0.018,0.052 0.052,0.104 0.052,0.156c0.121,0.295 0.224,0.607 0.328,0.919l0.051,0.121c2.568,7.143 4.998,14.337 7.308,21.549l-0.793,-1.37l-0.5,-0.866l-55.615,-97.151l12.184,-7.074c2.551,4.802 5.033,9.639 7.445,14.528c3.223,6.466 6.343,13.002 9.342,19.589c2.688,5.912 5.308,11.876 7.841,17.891c1.517,3.641 3.016,7.264 4.464,10.922Zm-2.895,-48.142l-2.741,-0.035c-3.567,-7.385 -7.273,-14.701 -11.099,-21.947l1.172,-0.676l16.408,-9.553c2.619,4.976 5.204,9.969 7.703,15.014c1.19,2.375 2.361,4.767 3.499,7.159c1.155,2.393 2.292,4.768 3.412,7.177c0.483,1.041 0.966,2.098 1.465,3.138l-19.819,-0.277Zm218.119,156.007l-17.803,7.108l-53.565,59.705l-0.103,-35.643l-63.044,-36.18c-1.379,-8.217 -3.964,-22.676 -7.824,-39.856c-0.069,-0.277 -0.138,-0.537 -0.19,-0.814c-0.276,-1.249 -0.568,-2.497 -0.861,-3.728c-0.018,-0.121 -0.052,-0.242 -0.087,-0.364c-0.258,-1.144 -0.534,-2.306 -0.827,-3.484c-0.81,-3.468 -1.672,-7.004 -2.602,-10.593c-1.621,-6.362 -3.413,-12.898 -5.326,-19.451c-1.551,-5.287 -3.206,-10.592 -4.946,-15.827c-1.62,-4.855 -3.326,-9.639 -5.119,-14.337c-2.016,-5.34 -4.17,-10.541 -6.428,-15.534c-2.258,-5.027 -4.654,-9.829 -7.153,-14.336c-0.965,-1.717 -1.93,-3.398 -2.929,-5.028c-0.052,-0.087 -0.104,-0.173 -0.155,-0.26l-1.913,-3.12c-1.035,-2.393 -2.103,-4.768 -3.189,-7.126l-6.721,-14.336l-11.151,-22.173l13.115,-7.697l22.974,-13.349l131.154,76.105c2,1.162 3.93,2.41 5.791,3.727c5.429,3.918 10.22,8.582 14.253,13.817c9.324,12.066 14.649,27.114 14.649,42.855l0,79.919Z" style="fill-rule:nonzero;"/></g></g></svg>