<?xml version="1.0" encoding="UTF-8" standalone="no"?>
<!DOCTYPE svg PUBLIC "-//W3C//DTD SVG 1.1//EN" "http://www.w3.org/Graphics/SVG/1.1/DTD/svg11.dtd">
<svg width="100%" height="100%" viewBox="0 0 264 272" version="1.1" xmlns="http://www.w3.org/2000/svg" xmlns:xlink="http://www.w3.org/1999/xlink" xml:space="preserve" xmlns:serif="http://www.serif.com/" style="fill-rule:evenodd;clip-rule:evenodd;stroke-linejoin:round;stroke-miterlimit:2;">
    <g transform="matrix(1,0,0,1,-654.379,-879.834)">
        <g id="Ebene-1" serif:id="Ebene 1">
        </g>
        <g id="Ebene-11" serif:id="Ebene 1">
        </g>
        <g id="Artboard13" transform="matrix(1,0,0,1,-1442.96,1199.86)">
            <rect x="2097.34" y="-320.03" width="263.909" height="271.536" style="fill:none;"/>
            <clipPath id="_clip1">
                <rect x="2097.34" y="-320.03" width="263.909" height="271.536"/>
            </clipPath>
            <g clip-path="url(#_clip1)">
                <g transform="matrix(0.933711,0,0,0.945691,1868.11,-1885.53)">
                    <g transform="matrix(0.561608,0,0,0.584713,257.291,1649.01)">
                        <path d="M447.526,38.692C447.526,23.389 435.073,10.939 419.765,10.939L93.172,10.939C77.853,10.939 65.389,23.389 65.389,38.692L65.389,474.187C65.389,489.524 77.852,502 93.172,502L419.766,502C435.086,502 447.55,489.523 447.55,474.187L447.55,354.223L447.526,38.692ZM435.55,474.187C435.55,482.907 428.469,490 419.766,490L93.172,490C84.469,490 77.389,482.906 77.389,474.187L77.389,38.692C77.389,30.006 84.469,22.939 93.172,22.939L419.766,22.939C428.456,22.939 435.527,30.006 435.527,38.692L435.55,354.222L435.55,474.187Z" style="fill-rule:nonzero;stroke:black;stroke-width:8.54px;"/>
                    </g>
                    <g transform="matrix(0.561608,0,0,0.584713,257.291,1649.01)">
                        <path d="M201.068,308.073L368.762,308.073C372.075,308.073 374.762,305.386 374.762,302.073C374.762,298.76 372.075,296.073 368.762,296.073L201.068,296.073C197.755,296.073 195.068,298.76 195.068,302.073C195.068,305.386 197.754,308.073 201.068,308.073Z" style="fill-rule:nonzero;stroke:black;stroke-width:8.54px;"/>
                    </g>
                    <g transform="matrix(0.561608,0,0,0.561608,257.291,1653.51)">
                        <path d="M207.554,194.827C204.241,194.827 201.554,197.514 201.554,200.827C201.554,204.14 204.241,206.827 207.554,206.827L375.301,206.827C378.614,206.827 381.301,204.14 381.301,200.827C381.301,197.514 378.614,194.827 375.301,194.827L207.554,194.827Z" style="fill-rule:nonzero;stroke:black;stroke-width:8.72px;"/>
                    </g>
                    <g transform="matrix(0.561608,0,0,0.584713,257.291,1649.01)">
                        <path d="M204.326,105.523L372.043,105.523C375.356,105.523 378.043,102.836 378.043,99.523C378.043,96.21 375.356,93.523 372.043,93.523L204.326,93.523C201.013,93.523 198.326,96.21 198.326,99.523C198.326,102.836 201.013,105.523 204.326,105.523Z" style="fill-rule:nonzero;stroke:black;stroke-width:8.54px;"/>
                    </g>
                    <g transform="matrix(0.561608,0,0,0.584713,257.291,1649.01)">
                        <path d="M128.955,120.077C130.122,121.254 131.667,121.854 133.219,121.854C134.535,121.854 135.857,121.422 136.957,120.546L177.952,87.879C180.543,85.814 180.97,82.039 178.905,79.447C176.841,76.856 173.066,76.428 170.473,78.494L133.689,107.805L122.909,96.925C120.577,94.571 116.778,94.554 114.424,96.886C112.07,99.219 112.052,103.017 114.385,105.371L128.955,120.077Z" style="fill-rule:nonzero;stroke:black;stroke-width:8.54px;"/>
                    </g>
                    <g transform="matrix(0.561608,0,0,0.584713,257.291,1649.01)">
                        <path d="M178.904,180.752C176.84,178.161 173.065,177.733 170.472,179.799L133.688,209.11L122.908,198.231C120.576,195.877 116.777,195.861 114.423,198.192C112.069,200.525 112.052,204.323 114.384,206.677L128.954,221.381C130.121,222.558 131.666,223.158 133.218,223.158C134.534,223.158 135.856,222.726 136.956,221.85L177.951,189.184C180.542,187.119 180.969,183.344 178.904,180.752Z" style="fill-rule:nonzero;stroke:black;stroke-width:8.54px;"/>
                    </g>
                    <g transform="matrix(0.561608,0,0,0.584713,257.291,1649.01)">
                        <path d="M170.477,281.1L133.692,310.364L122.909,299.482C120.577,297.128 116.778,297.111 114.424,299.443C112.07,301.775 112.053,305.574 114.385,307.927L128.955,322.631C130.122,323.809 131.667,324.408 133.219,324.408C134.534,324.408 135.854,323.977 136.953,323.103L177.948,290.49C180.541,288.427 180.971,284.652 178.908,282.059C176.844,279.466 173.07,279.038 170.477,281.1Z" style="fill-rule:nonzero;stroke:black;stroke-width:8.54px;"/>
                    </g>
                </g>
            </g>
        </g>
    </g>
</svg>
