<?xml version="1.0" encoding="UTF-8" standalone="no"?>
<!DOCTYPE svg PUBLIC "-//W3C//DTD SVG 1.1//EN" "http://www.w3.org/Graphics/SVG/1.1/DTD/svg11.dtd">
<svg width="100%" height="100%" viewBox="0 0 261 272" version="1.1" xmlns="http://www.w3.org/2000/svg" xmlns:xlink="http://www.w3.org/1999/xlink" xml:space="preserve" xmlns:serif="http://www.serif.com/" style="fill-rule:evenodd;clip-rule:evenodd;stroke-linejoin:round;stroke-miterlimit:2;">
    <g transform="matrix(1,0,0,1,-1273.46,-879.834)">
        <g id="Ebene-1" serif:id="Ebene 1">
        </g>
        <g id="Ebene-11" serif:id="Ebene 1">
        </g>
        <g id="Artboard14" transform="matrix(1.07143,0,0,1,-87.2578,0)">
            <rect x="1270" y="879.834" width="243.576" height="271.536" style="fill:none;"/>
            <g id="Icon_call.svg" transform="matrix(10.5199,0,0,12.3087,1387.92,1060.26)">
                <g transform="matrix(1,0,0,1,-12,-15)">
                    <path d="M6.811,5.694C6.553,5.435 6.135,5.435 5.876,5.694L4.485,7.085C3.494,8.076 3.221,9.578 3.802,10.855C5.684,14.996 9.004,18.316 13.145,20.198C14.422,20.779 15.924,20.506 16.915,19.515L18.306,18.124C18.565,17.865 18.565,17.447 18.306,17.189L16.435,15.317C16.234,15.116 15.926,15.066 15.672,15.193L14.633,15.713C13.547,16.256 12.234,16.043 11.375,15.184L8.816,12.625C7.957,11.766 7.744,10.453 8.287,9.367L8.807,8.328C8.934,8.074 8.884,7.766 8.683,7.565L6.811,5.694ZM5.169,4.987C5.818,4.338 6.87,4.338 7.519,4.987L9.39,6.858C9.896,7.364 10.021,8.136 9.701,8.775L9.182,9.814C8.831,10.516 8.969,11.363 9.523,11.918L12.082,14.477C12.637,15.032 13.484,15.169 14.186,14.818L15.225,14.299C15.864,13.979 16.637,14.105 17.142,14.61L19.014,16.482C19.662,17.13 19.662,18.182 19.014,18.831L17.622,20.222C16.336,21.508 14.387,21.861 12.731,21.109C8.37,19.126 4.874,15.63 2.891,11.269C2.139,9.613 2.492,7.664 3.778,6.378L5.169,4.987Z"/>
                    <path d="M16.5,10C16.5,8.067 14.933,6.5 13,6.5L13,5.5C15.485,5.5 17.5,7.515 17.5,10L16.5,10Z"/>
                    <path d="M19.5,9C19.5,5.962 17.038,3.5 14,3.5L14,2.5C17.59,2.5 20.5,5.41 20.5,9L19.5,9Z"/>
                </g>
            </g>
        </g>
    </g>
</svg>
