<?xml version="1.0" encoding="UTF-8" standalone="no"?>
<!DOCTYPE svg PUBLIC "-//W3C//DTD SVG 1.1//EN" "http://www.w3.org/Graphics/SVG/1.1/DTD/svg11.dtd">
<svg width="100%" height="100%" viewBox="0 0 228 250" version="1.1" xmlns="http://www.w3.org/2000/svg" xmlns:xlink="http://www.w3.org/1999/xlink" xml:space="preserve" xmlns:serif="http://www.serif.com/" style="fill-rule:evenodd;clip-rule:evenodd;stroke-linejoin:round;stroke-miterlimit:2;">
    <g transform="matrix(1,0,0,1,-1527.34,-484.54)">
        <g id="Ebene-1" serif:id="Ebene 1">
        </g>
        <g id="Ebene-11" serif:id="Ebene 1">
        </g>
        <g id="Artboard10" transform="matrix(1,0,0,1,634.05,-1631.28)">
            <rect x="893.286" y="2115.82" width="227.756" height="249.564" style="fill:none;"/>
            <g id="noun-programmer-4321749.svg" transform="matrix(2.24552,0,0,2.24552,1005.56,2240.6)">
                <g transform="matrix(1,0,0,1,-50,-62.5)">
                    <g transform="matrix(1.14857,0,0,1.14857,-7.42647,7.11363)">
                        <path d="M85.82,62.38C85.039,61.464 83.893,60.937 82.69,60.94L82.24,60.94C79.9,53.5 77,44.83 75.82,43.1C74.18,40.74 70.69,38.71 65.44,37.04C67.789,33.798 69.055,29.895 69.055,25.891C69.055,15.468 60.478,6.891 50.055,6.891C39.632,6.891 31.055,15.468 31.055,25.891C31.055,29.895 32.321,33.798 34.67,37.04C29.36,38.71 25.83,40.75 24.18,43.13C23,44.83 20.1,53.49 17.76,60.94L17.31,60.94C15.05,60.941 13.192,62.8 13.192,65.06C13.192,65.271 13.208,65.482 13.24,65.69L17.24,91.77C17.373,92.5 18.029,93.027 18.77,93L81.23,93C81.966,92.999 82.597,92.457 82.71,91.73L86.76,65.65C86.935,64.476 86.592,63.282 85.82,62.38ZM34.08,25.94C34.08,17.163 41.303,9.94 50.08,9.94C58.857,9.94 66.08,17.163 66.08,25.94C66.08,34.717 58.857,41.94 50.08,41.94C41.303,41.94 34.08,34.717 34.08,25.94ZM26.64,44.81C28.22,42.55 32.33,40.81 36.8,39.5C44.115,46.674 55.995,46.674 63.31,39.5C67.74,40.78 71.8,42.5 73.31,44.79C74.18,46.03 76.63,53.28 79.04,60.91L70.58,60.91L69.7,57.42C69.533,56.755 68.931,56.285 68.245,56.285C67.422,56.285 66.745,56.962 66.745,57.785C66.745,57.908 66.76,58.031 66.79,58.15L67.49,60.91L32.49,60.91L33.19,58.15C33.22,58.031 33.235,57.908 33.235,57.785C33.235,56.962 32.558,56.285 31.735,56.285C31.049,56.285 30.447,56.755 30.28,57.42L29.4,60.91L20.91,60.91C23.32,53.31 25.77,46.06 26.64,44.81ZM83.8,65.23L80,90L20.05,90L16.2,65.23C16.147,64.906 16.242,64.575 16.46,64.33C16.669,64.078 16.982,63.934 17.31,63.94L82.69,63.94C83.018,63.934 83.331,64.078 83.54,64.33C83.758,64.575 83.853,64.906 83.8,65.23ZM41.32,72.6L37.38,76.54L41.32,80.48C41.603,80.76 41.763,81.142 41.763,81.54C41.763,81.938 41.603,82.32 41.32,82.6C41.042,82.886 40.659,83.045 40.26,83.04C39.862,83.043 39.479,82.884 39.2,82.6L34.2,77.6C33.624,77.016 33.624,76.064 34.2,75.48L39.2,70.48C39.784,69.904 40.736,69.904 41.32,70.48C41.603,70.76 41.763,71.142 41.763,71.54C41.763,71.938 41.603,72.32 41.32,72.6ZM65.8,75.48C66.376,76.064 66.376,77.016 65.8,77.6L60.8,82.6C60.521,82.884 60.138,83.043 59.74,83.04C59.341,83.045 58.958,82.886 58.68,82.6C58.397,82.32 58.237,81.938 58.237,81.54C58.237,81.142 58.397,80.76 58.68,80.48L62.62,76.54L58.68,72.6C58.397,72.32 58.237,71.938 58.237,71.54C58.237,71.142 58.397,70.76 58.68,70.48C59.264,69.904 60.216,69.904 60.8,70.48L65.8,75.48ZM55.2,69.71L47.7,84.71C47.446,85.222 46.922,85.547 46.35,85.547C45.523,85.547 44.843,84.867 44.843,84.04C44.843,83.808 44.897,83.578 45,83.37L52.5,68.37C52.765,67.899 53.266,67.606 53.807,67.606C54.63,67.606 55.307,68.283 55.307,69.106C55.307,69.314 55.264,69.52 55.18,69.71L55.2,69.71Z" style="fill:white;fill-rule:nonzero;stroke:white;stroke-width:1.04px;"/>
                    </g>
                </g>
            </g>
        </g>
    </g>
</svg>
