<?xml version="1.0" encoding="UTF-8" standalone="no"?>
<!DOCTYPE svg PUBLIC "-//W3C//DTD SVG 1.1//EN" "http://www.w3.org/Graphics/SVG/1.1/DTD/svg11.dtd">
<svg width="100%" height="100%" viewBox="0 0 271 284" version="1.1" xmlns="http://www.w3.org/2000/svg" xmlns:xlink="http://www.w3.org/1999/xlink" xml:space="preserve" xmlns:serif="http://www.serif.com/" style="fill-rule:evenodd;clip-rule:evenodd;stroke-linejoin:round;stroke-miterlimit:2;">
    <g transform="matrix(1,0,0,1,-1829.49,-484.54)">
        <g id="Ebene-1" serif:id="Ebene 1">
        </g>
        <g id="Ebene-11" serif:id="Ebene 1">
        </g>
        <g id="Artboard9" transform="matrix(1,0,0,1,658.183,-1183.61)">
            <rect x="1171.31" y="1668.15" width="270.534" height="283.478" style="fill:none;"/>
            <g id="noun-employee-training-5725354.svg" transform="matrix(4.16667,0,0,4.16667,1304.64,1846.76)">
                <g transform="matrix(1,0,0,1,-32,-40)">
                    <g>
                        <path d="M24.06,56.81C23.94,57.25 24.01,57.7 24.24,58.09L25.37,59.96C25.84,60.74 26.87,61.01 27.67,60.56L27.93,60.42C28.32,60.69 28.74,60.93 29.17,61.11L29.17,61.33C29.17,62.25 29.93,63 30.87,63L33.12,63C34.06,63 34.82,62.25 34.82,61.33L34.82,61.11C35.26,60.92 35.67,60.69 36.06,60.42L36.32,60.56C37.12,61 38.15,60.73 38.62,59.96L39.75,58.09C39.98,57.7 40.05,57.25 39.93,56.81C39.81,56.37 39.52,56 39.12,55.78L38.9,55.66C38.92,55.45 38.93,55.23 38.93,55.01C38.93,54.79 38.92,54.57 38.9,54.36L39.12,54.24C39.52,54.02 39.82,53.64 39.93,53.21C40.05,52.77 39.98,52.32 39.75,51.93L38.62,50.06C38.15,49.29 37.12,49.02 36.32,49.46L36.06,49.6C35.67,49.33 35.25,49.09 34.82,48.91L34.82,48.69C34.82,47.77 34.06,47.02 33.12,47.02L30.87,47.02C29.93,47.02 29.17,47.77 29.17,48.69L29.17,48.91C28.73,49.1 28.32,49.33 27.93,49.6L27.67,49.46C26.87,49.02 25.84,49.29 25.37,50.06L24.24,51.93C24.01,52.32 23.94,52.77 24.06,53.21C24.18,53.65 24.47,54.02 24.87,54.24L25.09,54.36C25.07,54.57 25.06,54.79 25.06,55.01C25.06,55.23 25.07,55.45 25.09,55.66L24.87,55.78C24.47,56 24.17,56.38 24.06,56.81ZM27.05,55C27.05,54.79 27.07,54.58 27.09,54.37C27.19,53.7 26.84,53.03 26.24,52.7L26.13,52.64L26.93,51.32L27.11,51.42C27.69,51.74 28.43,51.69 28.99,51.29C29.33,51.04 29.7,50.84 30.09,50.68C30.75,50.42 31.18,49.8 31.18,49.12L31.18,49L32.84,49L32.84,49.12C32.84,49.8 33.27,50.41 33.93,50.68C34.32,50.84 34.69,51.04 35.03,51.29C35.58,51.69 36.32,51.75 36.91,51.42L37.09,51.32L37.89,52.64L37.78,52.7C37.17,53.03 36.83,53.71 36.93,54.37C36.96,54.58 36.97,54.78 36.97,55C36.97,55.22 36.95,55.42 36.93,55.63C36.83,56.3 37.18,56.97 37.78,57.3L37.89,57.36L37.09,58.68L36.91,58.58C36.33,58.26 35.59,58.31 35.03,58.71C34.69,58.96 34.32,59.16 33.93,59.32C33.27,59.58 32.84,60.2 32.84,60.88L32.84,61L31.18,61L31.18,60.88C31.18,60.2 30.75,59.59 30.09,59.32C29.7,59.16 29.33,58.96 28.99,58.71C28.44,58.31 27.7,58.25 27.11,58.58L26.93,58.68L26.13,57.36L26.24,57.3C26.85,56.97 27.19,56.29 27.09,55.63C27.06,55.42 27.05,55.22 27.05,55Z" style="fill:white;fill-rule:nonzero;stroke:white;stroke-width:0.5px;"/>
                        <path d="M32,58.5C33.93,58.5 35.5,56.93 35.5,55C35.5,53.07 33.93,51.5 32,51.5C30.07,51.5 28.5,53.07 28.5,55C28.5,56.93 30.07,58.5 32,58.5ZM32,53.5C32.83,53.5 33.5,54.17 33.5,55C33.5,55.83 32.83,56.5 32,56.5C31.17,56.5 30.5,55.83 30.5,55C30.5,54.17 31.17,53.5 32,53.5Z" style="fill:white;fill-rule:nonzero;stroke:white;stroke-width:0.5px;"/>
                        <path d="M3,32.5C3,30.85 4.35,29.5 6,29.5L10,29.5C11.65,29.5 13,30.85 13,32.5L13,39L15,39L15,32.5C15,30.01 13.17,27.96 10.79,27.58C11.98,26.72 12.75,25.33 12.75,23.75C12.75,21.13 10.62,19 8,19C5.38,19 3.25,21.13 3.25,23.75C3.25,25.33 4.03,26.71 5.21,27.58C2.83,27.96 1,30.01 1,32.5L1,39L3,39L3,32.5ZM8,21C9.52,21 10.75,22.23 10.75,23.75C10.75,25.27 9.52,26.5 8,26.5C6.48,26.5 5.25,25.27 5.25,23.75C5.25,22.23 6.48,21 8,21Z" style="fill:white;fill-rule:nonzero;stroke:white;stroke-width:0.5px;"/>
                        <path d="M27,22.5C27,20.85 28.35,19.5 30,19.5L34,19.5C35.65,19.5 37,20.85 37,22.5L37,29L39,29L39,22.5C39,20.01 37.17,17.96 34.79,17.58C35.98,16.72 36.75,15.33 36.75,13.75C36.75,11.13 34.62,9 32,9C29.38,9 27.25,11.13 27.25,13.75C27.25,15.33 28.03,16.71 29.21,17.58C26.83,17.96 25,20.01 25,22.5L25,29L27,29L27,22.5ZM32,11C33.52,11 34.75,12.23 34.75,13.75C34.75,15.27 33.52,16.5 32,16.5C30.48,16.5 29.25,15.27 29.25,13.75C29.25,12.23 30.48,11 32,11Z" style="fill:white;fill-rule:nonzero;stroke:white;stroke-width:0.5px;"/>
                        <path d="M58.79,9.58C59.98,8.72 60.75,7.33 60.75,5.75C60.75,3.13 58.62,1 56,1C53.38,1 51.25,3.13 51.25,5.75C51.25,7.33 52.03,8.71 53.21,9.58C50.83,9.96 49,12.01 49,14.5L49,21L51,21L51,14.5C51,12.85 52.35,11.5 54,11.5L58,11.5C59.65,11.5 61,12.85 61,14.5L61,21L63,21L63,14.5C63,12.01 61.17,9.96 58.79,9.58ZM56,8.5C54.48,8.5 53.25,7.27 53.25,5.75C53.25,4.23 54.48,3 56,3C57.52,3 58.75,4.23 58.75,5.75C58.75,7.27 57.52,8.5 56,8.5Z" style="fill:white;fill-rule:nonzero;stroke:white;stroke-width:0.5px;"/>
                        <path d="M61.98,26L44.03,26.3C43.67,26.3 43.35,26.5 43.17,26.82C42.99,27.14 43,27.51 43.19,27.82L45.75,32.08L32.03,40.31L24.49,35.6C24.13,35.38 23.67,35.4 23.34,35.67L1.38,53.22C0.98,53.54 0.89,54.1 1.16,54.53C1.35,54.83 1.67,55 2.01,55C2.15,55 2.3,54.97 2.44,54.9L23.98,44.69L27.49,46.88L28.55,45.18L24.58,42.7C24.29,42.52 23.93,42.5 23.62,42.64L9.35,49.4L24.06,37.65L31.52,42.31C31.84,42.51 32.24,42.51 32.56,42.31L47.66,33.25C47.89,33.11 48.05,32.89 48.12,32.63C48.18,32.37 48.14,32.1 48.01,31.87L45.82,28.24L60.3,28L53.27,40.66L51.09,37.03C50.95,36.8 50.73,36.64 50.48,36.57C50.23,36.5 49.95,36.55 49.72,36.68L35.5,45.21L36.53,46.92L49.89,38.9L52.45,43.16C52.63,43.47 52.94,43.62 53.32,43.65C53.68,43.65 54,43.45 54.18,43.14L62.89,27.45C63.06,27.14 63.06,26.76 62.87,26.45C62.69,26.14 62.34,25.97 62,25.96L61.98,26Z" style="fill:white;fill-rule:nonzero;stroke:white;stroke-width:0.5px;"/>
                    </g>
                </g>
            </g>
        </g>
    </g>
</svg>
