<?xml version="1.0" encoding="UTF-8" standalone="no"?>
<!DOCTYPE svg PUBLIC "-//W3C//DTD SVG 1.1//EN" "http://www.w3.org/Graphics/SVG/1.1/DTD/svg11.dtd">
<svg width="100%" height="100%" viewBox="0 0 264 272" version="1.1" xmlns="http://www.w3.org/2000/svg" xmlns:xlink="http://www.w3.org/1999/xlink" xml:space="preserve" xmlns:serif="http://www.serif.com/" style="fill-rule:evenodd;clip-rule:evenodd;stroke-linejoin:round;stroke-miterlimit:2;">
    <g transform="matrix(1,0,0,1,-2609.87,-496.482)">
        <g id="Ebene-1" serif:id="Ebene 1">
        </g>
        <g id="Ebene-11" serif:id="Ebene 1">
        </g>
        <g id="Artboard13" transform="matrix(1,0,0,1,512.527,816.512)">
            <rect x="2097.34" y="-320.03" width="263.909" height="271.536" style="fill:none;"/>
            <g id="Icon-CV.svg" serif:id="Icon CV.svg" transform="matrix(4.39893,0,0,4.39893,2229.47,-148.587)">
                <g transform="matrix(1,0,0,1,-32,-40)">
                    <g>
                        <path d="M51,8L19,8C16.258,8.003 14.003,10.258 14,13L14,57C14.003,59.742 16.258,61.997 19,62L45.343,62C46.669,62.004 47.943,61.476 48.878,60.536L54.536,54.878C55.476,53.943 56.004,52.669 56,51.343L56,13C55.997,10.258 53.742,8.003 51,8ZM19,60C17.355,59.998 16.002,58.645 16,57L16,13C16.002,11.355 17.355,10.002 19,10L51,10C52.645,10.002 53.998,11.355 54,13L54,51.343C53.998,51.564 53.971,51.785 53.92,52L49,52C47.355,52.002 46.002,53.355 46,55L46,59.92C45.785,59.971 45.564,59.998 45.343,60L19,60ZM48,58.586L48,55C48.001,54.452 48.452,54.001 49,54L52.586,54L48,58.586ZM10,7L10,51C10,52.067 10.575,53.055 11.503,53.581C11.81,53.76 12,54.09 12,54.445C12,54.994 11.549,55.445 11,55.445C10.823,55.445 10.65,55.398 10.497,55.31C8.961,54.419 8.009,52.776 8,51L8,7C8.003,4.258 10.258,2.003 13,2L45,2C46.776,2.009 48.419,2.961 49.31,4.497C49.398,4.65 49.445,4.823 49.445,5C49.445,5.549 48.994,6 48.445,6C48.09,6 47.76,5.81 47.581,5.503C47.055,4.575 46.067,4 45,4L13,4C11.355,4.002 10.002,5.355 10,7ZM38,29C38,28.451 38.451,28 39,28L49,28C49.549,28 50,28.451 50,29C50,29.549 49.549,30 49,30L39,30C38.451,30 38,29.549 38,29ZM38,17C38,16.451 38.451,16 39,16L49,16C49.549,16 50,16.451 50,17C50,17.549 49.549,18 49,18L39,18C38.451,18 38,17.549 38,17ZM38,23C38,22.451 38.451,22 39,22L49,22C49.549,22 50,22.451 50,23C50,23.549 49.549,24 49,24L39,24C38.451,24 38,23.549 38,23ZM28,41C28,41.549 27.549,42 27,42L21,42C20.451,42 20,41.549 20,41C20,40.451 20.451,40 21,40L27,40C27.549,40 28,40.451 28,41ZM50,35C50,35.549 49.549,36 49,36L31,36C30.451,36 30,35.549 30,35C30,34.451 30.451,34 31,34L49,34C49.549,34 50,34.451 50,35ZM50,41C50,41.549 49.549,42 49,42L31,42C30.451,42 30,41.549 30,41C30,40.451 30.451,40 31,40L49,40C49.549,40 50,40.451 50,41ZM28,35C28,35.549 27.549,36 27,36L21,36C20.451,36 20,35.549 20,35C20,34.451 20.451,34 21,34L27,34C27.549,34 28,34.451 28,35ZM28,47C28,47.549 27.549,48 27,48L21,48C20.451,48 20,47.549 20,47C20,46.451 20.451,46 21,46L27,46C27.549,46 28,46.451 28,47ZM50,47C50,47.549 49.549,48 49,48L31,48C30.451,48 30,47.549 30,47C30,46.451 30.451,46 31,46L49,46C49.549,46 50,46.451 50,47ZM32,27L32,29C32,29.549 32.451,30 33,30C33.549,30 34,29.549 34,29L34,27C33.994,24.909 32.675,23.034 30.71,22.321C31.54,21.402 32,20.207 32,18.968C32,16.225 29.743,13.968 27,13.968C24.257,13.968 22,16.225 22,18.968C22,20.207 22.46,21.402 23.29,22.321C21.325,23.034 20.006,24.909 20,27L20,29C20,29.549 20.451,30 21,30C21.549,30 22,29.549 22,29L22,27C22.002,25.355 23.355,24.002 25,24L29,24C30.645,24.002 31.998,25.355 32,27ZM27,16C28.646,16 30,17.354 30,19C30,20.646 28.646,22 27,22C25.354,22 24,20.646 24,19C24.002,17.355 25.355,16.002 27,16Z" style="fill-rule:nonzero;stroke:black;stroke-width:0.7px;"/>
                    </g>
                </g>
            </g>
        </g>
    </g>
</svg>
