<?xml version="1.0" encoding="UTF-8" standalone="no"?>
<svg
   width="261"
   height="238"
   viewBox="0 0 261 238"
   version="1.1"
   xml:space="preserve"
   style="clip-rule:evenodd;fill-rule:evenodd;stroke-linejoin:round;stroke-miterlimit:2"
   id="svg4"
   sodipodi:docname="5.svg"
   inkscape:version="1.3 (0e150ed, 2023-07-21)"
   xmlns:inkscape="http://www.inkscape.org/namespaces/inkscape"
   xmlns:sodipodi="http://sodipodi.sourceforge.net/DTD/sodipodi-0.dtd"
   xmlns="http://www.w3.org/2000/svg"
   xmlns:svg="http://www.w3.org/2000/svg"
   xmlns:serif="http://www.serif.com/"><defs
   id="defs4" /><sodipodi:namedview
   id="namedview4"
   pagecolor="#ffffff"
   bordercolor="#000000"
   borderopacity="0.25"
   inkscape:showpageshadow="2"
   inkscape:pageopacity="0.0"
   inkscape:pagecheckerboard="0"
   inkscape:deskcolor="#d1d1d1"
   inkscape:zoom="2.1174563"
   inkscape:cx="98.231071"
   inkscape:cy="124.91403"
   inkscape:window-width="1456"
   inkscape:window-height="926"
   inkscape:window-x="0"
   inkscape:window-y="25"
   inkscape:window-maximized="0"
   inkscape:current-layer="svg4" />&#10;    <g
   transform="translate(-2939.58,-520.78938)"
   id="g4">&#10;        <g
   id="Ebene-1"
   serif:id="Ebene 1">&#10;        </g>&#10;        <g
   id="Ebene-11"
   serif:id="Ebene 1">&#10;        </g>&#10;        <g
   id="Artboard14"
   transform="matrix(1.07143,0,0,1,1578.86,-383.352)">&#10;            <rect
   x="1270"
   y="879.83398"
   width="243.576"
   height="271.53601"
   style="fill:none"
   id="rect1" />&#10;            <g
   id="Icon_call.svg"
   transform="matrix(10.5199,0,0,12.3087,1387.92,1060.26)">&#10;                <g
   transform="translate(-12,-15)"
   id="g3">&#10;                    <path
   d="M 6.811,5.694 C 6.553,5.435 6.135,5.435 5.876,5.694 L 4.485,7.085 c -0.991,0.991 -1.264,2.493 -0.683,3.77 1.882,4.141 5.202,7.461 9.343,9.343 1.277,0.581 2.779,0.308 3.77,-0.683 l 1.391,-1.391 c 0.259,-0.259 0.259,-0.677 0,-0.935 l -1.871,-1.872 c -0.201,-0.201 -0.509,-0.251 -0.763,-0.124 l -1.039,0.52 c -1.086,0.543 -2.399,0.33 -3.258,-0.529 L 8.816,12.625 C 7.957,11.766 7.744,10.453 8.287,9.367 L 8.807,8.328 C 8.934,8.074 8.884,7.766 8.683,7.565 Z M 5.169,4.987 c 0.649,-0.649 1.701,-0.649 2.35,0 L 9.39,6.858 c 0.506,0.506 0.631,1.278 0.311,1.917 L 9.182,9.814 c -0.351,0.702 -0.213,1.549 0.341,2.104 l 2.559,2.559 c 0.555,0.555 1.402,0.692 2.104,0.341 l 1.039,-0.519 c 0.639,-0.32 1.412,-0.194 1.917,0.311 l 1.872,1.872 c 0.648,0.648 0.648,1.7 0,2.349 l -1.392,1.391 c -1.286,1.286 -3.235,1.639 -4.891,0.887 C 8.37,19.126 4.874,15.63 2.891,11.269 2.139,9.613 2.492,7.664 3.778,6.378 Z"
   id="path1" />&#10;                    <path
   d="M 16.5,10 C 16.5,8.067 14.933,6.5 13,6.5 v -1 c 2.485,0 4.5,2.015 4.5,4.5 z"
   id="path2" />&#10;                    <path
   d="M 19.5,9 C 19.5,5.962 17.038,3.5 14,3.5 v -1 c 3.59,0 6.5,2.91 6.5,6.5 z"
   id="path3" />&#10;                </g>&#10;            </g>&#10;        </g>&#10;    </g>&#10;</svg>
