<?xml version="1.0" encoding="UTF-8" standalone="no"?>
<svg
   width="261"
   height="225"
   viewBox="0 0 261 225"
   version="1.1"
   xml:space="preserve"
   style="clip-rule:evenodd;fill-rule:evenodd;stroke-linecap:round;stroke-linejoin:round"
   id="svg5"
   sodipodi:docname="6.svg"
   inkscape:version="1.3 (0e150ed, 2023-07-21)"
   xmlns:inkscape="http://www.inkscape.org/namespaces/inkscape"
   xmlns:sodipodi="http://sodipodi.sourceforge.net/DTD/sodipodi-0.dtd"
   xmlns="http://www.w3.org/2000/svg"
   xmlns:svg="http://www.w3.org/2000/svg"
   xmlns:serif="http://www.serif.com/"><defs
   id="defs5" /><sodipodi:namedview
   id="namedview5"
   pagecolor="#ffffff"
   bordercolor="#000000"
   borderopacity="0.25"
   inkscape:showpageshadow="2"
   inkscape:pageopacity="0.0"
   inkscape:pagecheckerboard="0"
   inkscape:deskcolor="#d1d1d1"
   inkscape:zoom="1.6846895"
   inkscape:cx="165.01557"
   inkscape:cy="113.374"
   inkscape:window-width="1296"
   inkscape:window-height="885"
   inkscape:window-x="0"
   inkscape:window-y="25"
   inkscape:window-maximized="0"
   inkscape:current-layer="Artboard14" />&#10;    <g
   transform="translate(-3280.6,-496.482)"
   id="g5">&#10;        <g
   id="Ebene-1"
   serif:id="Ebene 1">&#10;        </g>&#10;        <g
   id="Ebene-11"
   serif:id="Ebene 1">&#10;        </g>&#10;        <g
   id="Artboard14"
   transform="matrix(1.07143,0,0,1,1919.89,-383.352)">&#10;            <rect
   x="1270"
   y="879.83398"
   width="243.576"
   height="271.53601"
   style="fill:none"
   id="rect1" />&#10;            <g
   transform="matrix(1.03105,0,0,1.10043,-2215.3867,362.28904)"
   id="g1">&#10;                <path
   d="m 3424.84,534.203 c 12.06,-31.857 42.86,-54.532 78.92,-54.532 45.3,0 82.3,35.774 84.27,80.583 0.06,1.25 0.05,6.731 -0.03,8.198"
   style="fill:none;stroke:#000000;stroke-width:14.35px"
   id="path1" />&#10;            </g>&#10;            <g
   transform="matrix(-1.37983,-0.891279,0.481884,-0.856406,4119.3833,3490.6131)"
   id="g2">&#10;                <path
   d="m 2225.89,664.767 23.49,-46.971 23.48,46.971"
   style="fill:none;stroke:#000000;stroke-width:11.21px"
   id="path2" />&#10;            </g>&#10;            <g
   transform="matrix(-1.03105,0,0,-1.10043,4998.6633,1622.6131)"
   id="g3">&#10;                <path
   d="m 3424.84,534.203 c 12.06,-31.857 42.86,-54.532 78.92,-54.532 45.3,0 82.3,35.774 84.27,80.583 0.06,1.25 0.05,6.731 -0.03,8.198"
   style="fill:none;stroke:#000000;stroke-width:14.35px"
   id="path3" />&#10;            </g>&#10;            <g
   transform="matrix(1.37983,0.891279,-0.481884,0.856406,-1336.1067,-1505.7169)"
   id="g4">&#10;                <path
   d="m 2225.89,664.767 23.49,-46.971 23.48,46.971"
   style="fill:none;stroke:#000000;stroke-width:11.21px"
   id="path4" />&#10;            </g>&#10;        </g>&#10;    </g>&#10;</svg>
