<?xml version="1.0" encoding="UTF-8" standalone="no"?>
<!DOCTYPE svg PUBLIC "-//W3C//DTD SVG 1.1//EN" "http://www.w3.org/Graphics/SVG/1.1/DTD/svg11.dtd">
<svg width="100%" height="100%" viewBox="0 0 3659 1216" version="1.1" xmlns="http://www.w3.org/2000/svg" xmlns:xlink="http://www.w3.org/1999/xlink" xml:space="preserve" xmlns:serif="http://www.serif.com/" style="fill-rule:evenodd;clip-rule:evenodd;stroke-linejoin:round;stroke-miterlimit:2;">
    <g transform="matrix(1,0,0,1,-6879.01,-3177.33)">
        <g transform="matrix(1.04302,0,0,0.490185,6879.01,3177.33)">
            <rect id="OnBlackSparkAkademy" x="0" y="0" width="3507.87" height="2480.32" style="fill:none;"/>
            <g id="OnBlackSparkAkademy1" serif:id="OnBlackSparkAkademy">
                <g transform="matrix(3.89223,0,0,8.28189,716.816,1172.62)">
                    <g transform="matrix(123.22,0,0,123.22,0,0)">
                        <path d="M0.263,-0L0.035,-0.58L0.123,-0.58L0.299,-0.148L0.486,-0.58L0.594,-0.58L0.793,-0.149L0.957,-0.58L1.046,-0.58L0.827,-0L0.756,-0L0.54,-0.479L0.335,-0L0.263,-0Z" style="fill:white;fill-rule:nonzero;"/>
                    </g>
                    <g transform="matrix(123.22,0,0,123.22,131.969,0)">
                        <path d="M0.054,-0L0.054,-0.77L0.136,-0.77L0.136,-0.58L0.524,-0.58C0.546,-0.58 0.566,-0.575 0.585,-0.564C0.603,-0.553 0.618,-0.538 0.628,-0.52C0.64,-0.501 0.645,-0.481 0.645,-0.459L0.645,-0L0.563,-0L0.563,-0.459C0.563,-0.47 0.559,-0.479 0.552,-0.487C0.544,-0.494 0.535,-0.498 0.524,-0.498L0.176,-0.498C0.165,-0.498 0.156,-0.494 0.148,-0.487C0.14,-0.479 0.136,-0.47 0.136,-0.459L0.136,-0L0.054,-0Z" style="fill:white;fill-rule:nonzero;"/>
                    </g>
                    <g transform="matrix(123.22,0,0,123.22,214.896,0)">
                        <path d="M0.173,-0C0.151,-0 0.131,-0.006 0.113,-0.017C0.094,-0.028 0.08,-0.042 0.069,-0.061C0.058,-0.079 0.052,-0.099 0.052,-0.121L0.052,-0.331L0.56,-0.331L0.56,-0.459C0.56,-0.47 0.556,-0.479 0.549,-0.487C0.541,-0.494 0.532,-0.498 0.521,-0.498L0.052,-0.498L0.052,-0.58L0.521,-0.58C0.544,-0.58 0.564,-0.575 0.583,-0.564C0.601,-0.553 0.616,-0.538 0.626,-0.52C0.637,-0.501 0.643,-0.481 0.643,-0.459L0.643,-0L0.173,-0ZM0.173,-0.082L0.56,-0.082L0.56,-0.249L0.134,-0.249L0.134,-0.121C0.134,-0.11 0.138,-0.101 0.146,-0.094C0.153,-0.086 0.162,-0.082 0.173,-0.082Z" style="fill:white;fill-rule:nonzero;"/>
                    </g>
                    <g transform="matrix(123.22,0,0,123.22,300.41,0)">
                        <path d="M0.054,-0L0.054,-0.77L0.136,-0.77L0.136,-0.331L0.296,-0.331L0.524,-0.58L0.632,-0.58L0.632,-0.579L0.369,-0.29L0.631,-0.001L0.631,-0L0.524,-0L0.296,-0.249L0.136,-0.249L0.136,-0L0.054,-0Z" style="fill:white;fill-rule:nonzero;"/>
                    </g>
                    <g transform="matrix(123.22,0,0,123.22,380.01,0)">
                        <path d="M0.173,-0C0.151,-0 0.131,-0.006 0.113,-0.017C0.094,-0.028 0.08,-0.042 0.069,-0.061C0.058,-0.079 0.052,-0.099 0.052,-0.121L0.052,-0.331L0.56,-0.331L0.56,-0.459C0.56,-0.47 0.556,-0.479 0.549,-0.487C0.541,-0.494 0.532,-0.498 0.521,-0.498L0.052,-0.498L0.052,-0.58L0.521,-0.58C0.544,-0.58 0.564,-0.575 0.583,-0.564C0.601,-0.553 0.616,-0.538 0.626,-0.52C0.637,-0.501 0.643,-0.481 0.643,-0.459L0.643,-0L0.173,-0ZM0.173,-0.082L0.56,-0.082L0.56,-0.249L0.134,-0.249L0.134,-0.121C0.134,-0.11 0.138,-0.101 0.146,-0.094C0.153,-0.086 0.162,-0.082 0.173,-0.082Z" style="fill:white;fill-rule:nonzero;"/>
                    </g>
                    <g transform="matrix(123.22,0,0,123.22,465.525,0)">
                        <path d="M0.173,-0C0.151,-0 0.131,-0.006 0.113,-0.017C0.094,-0.028 0.08,-0.042 0.069,-0.061C0.058,-0.079 0.052,-0.099 0.052,-0.121L0.052,-0.331L0.56,-0.331L0.56,-0.459C0.56,-0.47 0.556,-0.479 0.549,-0.487C0.541,-0.494 0.532,-0.498 0.521,-0.498L0.052,-0.498L0.052,-0.58L0.521,-0.58C0.544,-0.58 0.564,-0.575 0.583,-0.564C0.601,-0.553 0.616,-0.538 0.626,-0.52C0.637,-0.501 0.643,-0.481 0.643,-0.459L0.643,-0L0.173,-0ZM0.173,-0.082L0.56,-0.082L0.56,-0.249L0.134,-0.249L0.134,-0.121C0.134,-0.11 0.138,-0.101 0.146,-0.094C0.153,-0.086 0.162,-0.082 0.173,-0.082Z" style="fill:white;fill-rule:nonzero;"/>
                    </g>
                    <g transform="matrix(123.22,0,0,123.22,551.04,0)">
                        <path d="M0.054,-0L0.054,-0.77L0.136,-0.77L0.136,-0.331L0.296,-0.331L0.524,-0.58L0.632,-0.58L0.632,-0.579L0.369,-0.29L0.631,-0.001L0.631,-0L0.524,-0L0.296,-0.249L0.136,-0.249L0.136,-0L0.054,-0Z" style="fill:white;fill-rule:nonzero;"/>
                    </g>
                    <g transform="matrix(123.22,0,0,123.22,630.64,0)">
                        <path d="M0.172,-0C0.15,-0 0.13,-0.006 0.112,-0.017C0.093,-0.028 0.079,-0.042 0.068,-0.061C0.057,-0.079 0.051,-0.099 0.051,-0.121L0.051,-0.459C0.051,-0.481 0.057,-0.501 0.068,-0.52C0.079,-0.538 0.093,-0.553 0.112,-0.564C0.13,-0.575 0.15,-0.58 0.172,-0.58L0.52,-0.58C0.543,-0.58 0.563,-0.575 0.582,-0.564C0.6,-0.553 0.615,-0.538 0.625,-0.52C0.636,-0.501 0.642,-0.481 0.642,-0.459L0.642,-0.121C0.642,-0.099 0.636,-0.079 0.625,-0.061C0.615,-0.042 0.6,-0.028 0.582,-0.017C0.563,-0.006 0.543,-0 0.52,-0L0.172,-0ZM0.172,-0.082L0.52,-0.082C0.531,-0.082 0.54,-0.086 0.548,-0.094C0.555,-0.101 0.559,-0.11 0.559,-0.121L0.559,-0.459C0.559,-0.47 0.555,-0.479 0.548,-0.487C0.54,-0.494 0.531,-0.498 0.52,-0.498L0.172,-0.498C0.161,-0.498 0.152,-0.494 0.145,-0.487C0.137,-0.479 0.133,-0.47 0.133,-0.459L0.133,-0.121C0.133,-0.11 0.137,-0.101 0.145,-0.094C0.152,-0.086 0.161,-0.082 0.172,-0.082Z" style="fill:white;fill-rule:nonzero;"/>
                    </g>
                </g>
                <g transform="matrix(1.3733,0,0,2.92211,-1117.43,-7746.81)">
                    <g transform="matrix(122.859,0,0,122.859,1418.58,3197.42)">
                        <path d="M0.187,-0C0.162,-0 0.14,-0.006 0.119,-0.018C0.099,-0.03 0.083,-0.046 0.071,-0.067C0.059,-0.088 0.053,-0.11 0.053,-0.135L0.053,-0.183L0.173,-0.183L0.173,-0.139C0.173,-0.134 0.175,-0.129 0.178,-0.126C0.181,-0.123 0.186,-0.121 0.191,-0.121L0.633,-0.121C0.638,-0.121 0.643,-0.123 0.647,-0.126C0.65,-0.129 0.652,-0.134 0.652,-0.139L0.652,-0.282C0.652,-0.287 0.65,-0.291 0.647,-0.294C0.643,-0.297 0.638,-0.299 0.633,-0.299L0.187,-0.299C0.162,-0.299 0.14,-0.305 0.119,-0.318C0.099,-0.33 0.083,-0.346 0.071,-0.367C0.059,-0.387 0.053,-0.409 0.053,-0.434L0.053,-0.585C0.053,-0.61 0.059,-0.632 0.071,-0.653C0.083,-0.674 0.099,-0.69 0.119,-0.702C0.14,-0.714 0.162,-0.72 0.187,-0.72L0.638,-0.72C0.663,-0.72 0.685,-0.714 0.706,-0.702C0.726,-0.69 0.742,-0.674 0.754,-0.653C0.767,-0.632 0.773,-0.61 0.773,-0.585L0.773,-0.537L0.652,-0.537L0.652,-0.581C0.652,-0.586 0.65,-0.591 0.647,-0.594C0.643,-0.597 0.638,-0.599 0.633,-0.599L0.191,-0.599C0.186,-0.599 0.181,-0.597 0.178,-0.594C0.175,-0.591 0.173,-0.586 0.173,-0.581L0.173,-0.438C0.173,-0.433 0.175,-0.429 0.178,-0.426C0.181,-0.423 0.186,-0.421 0.191,-0.421L0.638,-0.421C0.663,-0.421 0.685,-0.415 0.706,-0.403C0.726,-0.39 0.742,-0.374 0.754,-0.354C0.767,-0.333 0.773,-0.311 0.773,-0.286L0.773,-0.135C0.773,-0.11 0.767,-0.088 0.754,-0.067C0.742,-0.046 0.726,-0.03 0.706,-0.018C0.685,-0.006 0.663,-0 0.638,-0L0.187,-0Z" style="fill:rgb(226,175,80);fill-rule:nonzero;"/>
                    </g>
                    <g transform="matrix(122.859,0,0,122.859,1519.94,3197.42)">
                        <path d="M0.054,0.23L0.054,-0.58L0.51,-0.58C0.534,-0.58 0.556,-0.574 0.577,-0.562C0.597,-0.549 0.613,-0.533 0.625,-0.513C0.637,-0.493 0.643,-0.471 0.643,-0.446L0.643,-0.134C0.643,-0.109 0.637,-0.087 0.625,-0.067C0.613,-0.047 0.597,-0.031 0.577,-0.019C0.556,-0.006 0.534,-0 0.51,-0L0.173,-0L0.173,0.23L0.054,0.23ZM0.192,-0.119L0.506,-0.119C0.511,-0.119 0.515,-0.121 0.519,-0.125C0.522,-0.128 0.524,-0.133 0.524,-0.138L0.524,-0.442C0.524,-0.447 0.522,-0.452 0.519,-0.456C0.515,-0.459 0.511,-0.461 0.506,-0.461L0.192,-0.461C0.187,-0.461 0.183,-0.459 0.179,-0.456C0.175,-0.452 0.173,-0.447 0.173,-0.442L0.173,-0.138C0.173,-0.133 0.175,-0.128 0.179,-0.125C0.183,-0.121 0.187,-0.119 0.192,-0.119Z" style="fill:rgb(226,175,80);fill-rule:nonzero;"/>
                    </g>
                    <g transform="matrix(122.859,0,0,122.859,1601.51,3197.42)">
                        <path d="M0.186,-0C0.161,-0 0.139,-0.006 0.118,-0.019C0.098,-0.031 0.082,-0.047 0.07,-0.067C0.058,-0.087 0.052,-0.109 0.052,-0.134L0.052,-0.35L0.522,-0.35L0.522,-0.442C0.522,-0.447 0.52,-0.452 0.517,-0.456C0.513,-0.459 0.508,-0.461 0.503,-0.461L0.052,-0.461L0.052,-0.58L0.507,-0.58C0.532,-0.58 0.555,-0.574 0.575,-0.562C0.595,-0.549 0.611,-0.533 0.623,-0.513C0.635,-0.493 0.641,-0.471 0.641,-0.446L0.641,-0L0.186,-0ZM0.19,-0.119L0.522,-0.119L0.522,-0.241L0.171,-0.241L0.171,-0.138C0.171,-0.133 0.173,-0.128 0.177,-0.125C0.18,-0.121 0.185,-0.119 0.19,-0.119Z" style="fill:rgb(226,175,80);fill-rule:nonzero;"/>
                    </g>
                    <g transform="matrix(122.859,0,0,122.859,1684.69,3197.42)">
                        <path d="M0.052,-0L0.052,-0.446C0.052,-0.471 0.058,-0.493 0.07,-0.513C0.083,-0.533 0.099,-0.549 0.119,-0.562C0.14,-0.574 0.162,-0.58 0.186,-0.58L0.509,-0.58L0.509,-0.461L0.19,-0.461C0.185,-0.461 0.18,-0.459 0.177,-0.456C0.173,-0.452 0.171,-0.447 0.171,-0.442L0.171,-0L0.052,-0Z" style="fill:rgb(226,175,80);fill-rule:nonzero;"/>
                    </g>
                    <g transform="matrix(122.859,0,0,122.859,1748.45,3197.42)">
                        <path d="M0.054,-0L0.054,-0.77L0.173,-0.77L0.173,-0.35L0.29,-0.35L0.502,-0.58L0.634,-0.58L0.634,-0.552L0.396,-0.29L0.634,-0.028L0.634,-0L0.502,-0L0.29,-0.23L0.173,-0.23L0.173,-0L0.054,-0Z" style="fill:rgb(226,175,80);fill-rule:nonzero;"/>
                    </g>
                    <g transform="matrix(122.859,0,0,122.859,1864.43,3197.42)">
                        <path d="M0.141,0.218L0.141,0.098L0.494,0.098C0.499,0.098 0.503,0.096 0.506,0.092C0.51,0.089 0.512,0.085 0.512,0.08L0.512,-0L0.176,-0C0.152,-0 0.13,-0.006 0.11,-0.019C0.089,-0.031 0.073,-0.047 0.061,-0.067C0.048,-0.087 0.042,-0.109 0.042,-0.134L0.042,-0.578L0.161,-0.578L0.161,-0.138C0.161,-0.133 0.163,-0.128 0.167,-0.125C0.17,-0.121 0.175,-0.119 0.18,-0.119L0.494,-0.119C0.499,-0.119 0.503,-0.121 0.506,-0.125C0.51,-0.128 0.512,-0.133 0.512,-0.138L0.512,-0.578L0.631,-0.578L0.631,0.084C0.631,0.109 0.625,0.132 0.614,0.152C0.602,0.172 0.586,0.188 0.566,0.2C0.545,0.212 0.523,0.218 0.498,0.218L0.141,0.218Z" style="fill:rgb(226,175,80);fill-rule:nonzero;"/>
                    </g>
                    <g transform="matrix(122.859,0,0,122.859,1945.64,3197.42)">
                        <path d="M0.185,-0C0.16,-0 0.138,-0.006 0.118,-0.019C0.098,-0.031 0.082,-0.047 0.07,-0.067C0.057,-0.087 0.051,-0.109 0.051,-0.134L0.051,-0.446C0.051,-0.471 0.057,-0.493 0.07,-0.513C0.082,-0.533 0.098,-0.549 0.118,-0.562C0.138,-0.574 0.16,-0.58 0.185,-0.58L0.506,-0.58C0.531,-0.58 0.554,-0.574 0.574,-0.562C0.594,-0.549 0.61,-0.533 0.622,-0.513C0.634,-0.493 0.64,-0.471 0.64,-0.446L0.64,-0.134C0.64,-0.109 0.634,-0.087 0.622,-0.067C0.61,-0.047 0.594,-0.031 0.574,-0.019C0.554,-0.006 0.531,-0 0.506,-0L0.185,-0ZM0.189,-0.119L0.502,-0.119C0.507,-0.119 0.512,-0.121 0.516,-0.125C0.519,-0.128 0.521,-0.133 0.521,-0.138L0.521,-0.442C0.521,-0.447 0.519,-0.452 0.516,-0.456C0.512,-0.459 0.507,-0.461 0.502,-0.461L0.189,-0.461C0.184,-0.461 0.179,-0.459 0.175,-0.456C0.172,-0.452 0.17,-0.447 0.17,-0.442L0.17,-0.138C0.17,-0.133 0.172,-0.128 0.175,-0.125C0.179,-0.121 0.184,-0.119 0.189,-0.119Z" style="fill:rgb(226,175,80);fill-rule:nonzero;"/>
                    </g>
                    <g transform="matrix(122.859,0,0,122.859,2027.59,3197.42)">
                        <path d="M0.187,-0C0.162,-0 0.14,-0.006 0.119,-0.019C0.099,-0.031 0.083,-0.047 0.071,-0.067C0.059,-0.087 0.053,-0.109 0.053,-0.134L0.053,-0.58L0.172,-0.58L0.172,-0.138C0.172,-0.133 0.174,-0.128 0.178,-0.125C0.181,-0.121 0.186,-0.119 0.191,-0.119L0.504,-0.119C0.509,-0.119 0.514,-0.121 0.518,-0.125C0.521,-0.128 0.523,-0.133 0.523,-0.138L0.523,-0.58L0.642,-0.58L0.642,-0.134C0.642,-0.109 0.636,-0.087 0.624,-0.067C0.612,-0.047 0.596,-0.031 0.576,-0.019C0.556,-0.006 0.533,-0 0.508,-0L0.187,-0Z" style="fill:rgb(226,175,80);fill-rule:nonzero;"/>
                    </g>
                    <g transform="matrix(122.859,0,0,122.859,2112.98,3197.42)">
                        <path d="M0.052,-0L0.052,-0.446C0.052,-0.471 0.058,-0.493 0.07,-0.513C0.083,-0.533 0.099,-0.549 0.119,-0.562C0.14,-0.574 0.162,-0.58 0.186,-0.58L0.509,-0.58L0.509,-0.461L0.19,-0.461C0.185,-0.461 0.18,-0.459 0.177,-0.456C0.173,-0.452 0.171,-0.447 0.171,-0.442L0.171,-0L0.052,-0Z" style="fill:rgb(226,175,80);fill-rule:nonzero;"/>
                    </g>
                    <g transform="matrix(122.859,0,0,122.859,2213.35,3197.42)">
                        <path d="M0.053,-0L0.053,-0.636C0.053,-0.661 0.059,-0.683 0.071,-0.704C0.083,-0.724 0.099,-0.74 0.119,-0.752C0.14,-0.764 0.162,-0.77 0.187,-0.77L0.404,-0.77L0.404,-0.65L0.191,-0.65C0.186,-0.65 0.181,-0.648 0.178,-0.645C0.174,-0.641 0.172,-0.637 0.172,-0.632L0.172,-0.58L0.404,-0.58L0.404,-0.461L0.172,-0.461L0.172,-0L0.053,-0Z" style="fill:rgb(226,175,80);fill-rule:nonzero;"/>
                    </g>
                    <g transform="matrix(122.859,0,0,122.859,2266.67,3197.42)">
                        <path d="M0.187,-0C0.162,-0 0.14,-0.006 0.119,-0.019C0.099,-0.031 0.083,-0.047 0.071,-0.067C0.059,-0.087 0.053,-0.109 0.053,-0.134L0.053,-0.58L0.172,-0.58L0.172,-0.138C0.172,-0.133 0.174,-0.128 0.178,-0.125C0.181,-0.121 0.186,-0.119 0.191,-0.119L0.504,-0.119C0.509,-0.119 0.514,-0.121 0.518,-0.125C0.521,-0.128 0.523,-0.133 0.523,-0.138L0.523,-0.58L0.642,-0.58L0.642,-0.134C0.642,-0.109 0.636,-0.087 0.624,-0.067C0.612,-0.047 0.596,-0.031 0.576,-0.019C0.556,-0.006 0.533,-0 0.508,-0L0.187,-0Z" style="fill:rgb(226,175,80);fill-rule:nonzero;"/>
                    </g>
                    <g transform="matrix(122.859,0,0,122.859,2349.6,3197.42)">
                        <path d="M0.187,-0C0.162,-0 0.14,-0.006 0.119,-0.019C0.099,-0.031 0.083,-0.047 0.071,-0.067C0.059,-0.087 0.053,-0.109 0.053,-0.134L0.053,-0.761L0.172,-0.761L0.172,-0.58L0.404,-0.58L0.404,-0.461L0.172,-0.461L0.172,-0.138C0.172,-0.133 0.174,-0.128 0.178,-0.125C0.181,-0.121 0.186,-0.119 0.191,-0.119L0.404,-0.119L0.404,-0L0.187,-0Z" style="fill:rgb(226,175,80);fill-rule:nonzero;"/>
                    </g>
                    <g transform="matrix(122.859,0,0,122.859,2402.68,3197.42)">
                        <path d="M0.187,-0C0.162,-0 0.14,-0.006 0.119,-0.019C0.099,-0.031 0.083,-0.047 0.071,-0.067C0.059,-0.087 0.053,-0.109 0.053,-0.134L0.053,-0.58L0.172,-0.58L0.172,-0.138C0.172,-0.133 0.174,-0.128 0.178,-0.125C0.181,-0.121 0.186,-0.119 0.191,-0.119L0.504,-0.119C0.509,-0.119 0.514,-0.121 0.518,-0.125C0.521,-0.128 0.523,-0.133 0.523,-0.138L0.523,-0.58L0.642,-0.58L0.642,-0.134C0.642,-0.109 0.636,-0.087 0.624,-0.067C0.612,-0.047 0.596,-0.031 0.576,-0.019C0.556,-0.006 0.533,-0 0.508,-0L0.187,-0Z" style="fill:rgb(226,175,80);fill-rule:nonzero;"/>
                    </g>
                    <g transform="matrix(122.859,0,0,122.859,2488.06,3197.42)">
                        <path d="M0.052,-0L0.052,-0.446C0.052,-0.471 0.058,-0.493 0.07,-0.513C0.083,-0.533 0.099,-0.549 0.119,-0.562C0.14,-0.574 0.162,-0.58 0.186,-0.58L0.509,-0.58L0.509,-0.461L0.19,-0.461C0.185,-0.461 0.18,-0.459 0.177,-0.456C0.173,-0.452 0.171,-0.447 0.171,-0.442L0.171,-0L0.052,-0Z" style="fill:rgb(226,175,80);fill-rule:nonzero;"/>
                    </g>
                    <g transform="matrix(122.859,0,0,122.859,2552.44,3197.42)">
                        <path d="M0.185,-0C0.16,-0 0.138,-0.006 0.118,-0.019C0.098,-0.031 0.082,-0.047 0.07,-0.067C0.057,-0.087 0.051,-0.109 0.051,-0.134L0.051,-0.446C0.051,-0.471 0.057,-0.493 0.07,-0.513C0.082,-0.533 0.098,-0.549 0.118,-0.562C0.138,-0.574 0.16,-0.58 0.185,-0.58L0.506,-0.58C0.531,-0.58 0.554,-0.574 0.574,-0.562C0.594,-0.549 0.61,-0.533 0.622,-0.513C0.634,-0.493 0.64,-0.471 0.64,-0.446L0.64,-0.23L0.17,-0.23L0.17,-0.138C0.17,-0.133 0.172,-0.128 0.175,-0.125C0.179,-0.121 0.184,-0.119 0.189,-0.119L0.64,-0.119L0.64,-0L0.185,-0ZM0.17,-0.339L0.521,-0.339L0.521,-0.442C0.521,-0.447 0.519,-0.452 0.516,-0.456C0.512,-0.459 0.507,-0.461 0.502,-0.461L0.189,-0.461C0.184,-0.461 0.179,-0.459 0.175,-0.456C0.172,-0.452 0.17,-0.447 0.17,-0.442L0.17,-0.339Z" style="fill:rgb(226,175,80);fill-rule:nonzero;"/>
                    </g>
                </g>
                <g transform="matrix(2.36775,0,0,5.0381,-3061.17,-13784.2)">
                    <g transform="matrix(122.859,0,0,122.859,1296.76,3197.42)">
                        <rect x="0.075" y="-0.667" width="0.137" height="0.667" style="fill:white;fill-rule:nonzero;"/>
                    </g>
                    <g transform="matrix(122.859,0,0,122.859,1332.02,3197.42)">
                        <path d="M0.07,-0.462C0.084,-0.469 0.101,-0.476 0.12,-0.483C0.139,-0.49 0.16,-0.496 0.183,-0.5C0.206,-0.505 0.229,-0.509 0.252,-0.513C0.275,-0.516 0.297,-0.517 0.318,-0.517C0.364,-0.517 0.403,-0.511 0.434,-0.499C0.465,-0.486 0.488,-0.467 0.504,-0.44C0.52,-0.413 0.528,-0.379 0.528,-0.336L0.528,-0L0.401,-0L0.401,-0.314C0.401,-0.327 0.399,-0.339 0.396,-0.35C0.393,-0.362 0.387,-0.373 0.379,-0.382C0.371,-0.391 0.36,-0.398 0.346,-0.403C0.332,-0.407 0.314,-0.41 0.292,-0.41C0.275,-0.41 0.259,-0.408 0.242,-0.405C0.225,-0.402 0.21,-0.397 0.197,-0.392L0.197,-0L0.07,-0L0.07,-0.462Z" style="fill:white;fill-rule:nonzero;"/>
                    </g>
                    <g transform="matrix(122.859,0,0,122.859,1405.49,3197.42)">
                        <path d="M0.263,0.016C0.211,0.016 0.171,0.003 0.144,-0.023C0.117,-0.048 0.103,-0.085 0.103,-0.134L0.103,-0.404L0.025,-0.404L0.025,-0.504L0.103,-0.504L0.103,-0.644L0.235,-0.644L0.235,-0.504L0.351,-0.504L0.351,-0.404L0.235,-0.404L0.235,-0.154C0.235,-0.134 0.239,-0.119 0.247,-0.109C0.254,-0.099 0.268,-0.094 0.288,-0.094C0.299,-0.094 0.31,-0.096 0.322,-0.099C0.333,-0.102 0.343,-0.107 0.351,-0.112L0.351,-0.002C0.338,0.005 0.324,0.009 0.309,0.012C0.293,0.015 0.278,0.016 0.263,0.016Z" style="fill:white;fill-rule:nonzero;"/>
                    </g>
                    <g transform="matrix(122.859,0,0,122.859,1454.51,3197.42)">
                        <path d="M0.293,0.015C0.243,0.015 0.199,0.005 0.162,-0.016C0.124,-0.037 0.095,-0.067 0.074,-0.106C0.053,-0.145 0.043,-0.192 0.043,-0.247C0.043,-0.335 0.064,-0.402 0.107,-0.449C0.149,-0.496 0.209,-0.519 0.286,-0.519C0.341,-0.519 0.385,-0.507 0.419,-0.483C0.453,-0.459 0.478,-0.425 0.493,-0.38C0.508,-0.335 0.516,-0.282 0.515,-0.221L0.125,-0.221L0.116,-0.307L0.414,-0.307L0.39,-0.271C0.389,-0.324 0.38,-0.362 0.363,-0.385C0.345,-0.407 0.318,-0.419 0.281,-0.419C0.258,-0.419 0.239,-0.414 0.222,-0.404C0.205,-0.393 0.193,-0.376 0.184,-0.352C0.174,-0.328 0.17,-0.295 0.17,-0.253C0.17,-0.201 0.182,-0.161 0.206,-0.134C0.231,-0.107 0.268,-0.093 0.319,-0.093C0.34,-0.093 0.36,-0.095 0.379,-0.099C0.398,-0.103 0.415,-0.108 0.432,-0.115C0.448,-0.121 0.462,-0.127 0.474,-0.132L0.474,-0.019C0.45,-0.009 0.423,-0.001 0.394,0.005C0.365,0.012 0.331,0.015 0.293,0.015Z" style="fill:white;fill-rule:nonzero;"/>
                    </g>
                    <g transform="matrix(122.859,0,0,122.859,1523.07,3197.42)">
                        <path d="M0.07,-0L0.07,-0.455C0.079,-0.462 0.096,-0.47 0.119,-0.48C0.143,-0.489 0.171,-0.498 0.202,-0.505C0.233,-0.513 0.265,-0.517 0.297,-0.517C0.321,-0.517 0.34,-0.515 0.355,-0.511C0.369,-0.508 0.38,-0.503 0.389,-0.498L0.389,-0.402C0.376,-0.404 0.361,-0.406 0.344,-0.407C0.327,-0.408 0.309,-0.409 0.292,-0.408C0.274,-0.408 0.257,-0.407 0.241,-0.406C0.224,-0.405 0.21,-0.403 0.197,-0.401L0.197,-0L0.07,-0Z" style="fill:white;fill-rule:nonzero;"/>
                    </g>
                    <g transform="matrix(122.859,0,0,122.859,1573.93,3197.42)">
                        <path d="M0.07,-0.462C0.084,-0.469 0.101,-0.476 0.12,-0.483C0.139,-0.49 0.16,-0.496 0.183,-0.5C0.206,-0.505 0.229,-0.509 0.252,-0.513C0.275,-0.516 0.297,-0.517 0.318,-0.517C0.364,-0.517 0.403,-0.511 0.434,-0.499C0.465,-0.486 0.488,-0.467 0.504,-0.44C0.52,-0.413 0.528,-0.379 0.528,-0.336L0.528,-0L0.401,-0L0.401,-0.314C0.401,-0.327 0.399,-0.339 0.396,-0.35C0.393,-0.362 0.387,-0.373 0.379,-0.382C0.371,-0.391 0.36,-0.398 0.346,-0.403C0.332,-0.407 0.314,-0.41 0.292,-0.41C0.275,-0.41 0.259,-0.408 0.242,-0.405C0.225,-0.402 0.21,-0.397 0.197,-0.392L0.197,-0L0.07,-0L0.07,-0.462Z" style="fill:white;fill-rule:nonzero;"/>
                    </g>
                    <g transform="matrix(122.859,0,0,122.859,1647.4,3197.42)">
                        <path d="M0.259,0.015C0.23,0.015 0.203,0.012 0.178,0.007C0.153,0.002 0.13,-0.007 0.11,-0.02C0.09,-0.033 0.074,-0.05 0.063,-0.071C0.051,-0.093 0.045,-0.12 0.045,-0.152C0.045,-0.187 0.052,-0.216 0.066,-0.239C0.08,-0.263 0.101,-0.281 0.128,-0.294C0.155,-0.306 0.188,-0.312 0.227,-0.312C0.251,-0.312 0.273,-0.31 0.294,-0.306C0.315,-0.301 0.333,-0.295 0.35,-0.288C0.367,-0.28 0.38,-0.272 0.391,-0.263L0.4,-0.192C0.386,-0.201 0.368,-0.209 0.346,-0.215C0.325,-0.22 0.301,-0.223 0.276,-0.223C0.241,-0.223 0.214,-0.217 0.197,-0.206C0.18,-0.195 0.171,-0.177 0.171,-0.153C0.171,-0.137 0.176,-0.123 0.185,-0.112C0.194,-0.101 0.206,-0.092 0.221,-0.087C0.236,-0.082 0.251,-0.079 0.267,-0.079C0.304,-0.079 0.33,-0.082 0.346,-0.086C0.363,-0.092 0.371,-0.102 0.371,-0.119L0.371,-0.317C0.371,-0.35 0.361,-0.374 0.34,-0.389C0.319,-0.404 0.29,-0.411 0.253,-0.411C0.224,-0.411 0.195,-0.406 0.165,-0.397C0.135,-0.387 0.111,-0.374 0.092,-0.359L0.092,-0.474C0.11,-0.486 0.137,-0.496 0.173,-0.504C0.209,-0.513 0.248,-0.517 0.289,-0.517C0.306,-0.517 0.325,-0.516 0.344,-0.513C0.363,-0.509 0.382,-0.504 0.4,-0.497C0.418,-0.49 0.434,-0.479 0.449,-0.466C0.464,-0.453 0.475,-0.436 0.484,-0.417C0.493,-0.397 0.497,-0.373 0.497,-0.345L0.496,-0.106C0.496,-0.075 0.486,-0.051 0.467,-0.034C0.447,-0.016 0.419,-0.003 0.384,0.004C0.348,0.011 0.306,0.015 0.259,0.015Z" style="fill:white;fill-rule:nonzero;"/>
                    </g>
                    <g transform="matrix(122.859,0,0,122.859,1717.06,3197.42)">
                        <path d="M0.263,0.016C0.211,0.016 0.171,0.003 0.144,-0.023C0.117,-0.048 0.103,-0.085 0.103,-0.134L0.103,-0.404L0.025,-0.404L0.025,-0.504L0.103,-0.504L0.103,-0.644L0.235,-0.644L0.235,-0.504L0.351,-0.504L0.351,-0.404L0.235,-0.404L0.235,-0.154C0.235,-0.134 0.239,-0.119 0.247,-0.109C0.254,-0.099 0.268,-0.094 0.288,-0.094C0.299,-0.094 0.31,-0.096 0.322,-0.099C0.333,-0.102 0.343,-0.107 0.351,-0.112L0.351,-0.002C0.338,0.005 0.324,0.009 0.309,0.012C0.293,0.015 0.278,0.016 0.263,0.016Z" style="fill:white;fill-rule:nonzero;"/>
                    </g>
                    <g transform="matrix(122.859,0,0,122.859,1766.08,3197.42)">
                        <path d="M0.073,-0L0.073,-0.499L0.2,-0.499L0.201,-0L0.073,-0ZM0.07,-0.579L0.07,-0.684L0.203,-0.684L0.203,-0.579L0.07,-0.579Z" style="fill:white;fill-rule:nonzero;"/>
                    </g>
                    <g transform="matrix(122.859,0,0,122.859,1799.62,3197.42)">
                        <path d="M0.292,0.015C0.209,0.015 0.146,-0.008 0.105,-0.054C0.064,-0.1 0.043,-0.166 0.043,-0.253C0.043,-0.346 0.064,-0.414 0.107,-0.456C0.149,-0.498 0.21,-0.519 0.291,-0.519C0.347,-0.519 0.394,-0.509 0.431,-0.49C0.468,-0.47 0.495,-0.44 0.514,-0.401C0.533,-0.362 0.542,-0.312 0.542,-0.253C0.542,-0.166 0.52,-0.1 0.477,-0.054C0.434,-0.008 0.372,0.015 0.292,0.015ZM0.291,-0.089C0.32,-0.089 0.344,-0.096 0.363,-0.109C0.381,-0.122 0.394,-0.141 0.403,-0.166C0.412,-0.191 0.416,-0.22 0.416,-0.253C0.416,-0.291 0.411,-0.322 0.403,-0.346C0.394,-0.37 0.38,-0.388 0.362,-0.399C0.343,-0.41 0.32,-0.416 0.291,-0.416C0.262,-0.416 0.238,-0.41 0.22,-0.398C0.202,-0.386 0.189,-0.368 0.181,-0.344C0.173,-0.32 0.169,-0.29 0.169,-0.253C0.169,-0.2 0.179,-0.16 0.198,-0.132C0.217,-0.103 0.248,-0.089 0.291,-0.089Z" style="fill:white;fill-rule:nonzero;"/>
                    </g>
                    <g transform="matrix(122.859,0,0,122.859,1871.37,3197.42)">
                        <path d="M0.07,-0.462C0.084,-0.469 0.101,-0.476 0.12,-0.483C0.139,-0.49 0.16,-0.496 0.183,-0.5C0.206,-0.505 0.229,-0.509 0.252,-0.513C0.275,-0.516 0.297,-0.517 0.318,-0.517C0.364,-0.517 0.403,-0.511 0.434,-0.499C0.465,-0.486 0.488,-0.467 0.504,-0.44C0.52,-0.413 0.528,-0.379 0.528,-0.336L0.528,-0L0.401,-0L0.401,-0.314C0.401,-0.327 0.399,-0.339 0.396,-0.35C0.393,-0.362 0.387,-0.373 0.379,-0.382C0.371,-0.391 0.36,-0.398 0.346,-0.403C0.332,-0.407 0.314,-0.41 0.292,-0.41C0.275,-0.41 0.259,-0.408 0.242,-0.405C0.225,-0.402 0.21,-0.397 0.197,-0.392L0.197,-0L0.07,-0L0.07,-0.462Z" style="fill:white;fill-rule:nonzero;"/>
                    </g>
                    <g transform="matrix(122.859,0,0,122.859,1944.84,3197.42)">
                        <path d="M0.259,0.015C0.23,0.015 0.203,0.012 0.178,0.007C0.153,0.002 0.13,-0.007 0.11,-0.02C0.09,-0.033 0.074,-0.05 0.063,-0.071C0.051,-0.093 0.045,-0.12 0.045,-0.152C0.045,-0.187 0.052,-0.216 0.066,-0.239C0.08,-0.263 0.101,-0.281 0.128,-0.294C0.155,-0.306 0.188,-0.312 0.227,-0.312C0.251,-0.312 0.273,-0.31 0.294,-0.306C0.315,-0.301 0.333,-0.295 0.35,-0.288C0.367,-0.28 0.38,-0.272 0.391,-0.263L0.4,-0.192C0.386,-0.201 0.368,-0.209 0.346,-0.215C0.325,-0.22 0.301,-0.223 0.276,-0.223C0.241,-0.223 0.214,-0.217 0.197,-0.206C0.18,-0.195 0.171,-0.177 0.171,-0.153C0.171,-0.137 0.176,-0.123 0.185,-0.112C0.194,-0.101 0.206,-0.092 0.221,-0.087C0.236,-0.082 0.251,-0.079 0.267,-0.079C0.304,-0.079 0.33,-0.082 0.346,-0.086C0.363,-0.092 0.371,-0.102 0.371,-0.119L0.371,-0.317C0.371,-0.35 0.361,-0.374 0.34,-0.389C0.319,-0.404 0.29,-0.411 0.253,-0.411C0.224,-0.411 0.195,-0.406 0.165,-0.397C0.135,-0.387 0.111,-0.374 0.092,-0.359L0.092,-0.474C0.11,-0.486 0.137,-0.496 0.173,-0.504C0.209,-0.513 0.248,-0.517 0.289,-0.517C0.306,-0.517 0.325,-0.516 0.344,-0.513C0.363,-0.509 0.382,-0.504 0.4,-0.497C0.418,-0.49 0.434,-0.479 0.449,-0.466C0.464,-0.453 0.475,-0.436 0.484,-0.417C0.493,-0.397 0.497,-0.373 0.497,-0.345L0.496,-0.106C0.496,-0.075 0.486,-0.051 0.467,-0.034C0.447,-0.016 0.419,-0.003 0.384,0.004C0.348,0.011 0.306,0.015 0.259,0.015Z" style="fill:white;fill-rule:nonzero;"/>
                    </g>
                    <g transform="matrix(122.859,0,0,122.859,2014.5,3197.42)">
                        <rect x="0.07" y="-0.695" width="0.126" height="0.695" style="fill:white;fill-rule:nonzero;"/>
                    </g>
                    <g transform="matrix(122.859,0,0,122.859,2081.58,3197.42)">
                        <rect x="0.075" y="-0.667" width="0.137" height="0.667" style="fill:white;fill-rule:nonzero;"/>
                    </g>
                    <g transform="matrix(122.859,0,0,122.859,2116.85,3197.42)">
                        <path d="M0.224,-0L0.224,-0.558L0.023,-0.558L0.023,-0.667L0.563,-0.667L0.563,-0.558L0.36,-0.558L0.36,-0L0.224,-0Z" style="fill:white;fill-rule:nonzero;"/>
                    </g>
                    <g transform="matrix(122.859,0,0,122.859,2223.24,3197.42)">
                        <path d="M0.015,-0L0.271,-0.667L0.418,-0.667L0.663,-0L0.522,-0L0.304,-0.621L0.364,-0.627L0.147,-0L0.015,-0ZM0.15,-0.163L0.183,-0.267L0.493,-0.267L0.505,-0.163L0.15,-0.163Z" style="fill:white;fill-rule:nonzero;"/>
                    </g>
                    <g transform="matrix(122.859,0,0,122.859,2305.68,3197.42)">
                        <path d="M0.299,0.011C0.266,0.011 0.234,0.006 0.203,-0.004C0.172,-0.013 0.145,-0.028 0.121,-0.049C0.097,-0.069 0.078,-0.096 0.064,-0.129C0.05,-0.162 0.043,-0.201 0.043,-0.247C0.043,-0.296 0.05,-0.337 0.063,-0.371C0.076,-0.405 0.095,-0.433 0.118,-0.455C0.141,-0.476 0.169,-0.492 0.2,-0.502C0.231,-0.512 0.263,-0.517 0.298,-0.517C0.325,-0.517 0.353,-0.514 0.381,-0.509C0.408,-0.504 0.433,-0.496 0.456,-0.486L0.456,-0.375C0.433,-0.385 0.41,-0.393 0.388,-0.4C0.365,-0.406 0.342,-0.409 0.318,-0.409C0.271,-0.409 0.234,-0.397 0.208,-0.374C0.182,-0.351 0.169,-0.313 0.169,-0.26C0.169,-0.205 0.181,-0.164 0.205,-0.138C0.229,-0.111 0.268,-0.098 0.323,-0.098C0.348,-0.098 0.372,-0.102 0.395,-0.109C0.418,-0.116 0.438,-0.125 0.457,-0.134L0.457,-0.024C0.434,-0.013 0.409,-0.004 0.384,0.002C0.359,0.008 0.33,0.011 0.299,0.011Z" style="fill:white;fill-rule:nonzero;"/>
                    </g>
                    <g transform="matrix(122.859,0,0,122.859,2366.99,3197.42)">
                        <path d="M0.259,0.015C0.23,0.015 0.203,0.012 0.178,0.007C0.153,0.002 0.13,-0.007 0.11,-0.02C0.09,-0.033 0.074,-0.05 0.063,-0.071C0.051,-0.093 0.045,-0.12 0.045,-0.152C0.045,-0.187 0.052,-0.216 0.066,-0.239C0.08,-0.263 0.101,-0.281 0.128,-0.294C0.155,-0.306 0.188,-0.312 0.227,-0.312C0.251,-0.312 0.273,-0.31 0.294,-0.306C0.315,-0.301 0.333,-0.295 0.35,-0.288C0.367,-0.28 0.38,-0.272 0.391,-0.263L0.4,-0.192C0.386,-0.201 0.368,-0.209 0.346,-0.215C0.325,-0.22 0.301,-0.223 0.276,-0.223C0.241,-0.223 0.214,-0.217 0.197,-0.206C0.18,-0.195 0.171,-0.177 0.171,-0.153C0.171,-0.137 0.176,-0.123 0.185,-0.112C0.194,-0.101 0.206,-0.092 0.221,-0.087C0.236,-0.082 0.251,-0.079 0.267,-0.079C0.304,-0.079 0.33,-0.082 0.346,-0.086C0.363,-0.092 0.371,-0.102 0.371,-0.119L0.371,-0.317C0.371,-0.35 0.361,-0.374 0.34,-0.389C0.319,-0.404 0.29,-0.411 0.253,-0.411C0.224,-0.411 0.195,-0.406 0.165,-0.397C0.135,-0.387 0.111,-0.374 0.092,-0.359L0.092,-0.474C0.11,-0.486 0.137,-0.496 0.173,-0.504C0.209,-0.513 0.248,-0.517 0.289,-0.517C0.306,-0.517 0.325,-0.516 0.344,-0.513C0.363,-0.509 0.382,-0.504 0.4,-0.497C0.418,-0.49 0.434,-0.479 0.449,-0.466C0.464,-0.453 0.475,-0.436 0.484,-0.417C0.493,-0.397 0.497,-0.373 0.497,-0.345L0.496,-0.106C0.496,-0.075 0.486,-0.051 0.467,-0.034C0.447,-0.016 0.419,-0.003 0.384,0.004C0.348,0.011 0.306,0.015 0.259,0.015Z" style="fill:white;fill-rule:nonzero;"/>
                    </g>
                    <g transform="matrix(122.859,0,0,122.859,2436.65,3197.42)">
                        <path d="M0.302,0.015C0.267,0.015 0.234,0.011 0.203,0.002C0.172,-0.006 0.144,-0.02 0.12,-0.04C0.096,-0.06 0.077,-0.088 0.064,-0.123C0.05,-0.158 0.043,-0.203 0.043,-0.257C0.043,-0.338 0.063,-0.401 0.102,-0.448C0.141,-0.495 0.201,-0.518 0.281,-0.518C0.292,-0.518 0.307,-0.517 0.325,-0.515C0.343,-0.512 0.362,-0.508 0.381,-0.501C0.4,-0.494 0.416,-0.485 0.43,-0.472L0.402,-0.431L0.402,-0.713L0.528,-0.713L0.528,-0.119C0.528,-0.096 0.521,-0.077 0.508,-0.059C0.495,-0.043 0.477,-0.029 0.456,-0.018C0.434,-0.007 0.41,0.001 0.383,0.006C0.356,0.012 0.329,0.015 0.302,0.015ZM0.307,-0.093C0.334,-0.093 0.356,-0.097 0.375,-0.103C0.393,-0.111 0.402,-0.12 0.402,-0.132L0.402,-0.388C0.387,-0.397 0.372,-0.403 0.355,-0.407C0.338,-0.411 0.322,-0.413 0.307,-0.413C0.277,-0.413 0.252,-0.407 0.232,-0.397C0.211,-0.386 0.196,-0.368 0.187,-0.344C0.177,-0.321 0.172,-0.291 0.172,-0.254C0.172,-0.223 0.176,-0.195 0.184,-0.171C0.192,-0.147 0.206,-0.128 0.226,-0.114C0.245,-0.1 0.272,-0.093 0.307,-0.093Z" style="fill:white;fill-rule:nonzero;"/>
                    </g>
                    <g transform="matrix(122.859,0,0,122.859,2510.12,3197.42)">
                        <path d="M0.293,0.015C0.243,0.015 0.199,0.005 0.162,-0.016C0.124,-0.037 0.095,-0.067 0.074,-0.106C0.053,-0.145 0.043,-0.192 0.043,-0.247C0.043,-0.335 0.064,-0.402 0.107,-0.449C0.149,-0.496 0.209,-0.519 0.286,-0.519C0.341,-0.519 0.385,-0.507 0.419,-0.483C0.453,-0.459 0.478,-0.425 0.493,-0.38C0.508,-0.335 0.516,-0.282 0.515,-0.221L0.125,-0.221L0.116,-0.307L0.414,-0.307L0.39,-0.271C0.389,-0.324 0.38,-0.362 0.363,-0.385C0.345,-0.407 0.318,-0.419 0.281,-0.419C0.258,-0.419 0.239,-0.414 0.222,-0.404C0.205,-0.393 0.193,-0.376 0.184,-0.352C0.174,-0.328 0.17,-0.295 0.17,-0.253C0.17,-0.201 0.182,-0.161 0.206,-0.134C0.231,-0.107 0.268,-0.093 0.319,-0.093C0.34,-0.093 0.36,-0.095 0.379,-0.099C0.398,-0.103 0.415,-0.108 0.432,-0.115C0.448,-0.121 0.462,-0.127 0.474,-0.132L0.474,-0.019C0.45,-0.009 0.423,-0.001 0.394,0.005C0.365,0.012 0.331,0.015 0.293,0.015Z" style="fill:white;fill-rule:nonzero;"/>
                    </g>
                    <g transform="matrix(122.859,0,0,122.859,2578.67,3197.42)">
                        <path d="M0.523,-0.336L0.523,-0L0.396,-0L0.396,-0.314C0.396,-0.327 0.394,-0.339 0.391,-0.35C0.388,-0.362 0.382,-0.373 0.374,-0.382C0.366,-0.391 0.355,-0.398 0.341,-0.403C0.327,-0.407 0.309,-0.41 0.287,-0.41C0.27,-0.41 0.254,-0.408 0.239,-0.405C0.224,-0.402 0.21,-0.397 0.197,-0.392L0.197,-0L0.07,-0L0.07,-0.462C0.084,-0.469 0.101,-0.476 0.12,-0.483C0.139,-0.49 0.16,-0.496 0.183,-0.5C0.206,-0.505 0.229,-0.509 0.252,-0.513C0.275,-0.516 0.297,-0.517 0.318,-0.517C0.364,-0.517 0.402,-0.511 0.433,-0.499C0.463,-0.486 0.486,-0.467 0.5,-0.44C0.516,-0.413 0.523,-0.379 0.523,-0.336ZM0.386,-0.432C0.407,-0.45 0.432,-0.465 0.459,-0.477C0.486,-0.49 0.515,-0.5 0.546,-0.506C0.576,-0.514 0.605,-0.517 0.632,-0.517C0.678,-0.517 0.716,-0.511 0.747,-0.499C0.777,-0.486 0.8,-0.467 0.815,-0.44C0.83,-0.413 0.837,-0.379 0.837,-0.336L0.837,-0L0.71,-0L0.71,-0.314C0.71,-0.327 0.708,-0.339 0.705,-0.35C0.702,-0.362 0.696,-0.373 0.688,-0.382C0.68,-0.391 0.669,-0.398 0.655,-0.403C0.641,-0.407 0.623,-0.41 0.601,-0.41C0.584,-0.41 0.568,-0.408 0.553,-0.403C0.538,-0.398 0.524,-0.391 0.511,-0.382L0.386,-0.432Z" style="fill:white;fill-rule:nonzero;"/>
                    </g>
                    <g transform="matrix(122.859,0,0,122.859,2688.26,3197.42)">
                        <path d="M0.164,0.195C0.149,0.195 0.135,0.193 0.122,0.19C0.108,0.187 0.096,0.184 0.086,0.18L0.086,0.074C0.095,0.077 0.104,0.08 0.113,0.082C0.122,0.084 0.131,0.085 0.141,0.085C0.159,0.085 0.174,0.08 0.188,0.071C0.201,0.062 0.211,0.047 0.22,0.028C0.229,0.009 0.236,-0.015 0.241,-0.045L0.243,0.024L0.028,-0.504L0.173,-0.504L0.303,-0.129L0.288,-0.129L0.416,-0.504L0.551,-0.504L0.348,0.019C0.331,0.064 0.312,0.099 0.292,0.124C0.271,0.15 0.25,0.168 0.229,0.179C0.208,0.19 0.186,0.195 0.164,0.195Z" style="fill:white;fill-rule:nonzero;"/>
                    </g>
                </g>
                <g transform="matrix(18.6833,0,0,39.3912,32973.2,69158.6)">
                    <path d="M-1760.33,-1725.87C-1760.02,-1725.47 -1759.63,-1725.15 -1759.18,-1724.9L-1748.08,-1718.37C-1747.42,-1718 -1746.68,-1717.8 -1745.92,-1717.8C-1745.16,-1717.8 -1744.4,-1718 -1743.76,-1718.37L-1732.66,-1724.9C-1732.23,-1725.13 -1731.84,-1725.47 -1731.51,-1725.87L-1760.33,-1725.87Z" style="fill:white;fill-rule:nonzero;"/>
                    <path d="M-1747.47,-1748.8L-1747.47,-1745.65L-1748.2,-1745.65L-1748.2,-1748.06L-1750.57,-1748.06L-1750.57,-1748.8L-1747.47,-1748.8Z" style="fill:white;fill-rule:nonzero;"/>
                    <path d="M-1750.57,-1747.1L-1750.57,-1743.95L-1751.3,-1743.95L-1751.3,-1746.36L-1753.67,-1746.36L-1753.67,-1747.1L-1750.57,-1747.1Z" style="fill:white;fill-rule:nonzero;"/>
                    <path d="M-1744.37,-1750.59L-1744.37,-1747.44L-1745.1,-1747.44L-1745.1,-1749.85L-1747.47,-1749.85L-1747.47,-1750.59L-1744.37,-1750.59Z" style="fill:white;fill-rule:nonzero;"/>
                    <path d="M-1753.67,-1745.1L-1753.67,-1741.95L-1754.4,-1741.95L-1754.4,-1744.36L-1756.77,-1744.36L-1756.77,-1745.1L-1753.67,-1745.1Z" style="fill:white;fill-rule:nonzero;"/>
                    <path d="M-1732.79,-1741.18C-1732.79,-1740.85 -1733.04,-1740.59 -1733.37,-1740.59C-1733.7,-1740.59 -1733.95,-1740.85 -1733.95,-1741.18C-1733.95,-1741.52 -1733.7,-1741.77 -1733.37,-1741.77C-1733.04,-1741.77 -1732.79,-1741.52 -1732.79,-1741.18Z" style="fill:white;fill-rule:nonzero;"/>
                    <path d="M-1737.61,-1742.68C-1738,-1744.16 -1737.2,-1746.1 -1735.78,-1746.13C-1736.33,-1745.07 -1736.77,-1742.9 -1735.2,-1742.56C-1734.56,-1742.05 -1736.89,-1739.94 -1737.61,-1742.68Z" style="fill:white;fill-rule:nonzero;"/>
                    <path d="M-1730.2,-1741.76C-1730.2,-1742.49 -1730.38,-1743.19 -1730.7,-1743.81C-1730.76,-1743.94 -1730.84,-1744.06 -1730.91,-1744.18C-1731.13,-1744.52 -1731.4,-1744.83 -1731.7,-1745.1C-1731.9,-1745.27 -1732.12,-1745.43 -1732.34,-1745.56L-1732.44,-1745.62L-1733.23,-1746.08L-1733.96,-1746.51L-1735.51,-1747.41L-1736.14,-1747.78L-1736.78,-1748.15L-1737.53,-1748.59L-1738.71,-1749.28L-1743.48,-1752.08C-1743.99,-1752.38 -1744.55,-1752.56 -1745.11,-1752.63C-1745.16,-1752.64 -1745.2,-1752.64 -1745.25,-1752.65C-1745.3,-1752.65 -1745.34,-1752.66 -1745.39,-1752.66L-1745.39,-1752.66L-1745.39,-1752.66C-1745.39,-1752.66 -1745.39,-1752.66 -1745.4,-1752.66C-1745.44,-1752.66 -1745.48,-1752.66 -1745.52,-1752.66C-1745.56,-1752.67 -1745.6,-1752.67 -1745.64,-1752.67L-1745.66,-1752.67C-1745.7,-1752.67 -1745.75,-1752.67 -1745.79,-1752.67C-1745.79,-1752.67 -1745.8,-1752.67 -1745.8,-1752.66C-1746.08,-1752.66 -1746.35,-1752.62 -1746.62,-1752.56C-1746.87,-1752.5 -1747.12,-1752.41 -1747.37,-1752.31C-1747.52,-1752.24 -1747.67,-1752.16 -1747.82,-1752.08L-1757.67,-1746.31L-1758.4,-1745.88L-1759.03,-1745.51L-1759.12,-1745.46C-1759.35,-1745.31 -1759.56,-1745.14 -1759.76,-1744.95C-1760,-1744.71 -1760.21,-1744.45 -1760.39,-1744.17C-1760.49,-1744.02 -1760.58,-1743.86 -1760.66,-1743.7C-1760.94,-1743.11 -1761.09,-1742.45 -1761.09,-1741.76L-1761.09,-1728.74C-1761.09,-1728.38 -1761.06,-1728.03 -1760.97,-1727.68C-1760.91,-1727.44 -1760.83,-1727.2 -1760.72,-1726.97L-1759.03,-1726.97C-1759.03,-1726.97 -1759.36,-1732.44 -1758.23,-1735.48C-1758.05,-1736 -1757.81,-1736.44 -1757.53,-1736.78L-1757.52,-1736.81C-1757.51,-1736.81 -1757.51,-1736.82 -1757.5,-1736.82C-1757.5,-1736.83 -1757.31,-1736.86 -1756.98,-1736.9L-1756.98,-1736.91C-1756.82,-1736.93 -1756.62,-1736.95 -1756.4,-1736.96C-1755.91,-1737.01 -1755.26,-1737.04 -1754.51,-1737.04C-1750.26,-1737.04 -1742.67,-1735.91 -1739.8,-1728.26C-1739.64,-1727.85 -1739.5,-1727.42 -1739.38,-1726.97L-1738.02,-1726.97C-1738.93,-1733.08 -1739.84,-1741.83 -1742.15,-1744.94L-1742.11,-1744.94L-1742,-1744.93L-1741.92,-1744.93L-1741.68,-1744.93L-1740.78,-1744.91L-1740.77,-1744.91C-1739.28,-1742.44 -1738.54,-1737.41 -1738.54,-1737.41L-1737.81,-1736.99L-1735.37,-1735.58L-1735.37,-1732.18L-1735.35,-1732.21L-1735.35,-1732.18L-1734.75,-1732.85L-1733.96,-1733.74L-1733.23,-1734.56L-1732.44,-1735.45L-1731.7,-1736.27L-1731.38,-1736.63L-1730.91,-1736.81L-1730.18,-1737.09L-1730.18,-1741.37L-1730.2,-1741.76ZM-1759.82,-1727.75L-1760.19,-1727.75C-1760.27,-1728.06 -1760.32,-1728.39 -1760.32,-1728.73L-1760.32,-1741.77C-1760.32,-1742.47 -1760.12,-1743.14 -1759.76,-1743.71C-1759.76,-1743.71 -1759.84,-1728.58 -1759.82,-1727.75ZM-1758.4,-1736.87C-1758.55,-1736.63 -1758.68,-1736.37 -1758.81,-1736.07C-1758.81,-1736.06 -1758.82,-1736.06 -1758.82,-1736.05C-1758.84,-1736.01 -1758.85,-1735.97 -1758.87,-1735.92C-1758.87,-1735.92 -1758.87,-1735.91 -1758.88,-1735.91C-1758.93,-1735.78 -1758.98,-1735.64 -1759.03,-1735.49L-1759.03,-1744.56C-1758.88,-1744.68 -1758.71,-1744.8 -1758.54,-1744.9L-1758.4,-1744.99L-1758.4,-1736.87ZM-1757.67,-1745.41L-1747.42,-1751.41C-1746.87,-1751.74 -1746.26,-1751.9 -1745.64,-1751.9C-1745.02,-1751.9 -1744.4,-1751.74 -1743.86,-1751.41L-1740.19,-1749.27L-1741.67,-1748.4L-1742.31,-1748.03L-1743.16,-1747.53L-1743.21,-1747.5L-1743.48,-1747.35L-1743.79,-1747.16L-1743.84,-1747.13L-1744.48,-1746.76L-1744.8,-1746.57L-1745.11,-1746.38L-1745.11,-1746.38L-1745.8,-1745.98L-1746.12,-1745.8L-1746.43,-1745.61L-1747.12,-1745.21L-1747.43,-1745.02L-1747.75,-1744.84L-1756.61,-1739.64L-1756.62,-1739.63L-1757.67,-1739.02L-1757.67,-1745.41ZM-1746.75,-1744.57L-1746.07,-1744.97L-1741.99,-1737.77C-1742.49,-1738.22 -1743.02,-1738.62 -1743.59,-1738.98L-1746.75,-1744.57ZM-1744.83,-1739.69C-1745.06,-1739.8 -1745.28,-1739.9 -1745.51,-1740C-1747.15,-1740.71 -1748.88,-1741.06 -1750.67,-1741.06C-1751.5,-1741.06 -1752.31,-1740.99 -1753.11,-1740.83L-1747.39,-1744.19L-1744.83,-1739.69ZM-1745.87,-1736C-1748.94,-1737.49 -1752.26,-1737.8 -1754.51,-1737.8C-1754.62,-1737.8 -1754.72,-1737.8 -1754.83,-1737.8C-1753.51,-1738.36 -1752.09,-1738.66 -1750.62,-1738.66C-1747.72,-1738.66 -1745,-1737.52 -1742.95,-1735.44C-1741.71,-1734.17 -1740.8,-1732.65 -1740.28,-1730.99C-1741.61,-1733.16 -1743.48,-1734.84 -1745.87,-1736ZM-1739.96,-1734.2C-1739.91,-1734.11 -1739.86,-1734.03 -1739.81,-1733.94C-1739.81,-1733.94 -1739.5,-1731.93 -1739.28,-1730.47C-1740.53,-1735.61 -1745.17,-1739.42 -1750.62,-1739.42C-1752.82,-1739.42 -1754.89,-1738.8 -1756.64,-1737.71C-1757.24,-1737.66 -1757.59,-1737.6 -1757.62,-1737.59L-1757.67,-1737.59L-1757.67,-1738.16L-1757.6,-1738.2L-1757.59,-1738.2C-1757.16,-1738.5 -1756.7,-1738.77 -1756.24,-1739L-1756.23,-1739C-1754.52,-1739.86 -1752.63,-1740.32 -1750.67,-1740.32C-1748.33,-1740.32 -1746.08,-1739.67 -1744.13,-1738.45L-1744.13,-1738.45C-1743.9,-1738.31 -1743.67,-1738.15 -1743.45,-1738L-1743.45,-1737.99C-1743.19,-1737.81 -1742.94,-1737.61 -1742.69,-1737.41C-1742.39,-1737.15 -1742.1,-1736.88 -1741.82,-1736.6C-1741.1,-1735.87 -1740.48,-1735.06 -1739.96,-1734.2L-1739.96,-1734.2ZM-1740.6,-1738.42C-1740.43,-1737.63 -1740.27,-1736.81 -1740.12,-1735.97L-1745.43,-1745.34L-1744.75,-1745.74L-1740.68,-1738.57L-1740.6,-1738.42ZM-1742,-1743.22C-1741.99,-1743.19 -1741.98,-1743.17 -1741.97,-1743.14C-1741.92,-1743.02 -1741.87,-1742.89 -1741.82,-1742.77C-1741.78,-1742.64 -1741.73,-1742.52 -1741.68,-1742.39C-1741.67,-1742.36 -1741.66,-1742.32 -1741.64,-1742.28C-1741.63,-1742.25 -1741.62,-1742.21 -1741.6,-1742.17C-1741.6,-1742.16 -1741.6,-1742.15 -1741.59,-1742.14C-1741.59,-1742.14 -1741.59,-1742.14 -1741.59,-1742.14C-1741.58,-1742.12 -1741.58,-1742.11 -1741.57,-1742.09L-1741.57,-1742.08C-1741.44,-1741.71 -1741.31,-1741.34 -1741.19,-1740.97L-1741.24,-1741.04L-1741.26,-1741.08L-1744.12,-1746.11L-1743.49,-1746.48C-1743.36,-1746.23 -1743.23,-1745.98 -1743.11,-1745.73C-1742.94,-1745.39 -1742.78,-1745.05 -1742.63,-1744.71C-1742.49,-1744.41 -1742.36,-1744.1 -1742.23,-1743.79C-1742.15,-1743.6 -1742.07,-1743.41 -1742,-1743.22ZM-1742.15,-1745.71L-1742.29,-1745.72C-1742.47,-1746.1 -1742.66,-1746.48 -1742.86,-1746.85L-1742.8,-1746.89L-1741.95,-1747.38C-1741.82,-1747.12 -1741.69,-1746.87 -1741.56,-1746.6C-1741.5,-1746.48 -1741.44,-1746.36 -1741.38,-1746.23C-1741.32,-1746.11 -1741.26,-1745.99 -1741.2,-1745.86C-1741.18,-1745.81 -1741.15,-1745.75 -1741.13,-1745.7L-1742.15,-1745.71ZM-1730.95,-1737.63L-1731.87,-1737.27L-1734.62,-1734.17L-1734.62,-1736.02L-1737.86,-1737.89C-1737.93,-1738.32 -1738.06,-1739.07 -1738.26,-1739.96C-1738.26,-1739.97 -1738.27,-1739.99 -1738.27,-1740C-1738.28,-1740.07 -1738.3,-1740.13 -1738.31,-1740.19C-1738.31,-1740.2 -1738.31,-1740.21 -1738.32,-1740.21C-1738.33,-1740.27 -1738.34,-1740.33 -1738.36,-1740.39C-1738.4,-1740.57 -1738.44,-1740.76 -1738.49,-1740.94C-1738.58,-1741.27 -1738.67,-1741.61 -1738.77,-1741.95C-1738.85,-1742.22 -1738.93,-1742.5 -1739.02,-1742.77C-1739.1,-1743.02 -1739.19,-1743.27 -1739.28,-1743.51C-1739.38,-1743.79 -1739.5,-1744.06 -1739.61,-1744.32C-1739.73,-1744.58 -1739.85,-1744.82 -1739.98,-1745.06C-1740.03,-1745.15 -1740.08,-1745.23 -1740.13,-1745.32C-1740.13,-1745.32 -1740.13,-1745.33 -1740.14,-1745.33L-1740.24,-1745.49C-1740.29,-1745.62 -1740.34,-1745.74 -1740.4,-1745.86L-1740.74,-1746.6L-1741.32,-1747.75L-1740.64,-1748.15L-1739.46,-1748.84L-1732.73,-1744.9C-1732.63,-1744.84 -1732.53,-1744.78 -1732.44,-1744.71C-1732.16,-1744.51 -1731.91,-1744.26 -1731.7,-1743.99C-1731.23,-1743.37 -1730.95,-1742.59 -1730.95,-1741.77L-1730.95,-1737.63Z" style="fill:white;fill-rule:nonzero;"/>
                </g>
            </g>
        </g>
    </g>
</svg>
