<?xml version="1.0" encoding="UTF-8" standalone="no"?>
<!DOCTYPE svg PUBLIC "-//W3C//DTD SVG 1.1//EN" "http://www.w3.org/Graphics/SVG/1.1/DTD/svg11.dtd">
<svg width="100%" height="100%" viewBox="0 0 663 663" version="1.1" xmlns="http://www.w3.org/2000/svg" xmlns:xlink="http://www.w3.org/1999/xlink" xml:space="preserve" xmlns:serif="http://www.serif.com/" style="fill-rule:evenodd;clip-rule:evenodd;stroke-linejoin:round;stroke-miterlimit:2;">
    <g transform="matrix(1,0,0,1,-10352.5,-5801.47)">
        <g transform="matrix(0.188889,0,0,0.26711,10352.5,5801.47)">
            <rect id="LogoBlack" x="0" y="0" width="3507.87" height="2480.32" style="fill:none;"/>
            <g id="LogoBlack1" serif:id="LogoBlack">
                <g transform="matrix(100.094,0,0,70.7824,176482,124064)">
                    <path d="M-1760.33,-1725.87C-1760.02,-1725.47 -1759.63,-1725.15 -1759.18,-1724.9L-1748.08,-1718.37C-1747.42,-1718 -1746.68,-1717.8 -1745.92,-1717.8C-1745.16,-1717.8 -1744.4,-1718 -1743.76,-1718.37L-1732.66,-1724.9C-1732.23,-1725.13 -1731.84,-1725.47 -1731.51,-1725.87L-1760.33,-1725.87Z" style="fill-rule:nonzero;"/>
                    <path d="M-1747.47,-1748.8L-1747.47,-1745.65L-1748.2,-1745.65L-1748.2,-1748.06L-1750.57,-1748.06L-1750.57,-1748.8L-1747.47,-1748.8Z" style="fill-rule:nonzero;"/>
                    <path d="M-1750.57,-1747.1L-1750.57,-1743.95L-1751.3,-1743.95L-1751.3,-1746.36L-1753.67,-1746.36L-1753.67,-1747.1L-1750.57,-1747.1Z" style="fill-rule:nonzero;"/>
                    <path d="M-1744.37,-1750.59L-1744.37,-1747.44L-1745.1,-1747.44L-1745.1,-1749.85L-1747.47,-1749.85L-1747.47,-1750.59L-1744.37,-1750.59Z" style="fill-rule:nonzero;"/>
                    <path d="M-1753.67,-1745.1L-1753.67,-1741.95L-1754.4,-1741.95L-1754.4,-1744.36L-1756.77,-1744.36L-1756.77,-1745.1L-1753.67,-1745.1Z" style="fill-rule:nonzero;"/>
                    <path d="M-1732.79,-1741.18C-1732.79,-1740.85 -1733.04,-1740.59 -1733.37,-1740.59C-1733.7,-1740.59 -1733.95,-1740.85 -1733.95,-1741.18C-1733.95,-1741.52 -1733.7,-1741.77 -1733.37,-1741.77C-1733.04,-1741.77 -1732.79,-1741.52 -1732.79,-1741.18Z" style="fill-rule:nonzero;"/>
                    <path d="M-1737.61,-1742.68C-1738,-1744.16 -1737.2,-1746.1 -1735.78,-1746.13C-1736.33,-1745.07 -1736.77,-1742.9 -1735.2,-1742.56C-1734.56,-1742.05 -1736.89,-1739.94 -1737.61,-1742.68Z" style="fill-rule:nonzero;"/>
                    <path d="M-1730.2,-1741.76C-1730.2,-1742.49 -1730.38,-1743.19 -1730.7,-1743.81C-1730.76,-1743.94 -1730.84,-1744.06 -1730.91,-1744.18C-1731.13,-1744.52 -1731.4,-1744.83 -1731.7,-1745.1C-1731.9,-1745.27 -1732.12,-1745.43 -1732.34,-1745.56L-1732.44,-1745.62L-1733.23,-1746.08L-1733.96,-1746.51L-1735.51,-1747.41L-1736.14,-1747.78L-1736.78,-1748.15L-1737.53,-1748.59L-1738.71,-1749.28L-1743.48,-1752.08C-1743.99,-1752.38 -1744.55,-1752.56 -1745.11,-1752.63C-1745.16,-1752.64 -1745.2,-1752.64 -1745.25,-1752.65C-1745.3,-1752.65 -1745.34,-1752.66 -1745.39,-1752.66L-1745.39,-1752.66L-1745.39,-1752.66C-1745.39,-1752.66 -1745.39,-1752.66 -1745.4,-1752.66C-1745.44,-1752.66 -1745.48,-1752.66 -1745.52,-1752.66C-1745.56,-1752.67 -1745.6,-1752.67 -1745.64,-1752.67L-1745.66,-1752.67C-1745.7,-1752.67 -1745.75,-1752.67 -1745.79,-1752.67C-1745.79,-1752.67 -1745.8,-1752.67 -1745.8,-1752.66C-1746.08,-1752.66 -1746.35,-1752.62 -1746.62,-1752.56C-1746.87,-1752.5 -1747.12,-1752.41 -1747.37,-1752.31C-1747.52,-1752.24 -1747.67,-1752.16 -1747.82,-1752.08L-1757.67,-1746.31L-1758.4,-1745.88L-1759.03,-1745.51L-1759.12,-1745.46C-1759.35,-1745.31 -1759.56,-1745.14 -1759.76,-1744.95C-1760,-1744.71 -1760.21,-1744.45 -1760.39,-1744.17C-1760.49,-1744.02 -1760.58,-1743.86 -1760.66,-1743.7C-1760.94,-1743.11 -1761.09,-1742.45 -1761.09,-1741.76L-1761.09,-1728.74C-1761.09,-1728.38 -1761.06,-1728.03 -1760.97,-1727.68C-1760.91,-1727.44 -1760.83,-1727.2 -1760.72,-1726.97L-1759.03,-1726.97C-1759.03,-1726.97 -1759.36,-1732.44 -1758.23,-1735.48C-1758.05,-1736 -1757.81,-1736.44 -1757.53,-1736.78L-1757.52,-1736.81C-1757.51,-1736.81 -1757.51,-1736.82 -1757.5,-1736.82C-1757.5,-1736.83 -1757.31,-1736.86 -1756.98,-1736.9L-1756.98,-1736.91C-1756.82,-1736.93 -1756.62,-1736.95 -1756.4,-1736.96C-1755.91,-1737.01 -1755.26,-1737.04 -1754.51,-1737.04C-1750.26,-1737.04 -1742.67,-1735.91 -1739.8,-1728.26C-1739.64,-1727.85 -1739.5,-1727.42 -1739.38,-1726.97L-1738.02,-1726.97C-1738.93,-1733.08 -1739.84,-1741.83 -1742.15,-1744.94L-1742.11,-1744.94L-1742,-1744.93L-1741.92,-1744.93L-1741.68,-1744.93L-1740.78,-1744.91L-1740.77,-1744.91C-1739.28,-1742.44 -1738.54,-1737.41 -1738.54,-1737.41L-1737.81,-1736.99L-1735.37,-1735.58L-1735.37,-1732.18L-1735.35,-1732.21L-1735.35,-1732.18L-1734.75,-1732.85L-1733.96,-1733.74L-1733.23,-1734.56L-1732.44,-1735.45L-1731.7,-1736.27L-1731.38,-1736.63L-1730.91,-1736.81L-1730.18,-1737.09L-1730.18,-1741.37L-1730.2,-1741.76ZM-1759.82,-1727.75L-1760.19,-1727.75C-1760.27,-1728.06 -1760.32,-1728.39 -1760.32,-1728.73L-1760.32,-1741.77C-1760.32,-1742.47 -1760.12,-1743.14 -1759.76,-1743.71C-1759.76,-1743.71 -1759.84,-1728.58 -1759.82,-1727.75ZM-1758.4,-1736.87C-1758.55,-1736.63 -1758.68,-1736.37 -1758.81,-1736.07C-1758.81,-1736.06 -1758.82,-1736.06 -1758.82,-1736.05C-1758.84,-1736.01 -1758.85,-1735.97 -1758.87,-1735.92C-1758.87,-1735.92 -1758.87,-1735.91 -1758.88,-1735.91C-1758.93,-1735.78 -1758.98,-1735.64 -1759.03,-1735.49L-1759.03,-1744.56C-1758.88,-1744.68 -1758.71,-1744.8 -1758.54,-1744.9L-1758.4,-1744.99L-1758.4,-1736.87ZM-1757.67,-1745.41L-1747.42,-1751.41C-1746.87,-1751.74 -1746.26,-1751.9 -1745.64,-1751.9C-1745.02,-1751.9 -1744.4,-1751.74 -1743.86,-1751.41L-1740.19,-1749.27L-1741.67,-1748.4L-1742.31,-1748.03L-1743.16,-1747.53L-1743.21,-1747.5L-1743.48,-1747.35L-1743.79,-1747.16L-1743.84,-1747.13L-1744.48,-1746.76L-1744.8,-1746.57L-1745.11,-1746.38L-1745.11,-1746.38L-1745.8,-1745.98L-1746.12,-1745.8L-1746.43,-1745.61L-1747.12,-1745.21L-1747.43,-1745.02L-1747.75,-1744.84L-1756.61,-1739.64L-1756.62,-1739.63L-1757.67,-1739.02L-1757.67,-1745.41ZM-1746.75,-1744.57L-1746.07,-1744.97L-1741.99,-1737.77C-1742.49,-1738.22 -1743.02,-1738.62 -1743.59,-1738.98L-1746.75,-1744.57ZM-1744.83,-1739.69C-1745.06,-1739.8 -1745.28,-1739.9 -1745.51,-1740C-1747.15,-1740.71 -1748.88,-1741.06 -1750.67,-1741.06C-1751.5,-1741.06 -1752.31,-1740.99 -1753.11,-1740.83L-1747.39,-1744.19L-1744.83,-1739.69ZM-1745.87,-1736C-1748.94,-1737.49 -1752.26,-1737.8 -1754.51,-1737.8C-1754.62,-1737.8 -1754.72,-1737.8 -1754.83,-1737.8C-1753.51,-1738.36 -1752.09,-1738.66 -1750.62,-1738.66C-1747.72,-1738.66 -1745,-1737.52 -1742.95,-1735.44C-1741.71,-1734.17 -1740.8,-1732.65 -1740.28,-1730.99C-1741.61,-1733.16 -1743.48,-1734.84 -1745.87,-1736ZM-1739.96,-1734.2C-1739.91,-1734.11 -1739.86,-1734.03 -1739.81,-1733.94C-1739.81,-1733.94 -1739.5,-1731.93 -1739.28,-1730.47C-1740.53,-1735.61 -1745.17,-1739.42 -1750.62,-1739.42C-1752.82,-1739.42 -1754.89,-1738.8 -1756.64,-1737.71C-1757.24,-1737.66 -1757.59,-1737.6 -1757.62,-1737.59L-1757.67,-1737.59L-1757.67,-1738.16L-1757.6,-1738.2L-1757.59,-1738.2C-1757.16,-1738.5 -1756.7,-1738.77 -1756.24,-1739L-1756.23,-1739C-1754.52,-1739.86 -1752.63,-1740.32 -1750.67,-1740.32C-1748.33,-1740.32 -1746.08,-1739.67 -1744.13,-1738.45L-1744.13,-1738.45C-1743.9,-1738.31 -1743.67,-1738.15 -1743.45,-1738L-1743.45,-1737.99C-1743.19,-1737.81 -1742.94,-1737.61 -1742.69,-1737.41C-1742.39,-1737.15 -1742.1,-1736.88 -1741.82,-1736.6C-1741.1,-1735.87 -1740.48,-1735.06 -1739.96,-1734.2L-1739.96,-1734.2ZM-1740.6,-1738.42C-1740.43,-1737.63 -1740.27,-1736.81 -1740.12,-1735.97L-1745.43,-1745.34L-1744.75,-1745.74L-1740.68,-1738.57L-1740.6,-1738.42ZM-1742,-1743.22C-1741.99,-1743.19 -1741.98,-1743.17 -1741.97,-1743.14C-1741.92,-1743.02 -1741.87,-1742.89 -1741.82,-1742.77C-1741.78,-1742.64 -1741.73,-1742.52 -1741.68,-1742.39C-1741.67,-1742.36 -1741.66,-1742.32 -1741.64,-1742.28C-1741.63,-1742.25 -1741.62,-1742.21 -1741.6,-1742.17C-1741.6,-1742.16 -1741.6,-1742.15 -1741.59,-1742.14C-1741.59,-1742.14 -1741.59,-1742.14 -1741.59,-1742.14C-1741.58,-1742.12 -1741.58,-1742.11 -1741.57,-1742.09L-1741.57,-1742.08C-1741.44,-1741.71 -1741.31,-1741.34 -1741.19,-1740.97L-1741.24,-1741.04L-1741.26,-1741.08L-1744.12,-1746.11L-1743.49,-1746.48C-1743.36,-1746.23 -1743.23,-1745.98 -1743.11,-1745.73C-1742.94,-1745.39 -1742.78,-1745.05 -1742.63,-1744.71C-1742.49,-1744.41 -1742.36,-1744.1 -1742.23,-1743.79C-1742.15,-1743.6 -1742.07,-1743.41 -1742,-1743.22ZM-1742.15,-1745.71L-1742.29,-1745.72C-1742.47,-1746.1 -1742.66,-1746.48 -1742.86,-1746.85L-1742.8,-1746.89L-1741.95,-1747.38C-1741.82,-1747.12 -1741.69,-1746.87 -1741.56,-1746.6C-1741.5,-1746.48 -1741.44,-1746.36 -1741.38,-1746.23C-1741.32,-1746.11 -1741.26,-1745.99 -1741.2,-1745.86C-1741.18,-1745.81 -1741.15,-1745.75 -1741.13,-1745.7L-1742.15,-1745.71ZM-1730.95,-1737.63L-1731.87,-1737.27L-1734.62,-1734.17L-1734.62,-1736.02L-1737.86,-1737.89C-1737.93,-1738.32 -1738.06,-1739.07 -1738.26,-1739.96C-1738.26,-1739.97 -1738.27,-1739.99 -1738.27,-1740C-1738.28,-1740.07 -1738.3,-1740.13 -1738.31,-1740.19C-1738.31,-1740.2 -1738.31,-1740.21 -1738.32,-1740.21C-1738.33,-1740.27 -1738.34,-1740.33 -1738.36,-1740.39C-1738.4,-1740.57 -1738.44,-1740.76 -1738.49,-1740.94C-1738.58,-1741.27 -1738.67,-1741.61 -1738.77,-1741.95C-1738.85,-1742.22 -1738.93,-1742.5 -1739.02,-1742.77C-1739.1,-1743.02 -1739.19,-1743.27 -1739.28,-1743.51C-1739.38,-1743.79 -1739.5,-1744.06 -1739.61,-1744.32C-1739.73,-1744.58 -1739.85,-1744.82 -1739.98,-1745.06C-1740.03,-1745.15 -1740.08,-1745.23 -1740.13,-1745.32C-1740.13,-1745.32 -1740.13,-1745.33 -1740.14,-1745.33L-1740.24,-1745.49C-1740.29,-1745.62 -1740.34,-1745.74 -1740.4,-1745.86L-1740.74,-1746.6L-1741.32,-1747.75L-1740.64,-1748.15L-1739.46,-1748.84L-1732.73,-1744.9C-1732.63,-1744.84 -1732.53,-1744.78 -1732.44,-1744.71C-1732.16,-1744.51 -1731.91,-1744.26 -1731.7,-1743.99C-1731.23,-1743.37 -1730.95,-1742.59 -1730.95,-1741.77L-1730.95,-1737.63Z" style="fill-rule:nonzero;"/>
                </g>
            </g>
        </g>
    </g>
</svg>
