<?xml version="1.0" encoding="UTF-8" standalone="no"?>
<!-- Created with Inkscape (http://www.inkscape.org/) -->

<svg
   width="210mm"
   height="297mm"
   viewBox="0 0 210 297"
   version="1.1"
   id="svg1"
   inkscape:version="1.3 (0e150ed6c4, 2023-07-21)"
   sodipodi:docname="certificate.svg"
   xmlns:inkscape="http://www.inkscape.org/namespaces/inkscape"
   xmlns:sodipodi="http://sodipodi.sourceforge.net/DTD/sodipodi-0.dtd"
   xmlns="http://www.w3.org/2000/svg"
   xmlns:svg="http://www.w3.org/2000/svg">
  <sodipodi:namedview
     id="namedview1"
     pagecolor="#ffffff"
     bordercolor="#000000"
     borderopacity="0.25"
     inkscape:showpageshadow="2"
     inkscape:pageopacity="0.0"
     inkscape:pagecheckerboard="0"
     inkscape:deskcolor="#d1d1d1"
     inkscape:document-units="mm"
     inkscape:zoom="0.72515432"
     inkscape:cx="396.46733"
     inkscape:cy="561.25984"
     inkscape:window-width="1920"
     inkscape:window-height="1010"
     inkscape:window-x="-6"
     inkscape:window-y="-6"
     inkscape:window-maximized="1"
     inkscape:current-layer="layer1" />
  <defs
     id="defs1">
    <clipPath
       id="_clip4">
      <rect
         x="0"
         y="0"
         width="20.693001"
         height="27.497999"
         id="rect8" />
    </clipPath>
  </defs>
  <g
     inkscape:label="Katman 1"
     inkscape:groupmode="layer"
     id="layer1">
    <g
       clip-path="url(#_clip4)"
       id="g10"
       transform="matrix(7.8158975,0,0,7.9906953,24.912107,49.744836)"
       style="clip-rule:evenodd;fill-rule:evenodd;stroke-linejoin:round;stroke-miterlimit:2">
      <g
         transform="translate(-8e-5,1.04421)"
         id="g9">
        <path
           d="m 5.147,6.467 c 0,-0.006 10e-4,-0.019 10e-4,-0.038 0,-0.165 -0.065,-0.316 -0.17,-0.426 L 4.967,5.992 C 4.855,5.88 4.7,5.811 4.53,5.811 4.359,5.811 4.205,5.88 4.093,5.992 3.981,6.104 3.912,6.258 3.912,6.429 V 6.466 C 3.913,6.475 3.914,6.488 3.916,6.504 3.929,6.612 3.87,6.72 3.765,6.764 3.637,6.819 3.489,6.759 3.435,6.631 3.428,6.615 3.423,6.604 3.42,6.598 3.417,6.592 3.411,6.581 3.402,6.566 3.317,6.418 3.179,6.319 3.026,6.278 2.877,6.238 2.713,6.253 2.568,6.332 L 2.557,6.339 C 2.409,6.424 2.31,6.562 2.269,6.715 2.229,6.865 2.244,7.029 2.325,7.174 L 2.331,7.185 C 2.336,7.194 2.343,7.204 2.35,7.216 2.359,7.228 2.366,7.239 2.372,7.247 2.437,7.334 2.439,7.456 2.371,7.547 2.288,7.658 2.131,7.681 2.02,7.597 2.014,7.593 2.004,7.586 1.989,7.576 H 1.99 C 1.979,7.569 1.969,7.563 1.958,7.557 1.811,7.471 1.642,7.454 1.488,7.495 1.335,7.536 1.198,7.636 1.112,7.784 V 7.783 C 1.027,7.931 1.01,8.099 1.051,8.253 1.092,8.406 1.191,8.543 1.338,8.628 L 1.372,8.645 V 8.646 L 1.395,8.657 C 1.501,8.696 1.57,8.804 1.557,8.921 1.541,9.059 1.416,9.158 1.278,9.142 1.263,9.141 1.25,9.139 1.24,9.139 1.233,9.138 1.221,9.138 1.202,9.138 1.037,9.138 0.887,9.203 0.777,9.308 L 0.766,9.319 C 0.653,9.432 0.584,9.586 0.584,9.756 H 0.585 V 9.757 H 0.584 c 0,0.17 0.069,0.324 0.181,0.436 0.111,0.112 0.266,0.181 0.437,0.181 h 0.001 c 0.018,0 0.031,0 0.037,-0.001 0.009,0 0.022,-10e-4 0.037,-0.003 0.108,-0.013 0.216,0.046 0.261,0.151 0.055,0.128 -0.005,0.275 -0.133,0.33 -0.016,0.007 -0.027,0.012 -0.033,0.015 L 1.34,10.884 v -0.001 l -0.002,0.001 c -0.147,0.085 -0.246,0.222 -0.287,0.376 -0.04,0.149 -0.025,0.313 0.055,0.458 l 0.007,0.011 c 0.085,0.148 0.222,0.247 0.375,0.288 0.153,0.041 0.322,0.024 0.469,-0.061 l 0.031,-0.02 0.019,-0.013 c 0.088,-0.074 0.218,-0.081 0.314,-0.009 0.111,0.083 0.134,0.24 0.051,0.352 -0.01,0.013 -0.017,0.023 -0.022,0.031 v -0.001 c -0.004,0.006 -0.011,0.017 -0.02,0.033 v -0.001 c -0.085,0.148 -0.102,0.316 -0.061,0.47 0.041,0.153 0.14,0.29 0.288,0.375 0.148,0.086 0.316,0.103 0.469,0.062 0.153,-0.041 0.291,-0.141 0.376,-0.288 0.007,-0.011 0.012,-0.022 0.018,-0.033 l 0.01,-0.021 c 0.039,-0.107 0.148,-0.178 0.266,-0.164 0.138,0.017 0.236,0.142 0.22,0.28 -0.002,0.016 -0.003,0.028 -0.004,0.037 v 0.038 c 0,0.171 0.069,0.325 0.18,0.436 0.112,0.112 0.266,0.181 0.438,0.181 v 10e-4 c 0.17,0 0.324,-0.069 0.437,-0.182 0.111,-0.111 0.181,-0.266 0.181,-0.436 0,-0.019 -10e-4,-0.032 -10e-4,-0.038 L 5.144,13.017 c -0.017,-0.11 0.042,-0.223 0.15,-0.269 0.128,-0.055 0.276,0.004 0.33,0.132 l 0.015,0.034 0.012,0.022 0.007,0.011 c 0.085,0.147 0.222,0.247 0.375,0.288 0.153,0.041 0.322,0.024 0.469,-0.062 0.148,-0.085 0.248,-0.222 0.289,-0.375 0.04,-0.15 0.024,-0.314 -0.055,-0.459 L 6.729,12.329 C 6.723,12.318 6.717,12.308 6.71,12.298 6.705,12.29 6.698,12.28 6.687,12.266 6.622,12.179 6.619,12.055 6.688,11.964 6.772,11.853 6.93,11.831 7.041,11.915 c 0.015,0.011 0.024,0.018 0.028,0.021 l 0.021,0.013 0.013,0.007 c 0.147,0.085 0.315,0.102 0.468,0.061 0.153,-0.041 0.291,-0.14 0.376,-0.288 L 7.949,11.726 C 8.033,11.579 8.049,11.412 8.008,11.26 7.968,11.111 7.873,10.976 7.732,10.891 L 7.697,10.871 7.662,10.855 C 7.558,10.815 7.49,10.708 7.503,10.591 c 0.016,-0.138 0.14,-0.237 0.278,-0.221 0.015,0.002 0.028,0.003 0.038,0.004 h 0.038 c 0.171,0 0.326,-0.069 0.437,-0.18 C 8.406,10.082 8.476,9.927 8.476,9.756 H 8.475 8.476 C 8.476,9.585 8.407,9.431 8.295,9.319 8.183,9.208 8.029,9.138 7.857,9.138 7.838,9.138 7.826,9.139 7.819,9.139 7.81,9.14 7.798,9.141 7.782,9.143 V 9.142 C 7.674,9.155 7.566,9.096 7.521,8.991 7.467,8.863 7.527,8.716 7.654,8.662 7.665,8.657 7.676,8.652 7.687,8.646 7.703,8.638 7.714,8.632 7.721,8.628 7.868,8.543 7.967,8.406 8.008,8.253 8.048,8.103 8.033,7.939 7.954,7.794 L 7.947,7.784 C 7.862,7.636 7.724,7.536 7.571,7.495 7.422,7.455 7.258,7.471 7.113,7.55 L 7.079,7.57 7.07,7.577 C 7.057,7.585 7.047,7.593 7.039,7.598 H 7.038 C 6.951,7.663 6.828,7.665 6.738,7.596 6.627,7.513 6.606,7.356 6.689,7.245 6.696,7.237 6.703,7.227 6.71,7.217 6.716,7.206 6.723,7.195 6.729,7.184 6.814,7.037 6.832,6.868 6.791,6.715 6.75,6.562 6.65,6.424 6.502,6.339 6.355,6.254 6.186,6.237 6.033,6.278 5.88,6.319 5.743,6.418 5.658,6.566 H 5.657 L 5.648,6.583 5.627,6.626 C 5.586,6.73 5.479,6.797 5.363,6.783 5.225,6.766 5.127,6.641 5.143,6.503 5.145,6.486 5.147,6.475 5.147,6.467 Z m 5.507,9.277 c -0.139,0 -0.252,-0.113 -0.252,-0.252 0,-0.139 0.113,-0.252 0.252,-0.252 h 6.015 c 0.139,0 0.252,0.113 0.252,0.252 0,0.139 -0.113,0.252 -0.252,0.252 z m -0.073,-2.059 c -0.14,0 -0.252,-0.113 -0.252,-0.252 0,-0.139 0.112,-0.252 0.252,-0.252 h 6.088 c 0.139,0 0.252,0.113 0.252,0.252 0,0.139 -0.113,0.252 -0.252,0.252 z m -0.059,-2.06 c -0.139,0 -0.252,-0.113 -0.252,-0.252 0,-0.139 0.113,-0.252 0.252,-0.252 h 6.147 c 0.139,0 0.252,0.113 0.252,0.252 0,0.139 -0.113,0.252 -0.252,0.252 z m 0.059,-2.11 c -0.14,0 -0.252,-0.113 -0.252,-0.252 0,-0.139 0.112,-0.252 0.252,-0.252 h 3.87 c 0.139,0 0.252,0.113 0.252,0.252 0,0.139 -0.113,0.252 -0.252,0.252 z M 4.057,4.301 C 4.057,4.44 3.944,4.553 3.805,4.553 3.666,4.553 3.553,4.44 3.553,4.301 V 1.872 C 3.553,1.356 3.763,0.888 4.102,0.549 4.441,0.21 4.909,0 5.425,0 h 9.734 C 15.207,0 15.254,0.002 15.3,0.007 15.319,0.003 15.339,0 15.36,0 c 0.054,0 0.105,0.017 0.146,0.046 0.047,0.013 0.093,0.029 0.138,0.048 0.151,0.063 0.288,0.155 0.41,0.277 h 0.001 l 4.267,4.267 c 0.121,0.121 0.213,0.258 0.276,0.41 0.063,0.152 0.095,0.314 0.095,0.485 v 14.593 c 0,0.516 -0.21,0.984 -0.549,1.323 -0.339,0.339 -0.808,0.549 -1.324,0.549 H 5.425 c -0.514,0 -0.982,-0.211 -1.322,-0.55 -0.339,-0.34 -0.55,-0.808 -0.55,-1.322 v -2.585 c 0,-0.139 0.113,-0.252 0.252,-0.252 0.139,0 0.252,0.113 0.252,0.252 v 2.585 c 0,0.375 0.154,0.717 0.402,0.965 0.249,0.249 0.591,0.403 0.966,0.403 H 18.82 c 0.377,0 0.719,-0.153 0.967,-0.401 0.248,-0.248 0.402,-0.59 0.402,-0.967 V 5.779 L 19.514,5.767 H 16.786 C 16.324,5.767 15.904,5.579 15.601,5.275 15.297,4.971 15.108,4.552 15.108,4.089 V 0.504 H 5.425 C 5.048,0.504 4.706,0.657 4.458,0.905 4.21,1.153 4.057,1.495 4.057,1.872 Z M 20.148,5.277 C 20.144,5.264 20.139,5.252 20.134,5.239 20.098,5.152 20.042,5.07 19.965,4.994 L 15.699,0.727 C 15.671,0.698 15.642,0.673 15.612,0.65 v 3.439 c 0,0.324 0.132,0.617 0.345,0.83 0.212,0.213 0.506,0.345 0.829,0.345 h 2.711 c 0.009,0 0.018,0 0.026,10e-4 z M 4.53,7.551 c 0.608,0 1.16,0.247 1.559,0.646 0.399,0.399 0.645,0.95 0.645,1.559 0,0.609 -0.246,1.16 -0.645,1.559 C 5.69,11.714 5.138,11.961 4.53,11.961 3.921,11.961 3.37,11.714 2.971,11.315 2.572,10.916 2.325,10.365 2.325,9.756 2.325,9.147 2.572,8.596 2.971,8.197 3.37,7.798 3.921,7.551 4.53,7.551 Z M 5.851,8.435 C 5.513,8.097 5.046,7.887 4.53,7.887 4.014,7.887 3.547,8.097 3.209,8.435 2.87,8.773 2.661,9.24 2.661,9.756 c 0,0.516 0.209,0.983 0.547,1.321 0.339,0.339 0.806,0.548 1.322,0.548 0.516,0 0.983,-0.209 1.321,-0.548 C 6.189,10.739 6.398,10.272 6.398,9.756 6.398,9.24 6.189,8.773 5.851,8.435 Z m -3.696,5.07 -1.474,2.51 1.12,-0.496 c 0.007,-0.004 0.015,-0.007 0.023,-0.009 0.051,-0.019 0.103,-0.027 0.155,-0.023 0.061,0.004 0.121,0.023 0.174,0.057 0.01,0.006 0.02,0.013 0.028,0.02 0.042,0.031 0.075,0.068 0.1,0.111 0.03,0.052 0.047,0.111 0.05,0.175 l 0.042,1.076 1.665,-2.835 C 3.926,14.037 3.825,13.964 3.738,13.877 3.645,13.784 3.568,13.675 3.512,13.554 3.403,13.631 3.283,13.687 3.156,13.721 2.879,13.795 2.574,13.763 2.305,13.608 2.252,13.577 2.202,13.543 2.155,13.505 Z m 2.866,0.586 1.666,2.835 0.042,-1.075 c 0.002,-0.063 0.019,-0.122 0.05,-0.175 v -10e-4 c 0.03,-0.052 0.073,-0.096 0.127,-0.13 L 6.907,15.544 H 6.906 C 6.96,15.51 7.019,15.491 7.08,15.487 c 0.06,-0.004 0.121,0.006 0.179,0.032 l 1.119,0.496 -1.474,-2.51 c -0.046,0.038 -0.096,0.072 -0.15,0.103 -0.268,0.155 -0.574,0.187 -0.851,0.113 -0.126,-0.034 -0.247,-0.09 -0.355,-0.166 -0.056,0.12 -0.132,0.229 -0.225,0.322 -0.087,0.087 -0.189,0.16 -0.302,0.214 z m 2.208,-1.024 1.778,3.027 c 0.042,0.071 0.058,0.151 0.051,0.229 C 9.051,16.39 9.026,16.455 8.984,16.511 8.978,16.52 8.971,16.529 8.964,16.537 8.909,16.599 8.838,16.639 8.761,16.656 8.696,16.67 8.627,16.666 8.56,16.643 8.55,16.64 8.539,16.636 8.528,16.632 L 7.223,16.053 7.172,17.369 C 7.168,17.454 7.138,17.531 7.088,17.593 7.042,17.65 6.979,17.693 6.907,17.716 6.9,17.718 6.894,17.72 6.887,17.721 6.806,17.742 6.723,17.735 6.649,17.704 6.575,17.673 6.512,17.619 6.469,17.546 L 4.53,14.245 2.599,17.532 2.591,17.547 C 2.548,17.619 2.484,17.673 2.411,17.704 2.337,17.735 2.254,17.742 2.172,17.721 2.091,17.7 2.022,17.655 1.972,17.593 1.921,17.531 1.891,17.454 1.888,17.369 L 1.836,16.053 0.531,16.632 C 0.456,16.665 0.375,16.672 0.298,16.656 0.222,16.639 0.151,16.599 0.096,16.536 0.041,16.474 0.009,16.4 0.002,16.323 -0.006,16.245 0.011,16.166 0.053,16.094 L 1.83,13.067 C 1.812,13.022 1.796,12.975 1.783,12.928 1.749,12.801 1.737,12.669 1.749,12.537 1.617,12.549 1.485,12.537 1.358,12.503 1.081,12.429 0.833,12.249 0.678,11.981 0.675,11.976 0.672,11.97 0.669,11.965 0.522,11.7 0.493,11.401 0.565,11.13 0.599,11.003 0.655,10.883 0.732,10.774 0.612,10.718 0.503,10.642 0.41,10.549 0.208,10.346 0.082,10.066 0.082,9.757 H 0.081 V 9.756 H 0.082 C 0.082,9.446 0.207,9.165 0.409,8.963 0.415,8.958 0.42,8.953 0.425,8.948 0.515,8.862 0.618,8.791 0.732,8.738 0.655,8.63 0.599,8.509 0.565,8.383 0.491,8.106 0.523,7.801 0.678,7.533 V 7.532 C 0.832,7.264 1.081,7.084 1.358,7.009 1.485,6.976 1.617,6.964 1.749,6.976 1.737,6.844 1.749,6.711 1.783,6.585 1.857,6.308 2.037,6.059 2.305,5.904 L 2.322,5.895 C 2.586,5.748 2.885,5.719 3.156,5.792 3.283,5.825 3.403,5.881 3.512,5.958 3.567,5.837 3.644,5.728 3.737,5.636 3.94,5.433 4.22,5.307 4.53,5.307 c 0.31,0 0.59,0.126 0.793,0.329 0.005,0.005 0.01,0.01 0.014,0.016 C 5.423,5.741 5.495,5.844 5.548,5.958 5.656,5.881 5.777,5.825 5.903,5.791 6.18,5.717 6.486,5.749 6.754,5.904 7.022,6.059 7.202,6.308 7.277,6.585 7.31,6.711 7.322,6.844 7.31,6.976 c 0.132,-0.012 0.265,0 0.391,0.033 0.277,0.075 0.526,0.255 0.681,0.523 L 8.391,7.548 C 8.538,7.813 8.567,8.111 8.494,8.383 8.46,8.509 8.404,8.63 8.328,8.738 8.448,8.794 8.557,8.87 8.649,8.963 8.852,9.166 8.978,9.446 8.978,9.756 H 8.979 8.978 c 0,0.31 -0.126,0.59 -0.328,0.792 -0.093,0.093 -0.202,0.17 -0.322,0.226 0.076,0.108 0.132,0.229 0.166,0.356 0.074,0.274 0.043,0.578 -0.109,0.845 l -0.004,0.006 h 10e-4 c -0.155,0.268 -0.404,0.448 -0.681,0.522 -0.126,0.034 -0.259,0.046 -0.391,0.034 0.012,0.132 0,0.264 -0.033,0.39 -0.013,0.048 -0.029,0.095 -0.048,0.14 z"
           style="fill:#ffffff;fill-rule:nonzero"
           id="path8" />
      </g>
    </g>
  </g>
</svg>
