<?xml version="1.0" encoding="UTF-8" standalone="no"?>
<!DOCTYPE svg PUBLIC "-//W3C//DTD SVG 1.1//EN" "http://www.w3.org/Graphics/SVG/1.1/DTD/svg11.dtd">
<svg width="100%" height="100%" viewBox="0 0 264 272" version="1.1" xmlns="http://www.w3.org/2000/svg" xmlns:xlink="http://www.w3.org/1999/xlink" xml:space="preserve" xmlns:serif="http://www.serif.com/" style="fill-rule:evenodd;clip-rule:evenodd;stroke-linecap:round;">
    <g transform="matrix(1,0,0,1,-2097,0)">
        <g id="Ebene-1" serif:id="Ebene 1">
        </g>
        <g id="Ebene-11" serif:id="Ebene 1">
        </g>
        <g id="_1" serif:id="1" transform="matrix(1,0,0,1,-0.343667,320.03)">
            <rect x="2097.34" y="-320.03" width="263.909" height="271.536" style="fill:none;"/>
            <g transform="matrix(1.04012,0,0,0.847284,-90.3211,-300.323)">
                <path d="M2217.63,168.832C2211.8,168.832 2207.06,163.484 2207.06,156.896L2207.06,133.025C2207.06,126.437 2211.8,121.089 2217.63,121.089L2242.67,121.089C2248.5,121.089 2253.24,126.437 2253.24,133.025L2253.24,156.896C2253.24,163.484 2248.5,168.832 2242.67,168.832" style="fill:none;stroke:white;stroke-width:8.24px;"/>
            </g>
            <g transform="matrix(0.56393,0,0,0.92115,971.649,-293.746)">
                <path d="M2253.24,127.474L2253.24,162.447C2253.24,165.971 2248.07,168.832 2241.7,168.832L2218.61,168.832C2212.24,168.832 2207.06,165.971 2207.06,162.447L2207.06,127.474" style="fill:none;stroke:white;stroke-width:10.87px;"/>
            </g>
            <g transform="matrix(6.12323e-17,-1,1,6.12323e-17,2412.76,2045.04)">
                <g transform="matrix(1,4.45201e-16,4.45201e-16,0.945806,0.343667,-315.975)">
                    <path d="M2234.63,74.837C2234.63,78.15 2232.09,80.84 2228.95,80.84C2225.82,80.84 2223.28,78.15 2223.28,74.837L2223.28,67.918C2223.28,64.605 2225.82,61.915 2228.95,61.915C2232.09,61.915 2234.63,64.605 2234.63,67.918L2234.63,74.837ZM2234.63,54.078C2234.63,57.392 2232.09,60.081 2228.95,60.081C2225.82,60.081 2223.28,57.392 2223.28,54.078L2223.28,40.239C2223.28,36.926 2225.82,34.237 2228.95,34.237C2232.09,34.237 2234.63,36.926 2234.63,40.239L2234.63,54.078Z" style="fill:white;stroke:white;stroke-width:1.03px;stroke-linecap:butt;stroke-linejoin:round;stroke-miterlimit:2;"/>
                </g>
                <g transform="matrix(1,0,0,1,0,3)">
                    <g transform="matrix(1,0,0,1,0.343667,-320.03)">
                        <path d="M2242.89,32.287L2228.95,19.481" style="fill:none;"/>
                        <path d="M2246.84,27.993C2249.2,30.171 2249.36,33.865 2247.18,36.235C2245,38.605 2241.31,38.761 2238.94,36.582L2225.01,23.776C2222.64,21.597 2222.48,17.904 2224.66,15.533C2226.84,13.163 2230.53,13.007 2232.9,15.186L2246.84,27.993Z" style="fill:white;"/>
                    </g>
                    <g transform="matrix(-1,0,0,1,4458.25,-320.03)">
                        <path d="M2242.89,32.287L2228.95,19.481" style="fill:none;"/>
                        <path d="M2238.94,36.582C2241.31,38.761 2245,38.605 2247.18,36.235C2249.36,33.865 2249.2,30.171 2246.84,27.993L2232.9,15.186C2230.53,13.007 2226.84,13.163 2224.66,15.533C2222.48,17.904 2222.64,21.597 2225.01,23.776L2238.94,36.582Z" style="fill:white;"/>
                    </g>
                </g>
            </g>
            <g transform="matrix(-0.707107,0.707107,-0.707107,-0.707107,3675.73,-1890.46)">
                <g transform="matrix(1,4.45201e-16,4.45201e-16,0.945806,0.343667,-315.975)">
                    <path d="M2234.63,74.837C2234.63,78.15 2232.09,80.84 2228.95,80.84C2225.82,80.84 2223.28,78.15 2223.28,74.837L2223.28,67.918C2223.28,64.605 2225.82,61.915 2228.95,61.915C2232.09,61.915 2234.63,64.605 2234.63,67.918L2234.63,74.837ZM2234.63,54.078C2234.63,57.392 2232.09,60.081 2228.95,60.081C2225.82,60.081 2223.28,57.392 2223.28,54.078L2223.28,40.239C2223.28,36.926 2225.82,34.237 2228.95,34.237C2232.09,34.237 2234.63,36.926 2234.63,40.239L2234.63,54.078Z" style="fill:white;stroke:white;stroke-width:1.03px;stroke-linecap:butt;stroke-linejoin:round;stroke-miterlimit:2;"/>
                </g>
                <g transform="matrix(1,0,0,1,0,3)">
                    <g transform="matrix(1,0,0,1,0.343667,-320.03)">
                        <path d="M2242.89,32.287L2228.95,19.481" style="fill:none;"/>
                        <path d="M2246.84,27.993C2249.2,30.171 2249.36,33.865 2247.18,36.235C2245,38.605 2241.31,38.761 2238.94,36.582L2225.01,23.776C2222.64,21.597 2222.48,17.904 2224.66,15.533C2226.84,13.163 2230.53,13.007 2232.9,15.186L2246.84,27.993Z" style="fill:white;"/>
                    </g>
                    <g transform="matrix(-1,0,0,1,4458.25,-320.03)">
                        <path d="M2242.89,32.287L2228.95,19.481" style="fill:none;"/>
                        <path d="M2238.94,36.582C2241.31,38.761 2245,38.605 2247.18,36.235C2249.36,33.865 2249.2,30.171 2246.84,27.993L2232.9,15.186C2230.53,13.007 2226.84,13.163 2224.66,15.533C2222.48,17.904 2222.64,21.597 2225.01,23.776L2238.94,36.582Z" style="fill:white;"/>
                    </g>
                </g>
            </g>
            <g transform="matrix(0.707107,0.707107,0.707107,-0.707107,783.394,-1889.89)">
                <g transform="matrix(1,4.45201e-16,4.45201e-16,0.945806,0.343667,-315.975)">
                    <path d="M2234.63,74.837C2234.63,78.15 2232.09,80.84 2228.95,80.84C2225.82,80.84 2223.28,78.15 2223.28,74.837L2223.28,67.918C2223.28,64.605 2225.82,61.915 2228.95,61.915C2232.09,61.915 2234.63,64.605 2234.63,67.918L2234.63,74.837ZM2234.63,54.078C2234.63,57.392 2232.09,60.081 2228.95,60.081C2225.82,60.081 2223.28,57.392 2223.28,54.078L2223.28,40.239C2223.28,36.926 2225.82,34.237 2228.95,34.237C2232.09,34.237 2234.63,36.926 2234.63,40.239L2234.63,54.078Z" style="fill:white;stroke:white;stroke-width:1.03px;stroke-linecap:butt;stroke-linejoin:round;stroke-miterlimit:2;"/>
                </g>
                <g transform="matrix(1,0,0,1,0,3)">
                    <g transform="matrix(1,0,0,1,0.343667,-320.03)">
                        <path d="M2242.89,32.287L2228.95,19.481" style="fill:none;"/>
                        <path d="M2238.94,36.582C2241.31,38.761 2245,38.605 2247.18,36.235C2249.36,33.865 2249.2,30.171 2246.84,27.993L2232.9,15.186C2230.53,13.007 2226.84,13.163 2224.66,15.533C2222.48,17.904 2222.64,21.597 2225.01,23.776L2238.94,36.582Z" style="fill:white;"/>
                    </g>
                    <g transform="matrix(-1,0,0,1,4458.25,-320.03)">
                        <path d="M2242.89,32.287L2228.95,19.481" style="fill:none;"/>
                        <path d="M2246.84,27.993C2249.2,30.171 2249.36,33.865 2247.18,36.235C2245,38.605 2241.31,38.761 2238.94,36.582L2225.01,23.776C2222.64,21.597 2222.48,17.904 2224.66,15.533C2226.84,13.163 2230.53,13.007 2232.9,15.186L2246.84,27.993Z" style="fill:white;"/>
                    </g>
                </g>
            </g>
            <g transform="matrix(0.707107,-0.707107,0.707107,0.707107,782.509,1522.54)">
                <g transform="matrix(1,4.45201e-16,4.45201e-16,0.945806,0.343667,-315.975)">
                    <path d="M2234.63,74.837C2234.63,78.15 2232.09,80.84 2228.95,80.84C2225.82,80.84 2223.28,78.15 2223.28,74.837L2223.28,67.918C2223.28,64.605 2225.82,61.915 2228.95,61.915C2232.09,61.915 2234.63,64.605 2234.63,67.918L2234.63,74.837ZM2234.63,54.078C2234.63,57.392 2232.09,60.081 2228.95,60.081C2225.82,60.081 2223.28,57.392 2223.28,54.078L2223.28,40.239C2223.28,36.926 2225.82,34.237 2228.95,34.237C2232.09,34.237 2234.63,36.926 2234.63,40.239L2234.63,54.078Z" style="fill:white;stroke:white;stroke-width:1.03px;stroke-linecap:butt;stroke-linejoin:round;stroke-miterlimit:2;"/>
                </g>
                <g transform="matrix(1,0,0,1,0,3)">
                    <g transform="matrix(1,0,0,1,0.343667,-320.03)">
                        <path d="M2242.89,32.287L2228.95,19.481" style="fill:none;"/>
                        <path d="M2246.84,27.993C2249.2,30.171 2249.36,33.865 2247.18,36.235C2245,38.605 2241.31,38.761 2238.94,36.582L2225.01,23.776C2222.64,21.597 2222.48,17.904 2224.66,15.533C2226.84,13.163 2230.53,13.007 2232.9,15.186L2246.84,27.993Z" style="fill:white;"/>
                    </g>
                    <g transform="matrix(-1,0,0,1,4458.25,-320.03)">
                        <path d="M2242.89,32.287L2228.95,19.481" style="fill:none;"/>
                        <path d="M2238.94,36.582C2241.31,38.761 2245,38.605 2247.18,36.235C2249.36,33.865 2249.2,30.171 2246.84,27.993L2232.9,15.186C2230.53,13.007 2226.84,13.163 2224.66,15.533C2222.48,17.904 2222.64,21.597 2225.01,23.776L2238.94,36.582Z" style="fill:white;"/>
                    </g>
                </g>
            </g>
            <g transform="matrix(-0.707107,-0.707107,-0.707107,0.707107,3675.73,1522.14)">
                <g transform="matrix(1,4.45201e-16,4.45201e-16,0.945806,0.343667,-315.975)">
                    <path d="M2234.63,74.837C2234.63,78.15 2232.09,80.84 2228.95,80.84C2225.82,80.84 2223.28,78.15 2223.28,74.837L2223.28,67.918C2223.28,64.605 2225.82,61.915 2228.95,61.915C2232.09,61.915 2234.63,64.605 2234.63,67.918L2234.63,74.837ZM2234.63,54.078C2234.63,57.392 2232.09,60.081 2228.95,60.081C2225.82,60.081 2223.28,57.392 2223.28,54.078L2223.28,40.239C2223.28,36.926 2225.82,34.237 2228.95,34.237C2232.09,34.237 2234.63,36.926 2234.63,40.239L2234.63,54.078Z" style="fill:white;stroke:white;stroke-width:1.03px;stroke-linecap:butt;stroke-linejoin:round;stroke-miterlimit:2;"/>
                </g>
                <g transform="matrix(1,0,0,1,0,3)">
                    <g transform="matrix(1,0,0,1,0.343667,-320.03)">
                        <path d="M2242.89,32.287L2228.95,19.481" style="fill:none;"/>
                        <path d="M2238.94,36.582C2241.31,38.761 2245,38.605 2247.18,36.235C2249.36,33.865 2249.2,30.171 2246.84,27.993L2232.9,15.186C2230.53,13.007 2226.84,13.163 2224.66,15.533C2222.48,17.904 2222.64,21.597 2225.01,23.776L2238.94,36.582Z" style="fill:white;"/>
                    </g>
                    <g transform="matrix(-1,0,0,1,4458.25,-320.03)">
                        <path d="M2242.89,32.287L2228.95,19.481" style="fill:none;"/>
                        <path d="M2246.84,27.993C2249.2,30.171 2249.36,33.865 2247.18,36.235C2245,38.605 2241.31,38.761 2238.94,36.582L2225.01,23.776C2222.64,21.597 2222.48,17.904 2224.66,15.533C2226.84,13.163 2230.53,13.007 2232.9,15.186L2246.84,27.993Z" style="fill:white;"/>
                    </g>
                </g>
            </g>
            <g transform="matrix(0.881495,0,0,0.881495,239.946,-314.941)">
                <circle cx="2256.79" cy="148.246" r="67.534" style="fill:none;stroke:white;stroke-width:11.67px;"/>
            </g>
            <g transform="matrix(0.174184,0,0,0.174184,1836.2,-244.664)">
                <circle cx="2256.79" cy="148.246" r="67.534" style="fill:none;stroke:white;stroke-width:46.46px;"/>
            </g>
            <g transform="matrix(1,4.45201e-16,4.45201e-16,0.945806,0.343667,-315.975)">
                <path d="M2234.63,74.837C2234.63,78.15 2232.09,80.84 2228.95,80.84C2225.82,80.84 2223.28,78.15 2223.28,74.837L2223.28,67.918C2223.28,64.605 2225.82,61.915 2228.95,61.915C2232.09,61.915 2234.63,64.605 2234.63,67.918L2234.63,74.837ZM2234.63,54.078C2234.63,57.392 2232.09,60.081 2228.95,60.081C2225.82,60.081 2223.28,57.392 2223.28,54.078L2223.28,40.239C2223.28,36.926 2225.82,34.237 2228.95,34.237C2232.09,34.237 2234.63,36.926 2234.63,40.239L2234.63,54.078Z" style="fill:white;stroke:white;stroke-width:1.03px;stroke-linecap:butt;stroke-linejoin:round;stroke-miterlimit:2;"/>
            </g>
            <g transform="matrix(1,0,0,1,0,3)">
                <g transform="matrix(1,0,0,1,0.343667,-320.03)">
                    <path d="M2246.84,27.993C2249.2,30.171 2249.36,33.865 2247.18,36.235C2245,38.605 2241.31,38.761 2238.94,36.582L2225.01,23.776C2222.64,21.597 2222.48,17.904 2224.66,15.533C2226.84,13.163 2230.53,13.007 2232.9,15.186L2246.84,27.993Z" style="fill:white;"/>
                </g>
                <g transform="matrix(-1,0,0,1,4458.25,-320.03)">
                    <path d="M2238.94,36.582C2241.31,38.761 2245,38.605 2247.18,36.235C2249.36,33.865 2249.2,30.171 2246.84,27.993L2232.9,15.186C2230.53,13.007 2226.84,13.163 2224.66,15.533C2222.48,17.904 2222.64,21.597 2225.01,23.776L2238.94,36.582Z" style="fill:white;"/>
                </g>
            </g>
            <g transform="matrix(6.12323e-17,1,-1,6.12323e-17,2045.34,-2413.56)">
                <g transform="matrix(1,4.45201e-16,4.45201e-16,0.945806,0.343667,-315.975)">
                    <path d="M2234.63,74.837C2234.63,78.15 2232.09,80.84 2228.95,80.84C2225.82,80.84 2223.28,78.15 2223.28,74.837L2223.28,67.918C2223.28,64.605 2225.82,61.915 2228.95,61.915C2232.09,61.915 2234.63,64.605 2234.63,67.918L2234.63,74.837ZM2234.63,54.078C2234.63,57.392 2232.09,60.081 2228.95,60.081C2225.82,60.081 2223.28,57.392 2223.28,54.078L2223.28,40.239C2223.28,36.926 2225.82,34.237 2228.95,34.237C2232.09,34.237 2234.63,36.926 2234.63,40.239L2234.63,54.078Z" style="fill:white;stroke:white;stroke-width:1.03px;stroke-linecap:butt;stroke-linejoin:round;stroke-miterlimit:2;"/>
                </g>
                <g transform="matrix(1,0,0,1,0,3)">
                    <g transform="matrix(1,0,0,1,0.343667,-320.03)">
                        <path d="M2242.89,32.287L2228.95,19.481" style="fill:none;"/>
                        <path d="M2246.84,27.993C2249.2,30.171 2249.36,33.865 2247.18,36.235C2245,38.605 2241.31,38.761 2238.94,36.582L2225.01,23.776C2222.64,21.597 2222.48,17.904 2224.66,15.533C2226.84,13.163 2230.53,13.007 2232.9,15.186L2246.84,27.993Z" style="fill:white;"/>
                    </g>
                    <g transform="matrix(-1,0,0,1,4458.25,-320.03)">
                        <path d="M2242.89,32.287L2228.95,19.481" style="fill:none;"/>
                        <path d="M2238.94,36.582C2241.31,38.761 2245,38.605 2247.18,36.235C2249.36,33.865 2249.2,30.171 2246.84,27.993L2232.9,15.186C2230.53,13.007 2226.84,13.163 2224.66,15.533C2222.48,17.904 2222.64,21.597 2225.01,23.776L2238.94,36.582Z" style="fill:white;"/>
                    </g>
                </g>
            </g>
            <g transform="matrix(-1,-1.22465e-16,1.22465e-16,-1,4458.6,-367.882)">
                <g transform="matrix(1,4.45201e-16,4.45201e-16,0.945806,0.343667,-315.975)">
                    <path d="M2234.63,74.837C2234.63,78.15 2232.09,80.84 2228.95,80.84C2225.82,80.84 2223.28,78.15 2223.28,74.837L2223.28,67.918C2223.28,64.605 2225.82,61.915 2228.95,61.915C2232.09,61.915 2234.63,64.605 2234.63,67.918L2234.63,74.837ZM2234.63,54.078C2234.63,57.392 2232.09,60.081 2228.95,60.081C2225.82,60.081 2223.28,57.392 2223.28,54.078L2223.28,40.239C2223.28,36.926 2225.82,34.237 2228.95,34.237C2232.09,34.237 2234.63,36.926 2234.63,40.239L2234.63,54.078Z" style="fill:white;stroke:white;stroke-width:1.03px;stroke-linecap:butt;stroke-linejoin:round;stroke-miterlimit:2;"/>
                </g>
                <g transform="matrix(1,0,0,1,0,3)">
                    <g transform="matrix(1,0,0,1,0.343667,-320.03)">
                        <path d="M2242.89,32.287L2228.95,19.481" style="fill:none;"/>
                        <path d="M2246.84,27.993C2249.2,30.171 2249.36,33.865 2247.18,36.235C2245,38.605 2241.31,38.761 2238.94,36.582L2225.01,23.776C2222.64,21.597 2222.48,17.904 2224.66,15.533C2226.84,13.163 2230.53,13.007 2232.9,15.186L2246.84,27.993Z" style="fill:white;"/>
                    </g>
                    <g transform="matrix(-1,0,0,1,4458.25,-320.03)">
                        <path d="M2242.89,32.287L2228.95,19.481" style="fill:none;"/>
                        <path d="M2238.94,36.582C2241.31,38.761 2245,38.605 2247.18,36.235C2249.36,33.865 2249.2,30.171 2246.84,27.993L2232.9,15.186C2230.53,13.007 2226.84,13.163 2224.66,15.533C2222.48,17.904 2222.64,21.597 2225.01,23.776L2238.94,36.582Z" style="fill:white;"/>
                    </g>
                </g>
            </g>
        </g>
    </g>
</svg>
