<?xml version="1.0" encoding="UTF-8" standalone="no"?>
<!DOCTYPE svg PUBLIC "-//W3C//DTD SVG 1.1//EN" "http://www.w3.org/Graphics/SVG/1.1/DTD/svg11.dtd">
<svg width="100%" height="100%" viewBox="0 0 264 272" version="1.1" xmlns="http://www.w3.org/2000/svg" xmlns:xlink="http://www.w3.org/1999/xlink" xml:space="preserve" xmlns:serif="http://www.serif.com/" style="fill-rule:evenodd;clip-rule:evenodd;stroke-linecap:round;stroke-linejoin:round;">
    <g transform="matrix(1,0,0,1,-2696.28,0)">
        <g id="Ebene-1" serif:id="Ebene 1">
        </g>
        <g id="Ebene-11" serif:id="Ebene 1">
        </g>
        <g id="Artboard13" transform="matrix(1,0,0,1,598.932,320.03)">
            <rect x="2097.34" y="-320.03" width="263.909" height="271.536" style="fill:none;"/>
            <g transform="matrix(1,0,0,1,2060.56,-490.629)">
                <g transform="matrix(1.02646,0,0,1.0121,-2425.13,165.285)">
                    <path d="M2457.32,63.98L2457.32,34.844C2457.32,26.019 2464.38,18.855 2473.08,18.855L2585.98,18.855L2641.05,76.144L2641.05,243.947C2641.05,252.772 2633.98,259.936 2625.28,259.936L2473.08,259.936C2464.38,259.936 2457.32,252.772 2457.32,243.947L2457.32,215.736" style="fill:none;stroke:white;stroke-width:10.17px;"/>
                </g>
                <g transform="matrix(1,0,0,1,-2356.72,169.383)">
                    <circle cx="2461.52" cy="124.15" r="21.775" style="fill:none;stroke:white;stroke-width:10.42px;"/>
                </g>
                <g transform="matrix(1.15472,0,0,1.15472,-2754.62,135.268)">
                    <path d="M2467.59,104.553C2467.59,99.746 2471.49,95.843 2476.3,95.843C2481.1,95.843 2485.01,99.746 2485.01,104.553C2487.41,100.39 2492.74,98.961 2496.9,101.365C2501.07,103.768 2502.5,109.1 2500.09,113.263C2504.26,110.86 2509.59,112.288 2511.99,116.451C2514.39,120.615 2512.97,125.946 2508.8,128.35C2513.61,128.35 2517.51,132.253 2517.51,137.06C2517.51,141.867 2513.61,145.77 2508.8,145.77C2512.97,148.174 2514.39,153.505 2511.99,157.668C2509.59,161.832 2504.26,163.26 2500.09,160.857C2502.5,165.02 2501.07,170.351 2496.9,172.755C2492.74,175.159 2487.41,173.73 2485.01,169.567C2485.01,174.374 2481.1,178.277 2476.3,178.277C2471.49,178.277 2467.59,174.374 2467.59,169.567C2465.18,173.73 2459.85,175.159 2455.69,172.755C2451.52,170.351 2450.1,165.02 2452.5,160.857C2448.34,163.26 2443,161.832 2440.6,157.668C2438.2,153.505 2439.62,148.174 2443.79,145.77C2438.98,145.77 2435.08,141.867 2435.08,137.06C2435.08,132.253 2438.98,128.35 2443.79,128.35C2439.62,125.946 2438.2,120.615 2440.6,116.451C2443,112.288 2448.34,110.86 2452.5,113.263C2450.1,109.1 2451.52,103.768 2455.69,101.365C2459.85,98.961 2465.18,100.39 2467.59,104.553Z" style="fill:none;stroke:white;stroke-width:9.02px;"/>
                </g>
                <g transform="matrix(1,0,0,1,-2356.87,169.972)">
                    <path d="M2464.93,171.15L2490.34,214.336L2490.93,189.052L2514.23,200.799L2489.99,159.312" style="fill:none;stroke:white;stroke-width:10.42px;"/>
                </g>
                <g transform="matrix(-1,0,0,1,2566.5,169.972)">
                    <path d="M2464.93,171.15L2490.34,214.336L2490.93,189.052L2514.23,200.799L2489.99,159.312" style="fill:none;stroke:white;stroke-width:10.42px;"/>
                </g>
                <g transform="matrix(1,0,0,1,-2353.32,169.869)">
                    <path d="M2529.7,117.444L2576.8,117.444" style="fill:none;stroke:white;stroke-width:10.42px;"/>
                </g>
                <g transform="matrix(1.41278,0,0,1.41278,-3397.53,146.179)">
                    <path d="M2529.7,117.444L2576.8,117.444" style="fill:none;stroke:white;stroke-width:7.37px;"/>
                </g>
                <g transform="matrix(1.41278,0,0,1.41278,-3397.53,168.538)">
                    <path d="M2529.7,117.444L2576.8,117.444" style="fill:none;stroke:white;stroke-width:7.37px;"/>
                </g>
                <g transform="matrix(1.41278,0,0,1.41278,-3397.53,190.873)">
                    <path d="M2529.7,117.444L2576.8,117.444" style="fill:none;stroke:white;stroke-width:7.37px;"/>
                </g>
                <g transform="matrix(1,0,0,1.34009,-2356.72,143.412)">
                    <path d="M2641.75,76.368L2605.72,76.368C2591,76.368 2584.45,71.486 2584.45,60.5L2584.45,30.702" style="fill:none;stroke:white;stroke-width:8.81px;"/>
                </g>
            </g>
        </g>
    </g>
</svg>
