<?xml version="1.0" encoding="UTF-8" standalone="no"?>
<!DOCTYPE svg PUBLIC "-//W3C//DTD SVG 1.1//EN" "http://www.w3.org/Graphics/SVG/1.1/DTD/svg11.dtd">
<svg width="100%" height="100%" viewBox="0 0 264 272" version="1.1" xmlns="http://www.w3.org/2000/svg" xmlns:xlink="http://www.w3.org/1999/xlink" xml:space="preserve" xmlns:serif="http://www.serif.com/" style="fill-rule:evenodd;clip-rule:evenodd;stroke-linecap:round;stroke-linejoin:round;">
    <g transform="matrix(1,0,0,1,-3009.91,-5.68434e-14)">
        <g id="Ebene-1" serif:id="Ebene 1">
        </g>
        <g id="Ebene-11" serif:id="Ebene 1">
        </g>
        <g id="Artboard13" transform="matrix(1,0,0,1,912.566,320.03)">
            <rect x="2097.34" y="-320.03" width="263.909" height="271.536" style="fill:none;"/>
            <g transform="matrix(1,0,0,1.20635,-912.566,-357.2)">
                <path d="M3208.42,141.419C3224.44,141.419 3239.25,155.468 3237.45,170.452C3235.45,187.097 3220.95,199.485 3208.42,199.485C3193.14,199.485 3181.38,186.89 3179.39,170.452C3177.45,154.509 3192.39,141.419 3208.42,141.419Z" style="fill:none;stroke:white;stroke-width:10.42px;"/>
            </g>
            <g transform="matrix(1.07296,0,0,1.07296,-1146.66,-325.239)">
                <path d="M3214.11,35.49L3214.82,43.772C3217.86,44.477 3220.77,45.681 3223.42,47.335L3229.78,41.984C3232.87,44.227 3235.59,46.94 3237.83,50.027L3232.48,56.389C3234.13,59.04 3235.33,61.947 3236.04,64.991L3244.32,65.707C3244.92,69.474 3244.92,73.312 3244.32,77.08L3236.04,77.795C3235.33,80.84 3234.13,83.746 3232.48,86.397L3237.83,92.76C3235.59,95.846 3232.87,98.56 3229.78,100.802L3223.42,95.452C3220.77,97.105 3217.86,98.309 3214.82,99.015L3214.11,107.297C3210.34,107.893 3206.5,107.893 3202.73,107.297L3202.02,99.015C3198.97,98.309 3196.07,97.105 3193.41,95.452L3187.05,100.802C3183.97,98.56 3181.25,95.846 3179.01,92.76L3184.36,86.397C3182.71,83.746 3181.5,80.84 3180.8,77.795L3172.51,77.08C3171.92,73.312 3171.92,69.474 3172.51,65.707L3180.8,64.991C3181.5,61.947 3182.71,59.04 3184.36,56.389L3179.01,50.027C3181.25,46.94 3183.97,44.227 3187.05,41.984L3193.41,47.335C3196.07,45.681 3198.97,44.477 3202.02,43.772L3202.73,35.49C3206.5,34.893 3210.34,34.893 3214.11,35.49ZM3208.42,59.397C3215.04,59.397 3220.41,64.772 3220.41,71.393C3220.41,78.014 3215.04,83.389 3208.42,83.389C3201.8,83.389 3196.42,78.014 3196.42,71.393C3196.42,64.772 3201.8,59.397 3208.42,59.397Z" style="fill:none;stroke:white;stroke-width:9.71px;"/>
            </g>
            <g transform="matrix(1.07296,0,0,1.07296,-1277.14,-177.869)">
                <path d="M3214.11,35.49L3214.82,43.772C3217.86,44.477 3220.77,45.681 3223.42,47.335L3229.78,41.984C3232.87,44.227 3235.59,46.94 3237.83,50.027L3232.48,56.389C3234.13,59.04 3235.33,61.947 3236.04,64.991L3244.32,65.707C3244.92,69.474 3244.92,73.312 3244.32,77.08L3236.04,77.795C3235.33,80.84 3234.13,83.746 3232.48,86.397L3237.83,92.76C3235.59,95.846 3232.87,98.56 3229.78,100.802L3223.42,95.452C3220.77,97.105 3217.86,98.309 3214.82,99.015L3214.11,107.297C3210.34,107.893 3206.5,107.893 3202.73,107.297L3202.02,99.015C3198.97,98.309 3196.07,97.105 3193.41,95.452L3187.05,100.802C3183.97,98.56 3181.25,95.846 3179.01,92.76L3184.36,86.397C3182.71,83.746 3181.5,80.84 3180.8,77.795L3172.51,77.08C3171.92,73.312 3171.92,69.474 3172.51,65.707L3180.8,64.991C3181.5,61.947 3182.71,59.04 3184.36,56.389L3179.01,50.027C3181.25,46.94 3183.97,44.227 3187.05,41.984L3193.41,47.335C3196.07,45.681 3198.97,44.477 3202.02,43.772L3202.73,35.49C3206.5,34.893 3210.34,34.893 3214.11,35.49ZM3208.42,59.397C3215.04,59.397 3220.41,64.772 3220.41,71.393C3220.41,78.014 3215.04,83.389 3208.42,83.389C3201.8,83.389 3196.42,78.014 3196.42,71.393C3196.42,64.772 3201.8,59.397 3208.42,59.397Z" style="fill:none;stroke:white;stroke-width:9.71px;"/>
            </g>
            <g transform="matrix(1,0,0,1,-912.566,-320.03)">
                <path d="M3179.64,159.814C3179.64,159.814 3198.75,154.822 3208.41,154.822C3218.07,154.822 3237.6,159.814 3237.6,159.814" style="fill:none;stroke:white;stroke-width:10.42px;"/>
            </g>
            <g transform="matrix(1,0,0,1,-913.002,-319.781)">
                <path d="M3194.5,198.775L3194.73,214.789C3194.73,214.789 3201.8,221.778 3208.62,221.778C3215.44,221.778 3223.18,214.04 3223.18,214.04L3223.18,196.971" style="fill:none;stroke:white;stroke-width:10.42px;"/>
            </g>
            <g transform="matrix(1,0,0,1,-912.566,-320.03)">
                <path d="M3194.29,215.038C3194.29,215.038 3170.45,220.454 3166.24,224.666C3162.03,228.879 3166.24,257.767 3166.24,257.767" style="fill:none;stroke:white;stroke-width:10.42px;"/>
            </g>
            <g transform="matrix(-1,0,0,1,5504.36,-320.03)">
                <path d="M3194.29,215.038C3194.29,215.038 3170.45,220.454 3166.24,224.666C3162.03,228.879 3166.24,257.767 3166.24,257.767" style="fill:none;stroke:white;stroke-width:10.42px;"/>
            </g>
            <g transform="matrix(1,0,0,1.20635,-1043.04,-458.241)">
                <path d="M3208.42,141.419C3224.44,141.419 3239.25,155.468 3237.45,170.452C3235.45,187.097 3220.95,199.485 3208.42,199.485C3193.14,199.485 3181.38,186.89 3179.39,170.452C3177.45,154.509 3192.39,141.419 3208.42,141.419Z" style="fill:none;stroke:white;stroke-width:10.42px;"/>
            </g>
            <g transform="matrix(1,0,0,1,-1043.04,-421.072)">
                <path d="M3179.64,159.814C3179.64,159.814 3198.75,154.822 3208.41,154.822C3218.07,154.822 3237.6,159.814 3237.6,159.814" style="fill:none;stroke:white;stroke-width:10.42px;"/>
            </g>
            <g transform="matrix(1,0,0,1,-1043.48,-420.822)">
                <path d="M3194.5,198.775L3194.73,214.789C3194.73,214.789 3201.8,221.778 3208.62,221.778C3215.44,221.778 3223.18,214.04 3223.18,214.04L3223.18,196.971" style="fill:none;stroke:white;stroke-width:10.42px;"/>
            </g>
            <g transform="matrix(1,0,0,1,-1043.04,-421.072)">
                <path d="M3194.29,215.038C3194.29,215.038 3170.45,220.454 3166.24,224.666C3162.03,228.879 3166.24,257.767 3166.24,257.767" style="fill:none;stroke:white;stroke-width:10.42px;"/>
            </g>
            <g transform="matrix(-1,0,0,1,5373.89,-421.072)">
                <path d="M3194.29,215.038C3194.29,215.038 3170.45,220.454 3166.24,224.666C3162.03,228.879 3166.24,257.767 3166.24,257.767" style="fill:none;stroke:white;stroke-width:10.42px;"/>
            </g>
            <g transform="matrix(1,0,0,1,-911.566,-318.03)">
                <path d="M3162.11,235.373C3162.11,235.373 3149.82,236.933 3142.33,218.523C3139.03,210.431 3142.46,181.511 3142.46,181.511L3141.86,188.425C3141.86,188.425 3145.16,155.755 3141.86,147.662C3134.38,129.252 3122.09,130.812 3122.09,130.812" style="fill:none;stroke:white;stroke-width:10.42px;"/>
            </g>
        </g>
    </g>
</svg>
