<?xml version="1.0" encoding="UTF-8" standalone="no"?>
<!DOCTYPE svg PUBLIC "-//W3C//DTD SVG 1.1//EN" "http://www.w3.org/Graphics/SVG/1.1/DTD/svg11.dtd">
<svg width="100%" height="100%" viewBox="0 0 250 248" version="1.1" xmlns="http://www.w3.org/2000/svg" xmlns:xlink="http://www.w3.org/1999/xlink" xml:space="preserve" xmlns:serif="http://www.serif.com/" style="fill-rule:evenodd;clip-rule:evenodd;stroke-linejoin:round;stroke-miterlimit:2;">
    <g transform="matrix(1,0,0,1,-2072.37,-629.9)">
        <g id="ArtBoard12" transform="matrix(1,0,0,1,2069.44,-46.1138)">
            <rect x="2.925" y="676.014" width="249.751" height="247.021" style="fill:none;"/>
            <g transform="matrix(2.17481,0,0,2.06906,28.7065,697.816)">
                <g>
                    <g transform="matrix(1,0,0,1,32.8618,77.3175)">
                        <path d="M0,-44.337C0,-45.419 0.118,-46.489 -0.03,-47.522C-0.218,-48.833 -1.493,-49.827 -2.733,-49.727C-3.999,-49.624 -5.061,-48.989 -5.278,-47.702C-5.481,-46.5 -5.322,-45.236 -5.322,-44.038C-3.451,-44.144 -1.763,-44.238 0,-44.337M33.004,-38.675C33.004,-39.549 33.026,-40.424 33,-41.298C32.948,-42.983 31.888,-44.15 30.372,-44.23C28.921,-44.305 27.568,-43.131 27.489,-41.529C27.396,-39.64 27.395,-37.737 27.495,-35.849C27.576,-34.331 28.906,-33.166 30.285,-33.184C31.764,-33.202 32.935,-34.421 32.998,-36.051C33.031,-36.925 33.004,-37.8 33.004,-38.675M11.041,-43.919C11.041,-46.739 11.07,-49.556 11.029,-52.372C11.006,-54.003 9.941,-55.087 8.446,-55.147C6.93,-55.207 5.622,-54.239 5.553,-52.671C5.431,-49.916 5.519,-47.151 5.519,-44.377C7.403,-44.221 9.169,-44.074 11.041,-43.919M16.589,-41.508C16.589,-39.709 16.573,-37.909 16.593,-36.11C16.612,-34.446 17.707,-33.241 19.203,-33.186C20.602,-33.135 21.975,-34.27 22.008,-35.805C22.09,-39.595 22.091,-43.389 21.997,-47.178C21.959,-48.703 20.536,-49.829 19.146,-49.74C17.696,-49.647 16.617,-48.477 16.595,-46.905C16.57,-45.107 16.589,-43.307 16.589,-41.508M27.372,10.767C27.762,6.063 27.116,5.346 22.651,5.346C14.849,5.346 7.046,5.345 -0.757,5.348C-1.488,5.348 -2.227,5.312 -2.947,5.407C-4.162,5.565 -5.11,6.221 -5.299,7.46C-5.464,8.533 -5.333,9.65 -5.333,10.767L27.372,10.767ZM33.065,-28.217C29.901,-27.339 27.187,-27.861 24.801,-29.823C21.108,-27.089 17.471,-27.098 13.858,-29.744C12.77,-29.139 11.695,-28.542 10.55,-27.905C14.282,-24.28 16.17,-19.862 16.53,-14.751C16.662,-12.872 15.614,-11.42 13.968,-11.295C12.388,-11.174 11.083,-12.414 11.056,-14.258C10.956,-21.033 5.69,-27.382 -2.395,-27.794C-4.393,-27.896 -5.424,-28.903 -5.355,-30.623C-5.291,-32.228 -4.181,-33.152 -2.26,-33.158C1.106,-33.17 4.473,-33.143 7.838,-33.171C9.81,-33.188 11.065,-34.344 11.035,-36.022C11.006,-37.678 9.841,-38.672 7.877,-38.678C4.462,-38.689 1.047,-38.697 -2.368,-38.677C-7.453,-38.647 -10.866,-35.232 -10.91,-30.125C-10.936,-27.101 -10.851,-24.074 -10.928,-21.052C-11.103,-14.24 -8.304,-9.322 -1.931,-6.614C-0.558,-6.031 0.077,-5.011 0.028,-3.519C-0.008,-2.41 0.021,-1.299 0.021,-0.129L22.067,-0.129C22.067,-0.933 22.146,-1.665 22.053,-2.375C21.729,-4.842 22.796,-6.21 25.095,-7.146C28.285,-8.442 30.478,-10.909 31.856,-14.081C33.833,-18.632 32.658,-23.406 33.065,-28.217M0.351,-54.708C1.76,-58.315 4.202,-60.493 8.04,-60.6C12.149,-60.714 14.761,-58.479 16.265,-54.718C21.441,-55.989 25.129,-54.24 27.237,-49.3C28.375,-49.414 29.534,-49.693 30.667,-49.614C35.305,-49.29 38.464,-45.926 38.523,-41.078C38.612,-33.812 38.718,-26.538 38.487,-19.277C38.254,-11.923 34.859,-6.246 28.35,-2.626C27.45,-2.125 27.497,-1.503 27.434,-0.723C27.37,0.088 27.695,0.461 28.398,0.815C31.36,2.31 32.844,4.807 32.985,8.083C33.061,9.836 33.038,11.596 32.996,13.351C32.951,15.256 31.882,16.352 29.968,16.355C17.335,16.377 4.703,16.377 -7.93,16.355C-8.781,16.354 -9.491,16.112 -10.001,15.674C-10.528,15.221 -10.841,14.559 -10.875,13.735C-10.962,11.595 -11.005,9.434 -10.813,7.304C-10.545,4.329 -8.923,2.178 -6.291,0.736C-5.862,0.501 -5.501,-0.13 -5.404,-0.635C-5.265,-1.358 -5.243,-2.058 -6.179,-2.579C-13.121,-6.446 -16.381,-12.517 -16.439,-20.353C-16.469,-24.347 -16.439,-28.351 -16.178,-32.333C-15.959,-35.68 -14.229,-38.383 -11.833,-40.702C-11.351,-41.169 -11.016,-41.975 -10.956,-42.654C-10.806,-44.349 -11.01,-46.082 -10.793,-47.764C-10.104,-53.108 -5.544,-56.114 -0.313,-54.787C-0.129,-54.74 0.067,-54.74 0.351,-54.708" style="fill:white;"/>
                    </g>
                    <g transform="matrix(0.459811,0,0,0.483311,-73.1962,-92.6773)">
                        <rect x="206.865" y="375.846" width="10.982" height="9.758" style="fill:white;"/>
                    </g>
                    <g transform="matrix(0.459811,0,0,0.61912,-34.2769,-145.046)">
                        <rect x="206.865" y="375.846" width="10.982" height="9.758" style="fill:white;"/>
                    </g>
                    <g transform="matrix(1,0,0,1,43.9082,6.9607)">
                        <path d="M0,-0.033C0,-1.516 -0.532,-4.673 0.822,-6.135C2.561,-8.015 5.45,-6.439 5.511,-4.105C5.593,-0.982 6.467,2.384 5.257,5.264C4.329,7.47 1.001,7.335 0.218,5.104C-0.22,3.858 0,0.274 0,-0.033" style="fill:white;"/>
                    </g>
                    <g transform="matrix(1,0,0,1,71.6645,14.5315)">
                        <path d="M0,-6.386C-0.296,-5.816 -0.694,-4.722 -1.148,-4.236C-2.911,-2.347 -4.758,-0.537 -6.617,1.257C-8.164,2.75 -12.169,1.591 -11.432,-0.942C-10.849,-2.944 -9.157,-4.019 -7.708,-5.374C-7.308,-5.747 -6.947,-6.159 -6.555,-6.539C-5.351,-7.703 -3.836,-9.692 -1.882,-8.517C-1.093,-8.042 -0.582,-7.676 0,-6.386" style="fill:white;"/>
                    </g>
                    <g transform="matrix(1,0,0,1,33.1494,8.096)">
                        <path d="M0,6.112C-0.726,6.964 -1.383,8.252 -2.569,8.55C-3.328,8.74 -4.132,8.399 -4.671,7.874C-6.659,5.938 -8.642,3.995 -10.553,1.982C-11.019,1.491 -11.248,0.854 -11.206,0.181C-11.081,-1.85 -8.424,-3.343 -6.815,-1.811C-4.77,0.136 -2.772,2.135 -0.833,4.188C-0.493,4.548 -0.144,5.767 0,6.112" style="fill:white;"/>
                    </g>
                    <g transform="matrix(1,0,0,1,16.3891,20.0431)">
                        <path d="M0,1.577C-0.003,2.124 -0.094,2.661 -0.308,3.166C-0.4,3.384 -0.517,3.592 -0.655,3.783C-2.21,5.927 -4.952,3.998 -6.61,3.18C-6.805,3.083 -9.688,1.837 -10.394,0.924C-11.989,-1.137 -9.642,-4.142 -7.265,-3.172C-6.209,-2.741 -5.184,-2.234 -4.166,-1.72C-2.968,-1.116 -1.173,-0.561 -0.42,0.762C-0.268,1.027 -0.168,1.322 0,1.577" style="fill:white;"/>
                    </g>
                    <g transform="matrix(1,0,0,1,82.5898,21.6499)">
                        <path d="M0,-1.978C-0.633,-1.233 -1.038,-0.397 -1.88,0.162C-2.707,0.712 -3.611,1.138 -4.496,1.589C-5.383,2.041 -6.274,2.489 -7.194,2.87C-7.927,3.174 -8.604,3.31 -9.376,3.055C-10.735,2.607 -11.557,0.964 -11.068,-0.389C-10.802,-1.122 -10.234,-1.646 -9.563,-2.008C-7.785,-2.966 -2.565,-7.03 -0.514,-3.508C-0.243,-3.043 -0.071,-2.511 0,-1.978" style="fill:white;"/>
                    </g>
                    <g transform="matrix(1,0,0,1,5.5215,44.0935)">
                        <path d="M0,-5.448C0.766,-5.448 2.752,-5.636 3.786,-5.211C5.678,-4.433 6.013,-1.399 4.116,-0.397C3.099,0.139 0.344,-0.001 -0.095,-0.002C-0.567,-0.004 -3.235,0.139 -4.25,-0.438C-6.117,-1.499 -5.808,-4.366 -3.92,-5.191C-2.835,-5.665 -0.922,-5.457 0,-5.457L0,-5.448Z" style="fill:white;"/>
                    </g>
                    <g transform="matrix(1,0,0,1,82.3901,44.1026)">
                        <path d="M0,-5.46C0.822,-5.458 2.765,-5.653 3.817,-5.205C5.768,-4.374 5.99,-1.426 4.073,-0.404C3.06,0.135 0.474,-0.001 -0.027,0C-0.512,0.001 -3.165,0.13 -4.178,-0.389C-6.124,-1.385 -5.788,-4.469 -3.841,-5.231C-2.804,-5.637 -0.757,-5.461 0,-5.46" style="fill:white;"/>
                    </g>
                </g>
            </g>
        </g>
        <g id="Ebene-1" serif:id="Ebene 1">
        </g>
        <g id="Ebene-11" serif:id="Ebene 1">
        </g>
    </g>
</svg>
