<?xml version="1.0" encoding="UTF-8" standalone="no"?>
<!DOCTYPE svg PUBLIC "-//W3C//DTD SVG 1.1//EN" "http://www.w3.org/Graphics/SVG/1.1/DTD/svg11.dtd">
<svg width="100%" height="100%" viewBox="0 0 216 241" version="1.1" xmlns="http://www.w3.org/2000/svg" xmlns:xlink="http://www.w3.org/1999/xlink" xml:space="preserve" xmlns:serif="http://www.serif.com/" style="fill-rule:evenodd;clip-rule:evenodd;stroke-linecap:square;stroke-miterlimit:1;">
    <g transform="matrix(1,0,0,1,-2602.37,-635.9)">
        <g id="ArtBoard14" transform="matrix(1,0,0,1,2069.41,-46.9376)">
            <rect x="532.962" y="682.838" width="215.306" height="240.184" style="fill:none;"/>
            <g transform="matrix(1,0,0,1,278.146,1248.73)">
                <g transform="matrix(0.777778,0,0,1,-346.904,-737.361)">
                    <path d="M965.869,343.172C965.869,347.444 962.4,350.913 958.128,350.913C953.855,350.913 950.386,347.444 950.386,343.172L965.869,343.172Z" style="fill:white;"/>
                </g>
                <g transform="matrix(0.985698,0,0,1.0515,-39.9459,-775.74)">
                    <path d="M453.368,335.521C446.037,318.841 428.517,307.087 408.092,307.087L383.619,307.087C356.606,307.087 334.674,327.647 334.674,352.97L334.674,392.364" style="fill:none;stroke:white;stroke-width:11.45px;"/>
                </g>
                <g transform="matrix(1,0,0,1,-631.713,-755.64)">
                    <circle cx="981.962" cy="250.57" r="33.25" style="fill:none;stroke:white;stroke-width:11.67px;"/>
                </g>
                <g transform="matrix(1,0,0,1,-631.24,-754.765)">
                    <path d="M956.084,391.594L1054.06,391.594" style="fill:none;stroke:white;stroke-width:11.67px;"/>
                </g>
                <g transform="matrix(0.939291,0,0,1.2029,-409.583,-815.303)">
                    <path d="M901.217,327.57L828.341,327.57L816.685,375.87L889.561,375.87L901.217,327.57Z" style="fill:none;stroke:white;stroke-width:10.81px;stroke-miterlimit:4;"/>
                </g>
            </g>
        </g>
        <g id="Ebene-1" serif:id="Ebene 1">
        </g>
        <g id="Ebene-11" serif:id="Ebene 1">
        </g>
    </g>
</svg>
