<?xml version="1.0" encoding="UTF-8" standalone="no"?>
<!DOCTYPE svg PUBLIC "-//W3C//DTD SVG 1.1//EN" "http://www.w3.org/Graphics/SVG/1.1/DTD/svg11.dtd">
<svg width="100%" height="100%" viewBox="0 0 236 248" version="1.1" xmlns="http://www.w3.org/2000/svg" xmlns:xlink="http://www.w3.org/1999/xlink" xml:space="preserve" xmlns:serif="http://www.serif.com/" style="fill-rule:evenodd;clip-rule:evenodd;stroke-linejoin:round;stroke-miterlimit:2;">
    <g transform="matrix(1,0,0,1,-2342.37,-629.9)">
        <g id="ArtBoard13" transform="matrix(1,0,0,1,2069.63,-46.1)">
            <rect x="272.742" y="676" width="235.567" height="247.021" style="fill:none;"/>
            <g transform="matrix(4.63787,0,0,4.61751,438.762,713.646)">
                <path d="M0,36.166L-23.485,36.166L-23.485,25.824C-23.485,22.616 -21.742,19.659 -18.905,17.902L-11.758,24.953L-11.752,24.936L-11.742,24.967L-4.58,17.902C-1.744,19.659 0,22.616 0,25.824L0,36.166ZM-11.743,0.145L-5.6,2.329L-11.743,4.511L-17.885,2.329L-17.828,2.308L-11.743,0.145ZM-11.743,10.295C-9.434,10.295 -7.238,9.829 -5.363,8.967C-5.698,13.016 -8.431,16.183 -11.743,16.183C-13.091,16.183 -14.383,15.658 -15.479,14.666C-16.973,13.314 -17.925,11.228 -18.118,8.969C-16.243,9.829 -14.05,10.295 -11.743,10.295M-5.328,4.761L-5.328,6.249C-7.059,7.307 -9.355,7.911 -11.743,7.911C-14.13,7.911 -16.427,7.307 -18.158,6.249L-18.158,4.761L-11.743,7.041L-5.328,4.761ZM-11.743,21.609L-16.568,16.858C-15.136,17.976 -13.481,18.566 -11.743,18.566C-9.944,18.566 -8.271,17.92 -6.876,16.817L-11.743,21.609ZM-4.219,15.348C-4.219,15.347 -4.22,15.347 -4.22,15.347C-4.506,15.201 -4.81,15.088 -5.108,14.962C-3.764,13.129 -2.944,10.742 -2.944,8.127L-2.944,3.914L-2.614,3.797L-2.614,3.796L1.517,2.328L-11.743,-2.384L-20.872,0.86L-25.003,2.328L-20.872,3.797L-20.542,3.914L-20.542,8.127C-20.542,10.685 -19.77,13.077 -18.394,14.955C-18.688,15.079 -18.983,15.203 -19.266,15.347C-23.339,17.432 -25.869,21.447 -25.869,25.824L-25.869,38.55L2.384,38.55L2.384,25.824C2.384,21.447 -0.146,17.433 -4.219,15.348" style="fill:white;fill-rule:nonzero;"/>
            </g>
        </g>
        <g id="Ebene-1" serif:id="Ebene 1">
        </g>
        <g id="Ebene-11" serif:id="Ebene 1">
        </g>
    </g>
</svg>
