<?xml version="1.0" encoding="UTF-8" standalone="no"?>
<!DOCTYPE svg PUBLIC "-//W3C//DTD SVG 1.1//EN" "http://www.w3.org/Graphics/SVG/1.1/DTD/svg11.dtd">
<svg width="100%" height="100%" viewBox="0 0 269 251" version="1.1" xmlns="http://www.w3.org/2000/svg" xmlns:xlink="http://www.w3.org/1999/xlink" xml:space="preserve" xmlns:serif="http://www.serif.com/" style="fill-rule:evenodd;clip-rule:evenodd;stroke-linecap:square;">
    <g transform="matrix(1,0,0,1,-2843.37,-635.9)">
        <g id="ArtBoard15" transform="matrix(1,0,0,1,2069.91,-46.1)">
            <rect x="773.453" y="682" width="268.989" height="250.588" style="fill:none;"/>
            <g transform="matrix(1,0,0,1,124.418,1256.9)">
                <g transform="matrix(0.895697,0,0,1.02901,-220.582,-754.526)">
                    <path d="M1214.91,381.252L1214.91,319.2C1214.91,302.072 1198.93,288.166 1179.25,288.166L1166.78,288.166M1125.77,315.526L1125.77,381.385" style="fill:none;stroke:white;stroke-width:12.09px;"/>
                </g>
                <g transform="matrix(1.10817,0,0,1,-457.205,-754.147)">
                    <path d="M1064.13,217.045L1109.43,217.045" style="fill:none;stroke:white;stroke-width:11.05px;stroke-linecap:round;"/>
                </g>
                <g transform="matrix(1.10817,0,0,1,-457.205,-722.453)">
                    <path d="M1064.13,217.045L1109.43,217.045" style="fill:none;stroke:white;stroke-width:11.05px;stroke-linecap:round;"/>
                </g>
                <g transform="matrix(0.451449,0,0,0.407384,195.428,-593.828)">
                    <path d="M1064.13,217.045L1109.43,217.045" style="fill:none;stroke:white;stroke-width:27.13px;stroke-linecap:round;"/>
                </g>
                <g transform="matrix(0.451449,0,0,0.407384,195.428,-562.533)">
                    <path d="M1064.13,217.045L1109.43,217.045" style="fill:none;stroke:white;stroke-width:27.13px;stroke-linecap:round;"/>
                </g>
                <g transform="matrix(0.451449,0,0,0.407384,195.428,-625.553)">
                    <path d="M1064.13,217.045L1109.43,217.045" style="fill:none;stroke:white;stroke-width:27.13px;stroke-linecap:round;"/>
                </g>
                <g transform="matrix(1.9341e-17,-0.315862,0.99134,6.07021e-17,448.44,-74.2585)">
                    <path d="M1214.91,379.346L1214.91,299.526C1214.91,293.256 1198.93,288.166 1179.25,288.166L1161.43,288.166C1141.75,288.166 1125.77,293.256 1125.77,299.526L1125.77,339.316" style="fill:none;stroke:white;stroke-width:15.86px;"/>
                </g>
                <g transform="matrix(0.854577,0,0,0.854577,-170.02,-715.215)">
                    <circle cx="1167.49" cy="271.839" r="29.144" style="fill:none;stroke:white;stroke-width:13.65px;"/>
                </g>
            </g>
        </g>
        <g id="Ebene-1" serif:id="Ebene 1">
        </g>
        <g id="Ebene-11" serif:id="Ebene 1">
        </g>
    </g>
</svg>
