<?xml version="1.0" encoding="UTF-8" standalone="no"?>
<!DOCTYPE svg PUBLIC "-//W3C//DTD SVG 1.1//EN" "http://www.w3.org/Graphics/SVG/1.1/DTD/svg11.dtd">
<svg width="100%" height="100%" viewBox="0 0 267 273" version="1.1" xmlns="http://www.w3.org/2000/svg" xmlns:xlink="http://www.w3.org/1999/xlink" xml:space="preserve" xmlns:serif="http://www.serif.com/" style="fill-rule:evenodd;clip-rule:evenodd;stroke-linejoin:round;stroke-miterlimit:2;">
    <g transform="matrix(1,0,0,1,-895.283,-274.9)">
        <g transform="matrix(0.604976,0,0,0.500542,1648.73,182.772)">
            <g id="noun-corporate-training-6206285.svg" transform="matrix(6.88732,0,0,8.3243,-1025.03,517.028)">
                <g transform="matrix(1,0,0,1,-32,-40)">
                    <g>
                        <g>
                            <path d="M56,49.5L44.52,49.5C43.691,49.5 43.02,48.829 43.02,48C43.02,47.171 43.691,46.5 44.52,46.5L56,46.5C56.827,46.5 57.5,45.827 57.5,45L57.5,11C57.5,10.173 56.827,9.5 56,9.5L45.999,9.5C45.171,9.5 44.499,8.829 44.499,8C44.499,7.171 45.171,6.5 45.999,6.5L56,6.5C58.481,6.5 60.5,8.519 60.5,11L60.5,45C60.5,47.481 58.481,49.5 56,49.5Z" style="fill:rgb(253,253,253);fill-rule:nonzero;"/>
                            <path d="M19.38,49.5L8,49.5C5.519,49.5 3.5,47.481 3.5,45L3.5,11C3.5,8.519 5.519,6.5 8,6.5L24.88,6.5C25.708,6.5 26.38,7.171 26.38,8C26.38,8.829 25.708,9.5 24.88,9.5L8,9.5C7.173,9.5 6.5,10.173 6.5,11L6.5,45C6.5,45.827 7.173,46.5 8,46.5L19.38,46.5C20.208,46.5 20.88,47.171 20.88,48C20.88,48.829 20.208,49.5 19.38,49.5Z" style="fill:rgb(253,253,253);fill-rule:nonzero;"/>
                            <g>
                                <path d="M29.215,53.167L28.785,53.167C27.956,53.167 27.285,52.495 27.285,51.667C27.285,50.838 27.956,50.167 28.785,50.167L29.215,50.167C31.57,50.167 33.682,48.763 34.594,46.591L36.946,40.99C37.267,40.226 38.142,39.863 38.91,40.187C39.674,40.508 40.033,41.387 39.712,42.151L37.359,47.753C35.979,51.041 32.782,53.166 29.215,53.166L29.215,53.167Z" style="fill:rgb(253,253,253);fill-rule:nonzero;"/>
                                <path d="M45.08,60.5L27.16,60.5C26.706,60.5 26.275,60.294 25.991,59.939C25.706,59.585 25.597,59.12 25.695,58.676L26.912,53.17L21.7,53.17C20.589,53.17 19.524,52.696 18.78,51.869C18.034,51.042 17.672,49.933 17.788,48.825L18.193,44.723L15.454,44.171C14.996,44.079 14.607,43.778 14.402,43.358C14.197,42.938 14.199,42.447 14.408,42.029L14.548,41.749C14.585,41.676 14.628,41.605 14.676,41.539C17.435,37.737 17.057,36.411 16.483,34.403C16.177,33.329 15.83,32.112 15.83,30.46C15.83,25.501 17.99,20.81 21.755,17.59C22.384,17.053 23.332,17.126 23.87,17.755C24.408,18.385 24.334,19.332 23.705,19.87C20.607,22.519 18.83,26.378 18.83,30.46C18.83,31.692 19.092,32.609 19.369,33.58C20.083,36.083 20.389,38.097 18.204,41.665L20.116,42.049C20.871,42.202 21.388,42.901 21.313,43.667L20.772,49.127C20.734,49.497 20.904,49.745 21.008,49.861C21.112,49.976 21.34,50.17 21.7,50.17L28.78,50.17C29.234,50.17 29.665,50.376 29.949,50.73C30.234,51.085 30.343,51.55 30.245,51.994L29.028,57.5L43.472,57.5L43.084,51.955C42.689,46.355 43.579,40.795 45.658,35.876C46.618,33.612 46.955,31.09 46.633,28.582C46.133,24.742 43.986,21.251 40.745,19.003C40.064,18.531 39.895,17.596 40.367,16.916C40.839,16.234 41.773,16.066 42.454,16.537C46.391,19.267 48.998,23.517 49.607,28.196C49.998,31.235 49.588,34.294 48.421,37.045C46.525,41.53 45.715,46.614 46.076,51.745L46.576,58.896C46.605,59.311 46.461,59.719 46.177,60.023C45.894,60.327 45.496,60.5 45.08,60.5L45.08,60.5Z" style="fill:rgb(253,253,253);fill-rule:nonzero;"/>
                            </g>
                            <path d="M16,15.5L11,15.5C10.171,15.5 9.5,14.829 9.5,14C9.5,13.171 10.171,12.5 11,12.5L16,12.5C16.829,12.5 17.5,13.171 17.5,14C17.5,14.829 16.829,15.5 16,15.5Z" style="fill:rgb(253,253,253);fill-rule:nonzero;"/>
                            <path d="M13,20.5L11,20.5C10.171,20.5 9.5,19.829 9.5,19C9.5,18.171 10.171,17.5 11,17.5L13,17.5C13.829,17.5 14.5,18.171 14.5,19C14.5,19.829 13.829,20.5 13,20.5Z" style="fill:rgb(253,253,253);fill-rule:nonzero;"/>
                            <path d="M53,15.5L48,15.5C47.172,15.5 46.5,14.829 46.5,14C46.5,13.171 47.172,12.5 48,12.5L53,12.5C53.828,12.5 54.5,13.171 54.5,14C54.5,14.829 53.828,15.5 53,15.5Z" style="fill:rgb(253,253,253);fill-rule:nonzero;"/>
                            <path d="M53,20.5L51,20.5C50.172,20.5 49.5,19.829 49.5,19C49.5,18.171 50.172,17.5 51,17.5L53,17.5C53.828,17.5 54.5,18.171 54.5,19C54.5,19.829 53.828,20.5 53,20.5Z" style="fill:rgb(253,253,253);fill-rule:nonzero;"/>
                            <path d="M26.423,25.498L30.5,25.498L30.5,20.285C28.195,19.629 26.5,17.51 26.5,14.998C26.5,14.169 27.171,13.498 28,13.498C28.829,13.498 29.5,14.169 29.5,14.998C29.5,16.376 30.622,17.498 32,17.498C33.379,17.498 34.5,16.376 34.5,14.998C34.5,14.169 35.172,13.498 36,13.498C36.828,13.498 37.5,14.169 37.5,14.998C37.5,17.51 35.805,19.629 33.5,20.285L33.5,25.498L37.572,25.498C37.668,25.175 37.859,24.894 38.129,24.724C41.492,22.602 43.5,18.967 43.5,14.998C43.5,11.732 42.104,8.609 39.67,6.428C37.237,4.25 33.968,3.21 30.695,3.57C25.556,4.138 21.315,8.262 20.612,13.374C19.984,17.933 22,22.282 25.872,24.725C26.136,24.892 26.325,25.172 26.423,25.498L26.423,25.498Z" style="fill:white;fill-rule:nonzero;"/>
                            <path d="M26.5,28.498L26.5,28.998C26.5,31.479 28.519,33.498 31,33.498L33,33.498C35.481,33.498 37.5,31.479 37.5,28.998L37.5,28.498L26.5,28.498Z" style="fill:white;fill-rule:nonzero;"/>
                        </g>
                    </g>
                </g>
            </g>
        </g>
    </g>
</svg>
